<svg height="313.40302" viewBox="0 0 999.99999 313.40301" width="1000" xmlns="http://www.w3.org/2000/svg"><g fill="#0060af"><path d="m147.34669 237.88336c0-12.4911.13562-45.8787-.17228-49.99236.26842-49.68172-35.85414-84.72767-58.674773-81.99559-15.79108 1.37038-29.025179 7.8093-36.131016 26.33267-6.585974 17.26296-.697885 40.22487 21.198868 45.61295 23.413963 5.78646 37.086001 10.60092 46.980501 17.39303 12.12372 8.3152 22.02105 24.2022 22.28381 42.669"/><path d="m156.69305 313.40296c-41.28452 0-83.71334-10.1684-126.085648-30.2796l-1.039728-.5113-.497275-1.0595c-19.014838-40.1376-29.070399-84.0384-29.070399-126.98981 0-42.8866 9.6430481-84.908625 28.67202-124.992305l.522703-1.06518 1.05952-.53118c39.196567-18.5684196 81.362607-27.97412967 125.365177-27.97412967 40.99069 0 84.7672 10.47086967 126.57727 30.33333967l1.07365.47749.49444 1.08494c19.37931 40.87763 29.59874 84.767165 29.59874 127.006815 0 42.07562-9.81258 84.13432-29.2145 124.98642l-.51139 1.0737-1.07929.4974c-38.5976 18.2716-82.12548 27.9429-125.86529 27.9429m-122.164006-35.7834c41.163036 19.3623 82.215886 29.1411 122.164006 29.1411 42.3582 0 84.4847-9.259 121.98321-26.8101 18.62776-39.5866 28.07019-80.3286 28.07019-121.04802 0-40.88347-9.85493-83.411095-28.49683-123.085165-40.57537-19.0742-82.95049-29.1890696-122.6302-29.1890696-42.60116 0-83.43363 9.0355796-121.446374 26.8609396-18.246347 38.85182-27.5333758 79.562795-27.5333758 121.073505 0 41.58951 9.6515028 84.13431 27.8893738 123.05681"/><path d="m137.56237 237.90306c.0763-16.0114-8.86041-30.1694-20.54055-37.7782-10.36068-6.7244-24.270055-11.1434-46.70926-16.83366-6.936336-1.77427-14.191926-5.71569-16.438108-10.73929-5.941786 5.98692-7.021076 19.44705-5.97569 27.31295 1.21493 9.1034 11.852506 24.1062 27.869603 24.694 9.781485.3926 22.148198-2.1051 28.078685-3.365 10.23073-2.2096 26.41735 4.1984 28.9941 16.6895"/><path d="m155.61942 28.465705c-27.15761 0-50.61679 17.91012-50.53203 48.90172.0848 26.061425 21.04348 40.013175 28.52227 49.978385 11.30153 15.01678 17.4185 32.79128 18.05421 59.98852.49444 21.64533.46901 43.01923.5792 50.59413h5.99548c-.10447-7.9252-.37579-30.6158-.0651-51.26375.40685-27.20571 6.7442-44.30212 18.05139-59.3189 7.54378-9.96521 28.48553-23.91696 28.53075-49.978385.10171-30.9916-23.34334-48.90172-50.47836-48.90172"/><path d="m162.51335 237.88336c0-12.4911-.14134-45.8787.16105-49.99236-.26558-49.68172 35.83437-84.72767 58.67478-81.99559 15.79108 1.37038 29.01106 7.8093 36.13669 26.33267 6.58032 17.26296.6583 40.22487-21.213 45.61295-23.42528 5.78646-37.08037 10.60092-47.00029 17.39303-12.10961 8.3152-21.31472 24.2022-21.59725 42.669"/><path d="m172.29202 237.90306c-.0848-16.0114 8.84911-30.1694 20.49535-37.7782 10.40306-6.7244 24.32939-11.1434 46.74882-16.83366 6.95045-1.77427 14.19756-5.71569 16.40418-10.73929 5.97006 5.98692 7.04653 19.44705 6.00112 27.31295-1.24034 9.1034-11.84967 24.1062-27.83852 24.694-9.77866.3926-22.21035-2.1051-28.11541-3.365-10.19116-2.2096-26.423 4.1984-29.01106 16.6895"/><path d="m180.66928 289.59346-3.47522-25.3577 8.38857-1.2714c2.04276-.2798 4.52909.076 5.52362 1.3561 1.09908 1.3363 1.43531 2.4412 1.64721 4.1928.31644 2.1671-.3108 4.6733-2.75193 5.9221v.076c2.7265 0 4.3737 1.958 4.85118 5.2637.0706.6978.27689 2.3846.0706 3.7916-.55379 3.3481-2.55132 4.4246-5.92201 4.8965zm5.39931-4.5403c.99453-.142 2.00319-.1949 2.79148-.698 1.20645-.7883 1.09626-2.475.92956-3.7265-.42099-2.752-1.13863-3.7973-4.05726-3.3651l-1.83367.2825 1.16123 7.6483zm-1.75738-11.717c1.11038-.1801 2.61629-.3136 3.24353-1.3674.32775-.7035.74874-1.263.47185-2.8283-.34187-1.8563-.95781-3.0061-3.31418-2.5598l-2.19533.3533.86457 6.4984"/><path d="m217.00657 274.34206c.065.4719.14134.9974.16952 1.4691.67809 4.6253-.16952 8.4537-5.36823 9.5075-7.68505 1.4806-9.15709-3.2944-10.51043-9.9792l-.72047-3.6165c-1.05952-6.3968-1.51442-11.2394 5.9785-12.7312 4.22395-.7713 7.01544.9097 8.17668 5.1139.18075.6272.40685 1.2489.49161 1.8789l-4.59691.9494c-.53116-1.5794-1.23468-4.4019-3.30286-4.1646-3.71256.4463-2.48636 5.0658-2.10493 6.9956l1.38161 6.942c.41533 2.0993 1.24036 5.4529 4.45282 4.8059 2.60782-.5227 1.47202-4.5856 1.24034-6.2496"/><path d="m224.38364 282.01576-1.59068-26.2422 6.17628-1.8845 12.94875 22.8236-4.8625 1.4549-3.06836-5.8004-5.39932 1.6217.69789 6.5944zm3.75212-12.265 3.90185-1.1301-5.18175-10.6179"/><path d="m71.835428 262.17606c1.932564-6.1876 3.66454-10.7423 11.038775-8.7192 3.947071 1.1019 6.393862 2.8422 6.278014 7.4278-.01907 1.0201-.355999 2.0597-.576379 3.0684l-4.591259-1.2685c.601808-2.5316.983235-4.5404-2.135991-5.501-3.605185-.9889-4.483866 3.382-4.981141 5.2692l-1.867573 6.8799c-.593331 2.0428-1.305328 5.419 1.867573 6.2893 2.621951.7063 4.21265-1.8675 5.16198-5.6254l-3.212464-.8504 1.110377-3.981 7.552256 2.4299-3.585415 13.2595-3.475224-.9437.782625-2.8028h-.09896c-1.599155 2.2915-3.551489 2.5316-5.260854 2.2038-7.552256-2.0428-6.763973-6.9786-4.96137-13.5731"/><path d="m99.945183 273.37576-2.274429 10.7874-5.119598-1.1076 5.455826-25.1884 8.727598 1.9722c5.10831 1.1019 6.65097 3.3763 5.92768 8.0581-.41252 2.6869-1.73761 5.5828-4.97269 5.3484l-.0339-.044c2.73498.9578 2.96665 2.3365 2.48917 4.7213-.20618 1.0141-1.62742 7.1708-.64703 8.1652l.0339.7544-5.2976-1.3816c-.22038-1.7064.52836-4.7748.82502-6.473.29949-1.503.77697-3.6221-.74874-4.4188-1.19513-.6358-1.63871-.6046-2.98924-.9155zm.873047-3.9018 3.44697.9295c2.09361.3023 3.25767-.7826 3.67018-3.3113.37295-2.3197-.11019-3.2266-1.98908-3.6759l-3.6956-.7486"/><path d="m132.78181 263.49536 5.06311.5878-2.18121 17.7067c-1.05952 5.614-3.22942 8.0693-9.4057 7.3007-6.28367-.794-7.77547-3.656-7.39405-9.3153l2.19533-17.6925 5.10265.5849-2.18967 17.2969c-.23168 1.8789-.6668 4.6618 2.67565 4.9981 2.96381.2261 3.63627-1.7376 3.96966-4.1787"/><path d="m143.42787 290.05966 1.52289-25.3211 9.72781.4211c4.59689.2259 5.80051 3.9808 5.65641 7.5635-.13286 2.1783-.81371 4.611-2.71237 5.9305-1.55679 1.1216-3.55717 1.3871-5.41344 1.2969l-3.17009-.1759-.63287 10.6121zm5.75531-14.1467 2.57675.1441c2.09361.076 3.48088-.7515 3.6617-3.8255.10171-2.9525-1.0143-3.4526-3.72667-3.5713l-2.04275-.07"/><path d="m829.5219 52.939205-38.66259 70.174035c-14.5931-11.84967-32.41283-20.57163-55.1487-20.57163-53.80382 0-75.65817 40.10642-75.65817 68.35745 0 20.97 13.73137 51.9107 61.60471 51.9107 20.09415 0 48.66161-13.9799 56.88348-20.3398l-38.23876 81.4135c-18.22657 3.6363-24.21356 5.8909-39.64298 6.3684-85.68547 2.557-120.31057-50.0799-120.28514-103.86686.0566-71.10373 63.27451-157.577415 168.07371-157.577415 6.42209 0 14.27667 2.22076 20.9926 4.68166l6.78658-8.67958"/><path d="m989.05162 27.010645 10.94838 255.053215h-81.47846l-.0481-43.7427h-55.55839l-18.28589 43.7427h-88.36393l92.38163-182.129935-20.83157-.13562 39.58083-72.78766zm-71.10645 78.025925-31.41264 74.18607h32.35913"/><path d="m528.93477 27.010645c40.34935.22602 63.15021 22.12841 63.15021 53.76716 0 29.166455-24.04686 54.984825-50.44445 68.334775 27.1774 9.99042 29.52811 34.51491 29.52811 51.86558 0 41.9174-42.06151 81.0857-96.73556 81.0857h-119.23691l46.51149-179.59282-19.10526-.11019 39.05531-75.350205s74.46586-.22604 107.27706 0m-39.58647 103.409045c8.3462 0 23.08339-2.11332 26.7677-18.26612 4.03747-17.534195-9.79278-18.006105-16.42679-18.006105l-23.70499-.10383-8.26707 36.376905zm-33.51472 45.07069-10.91448 41.91738h27.91199c10.98228 0 25.94835-5.4502 29.61569-19.0911 3.62216-13.68051-6.84026-22.82628-17.78298-22.82628"/></g></svg>