<svg height="57" width="175" xmlns="http://www.w3.org/2000/svg"><g fill-rule="evenodd"><g fill="#f15a23"><path d="m2.639645 22.755996 14.41353 18.182103-14.41353 11.943677z"/><path d="m8.4406001 52.881776 10.8454649-9.07282 7.496128 9.07282z"/><path d="m2.639645 13.026979 3.7613967 4.758012 15.4654383 19.325295 5.011396-3.990659s-4.160355-4.897988-6.953844-10.363631c-5.4616-10.685968-1.594921-17.3390704-1.594921-17.3390704h-15.689466z"/><path d="m24.070828 40.093628 5.103746-4.215628s4.874438 6.416496 10.526482 7.930956c7.406643 1.984605 10.68597-2.870857 10.68597-2.870857v11.943677h-16.268195l3.668319-3.171614s-1.913905 1.275937-6.594741-1.966296c-2.762704-1.913621-7.121581-7.650238-7.121581-7.650238z"/><path d="m24.540039 5.3821241s-1.62817 2.2179808-.469211 7.6448549c1.238769 5.800588 6.165364 11.939862 6.15391 11.802417 0 0 .316736-6.096024 3.894093-9.673381 7.625181-7.6251813 16.268195-3.085987 16.268195-3.085987v-6.6531024z"/><path d="m50.387026 20.108539s-4.822143-4.130413-9.014555-4.130413c-5.362997 0-8.29034 4.630067-8.29034 7.988685 0 4.892071 2.34815 7.610353 4.705019 9.967222 3.386968 3.38697 7.507464 7.039917 12.599876 4.099812 0-5.564499 0-17.925306 0-17.925306z"/></g><path d="m105.30425 5.879728h11.37912s10.08045 15.263238 15.0345 21.569369c4.95405 6.306132 10.28658 13.489002 10.28658 13.489002s0-20.82956 0-31.6401836c0-1.3665139-3.588-3.4181874-3.588-3.4181874h13.12185s-4.30562 1.7689432-4.30562 3.4181874v46.0290226s-4.13134-2.29097-8.81623-7.734831c-5.26378-6.116543-23.9884-30.810631-23.9884-30.810631v31.984529c0 1.638052 3.588 4.115771 3.588 4.115771h-12.7118s3.48549-2.497765 3.48549-4.115771c0-11.655719 0-28.657466 0-39.4680896 0-1.4525104-3.48549-3.4181874-3.48549-3.4181874z" fill="#005e6a"/><path d="m158.88749 5.879728h14.60432s-3.92152 1.8575425-3.92152 3.4181874v39.4680896c0 1.705466 3.92152 4.115771 3.92152 4.115771h-14.60432s3.65109-2.465225 3.65109-4.115771c0-12.888005 0-28.657466 0-39.4680896 0-1.5004319-3.65109-3.4181874-3.65109-3.4181874z" fill="#005e6a"/><path d="m62.336709 5.879728s3.786307 1.8878914 3.786307 3.4181874v39.4680896c0 1.677741-3.786307 4.115771-3.786307 4.115771h21.636033c1.352251 0 16.497478-2.476549 16.497478-14.152873 0-11.676321-11.7646-12.769652-11.7646-12.769652s7.166935-1.99244 7.166935-9.981125c0-8.6109214-10.547562-10.098398-11.899813-10.098398-2.810187 0-21.636033 0-21.636033 0zm11.494143 19.305731v-14.694282h8.78964c1.35225 0 6.085128 1.578851 6.085128 7.436597 0 4.828222-4.732878 7.257685-6.085128 7.257685-3.065748 0-8.78964 0-8.78964 0zm0 3.853957h10.14189c1.352251 0 9.330535 2.07234 9.330535 8.994429 0 7.057311-7.978284 9.558262-9.330535 9.558262-1.35225 0-10.14189 0-10.14189 0z" fill="#005e6a"/></g></svg>