<svg height="8.37177mm" viewBox="0 0 126.00036 29.663752" width="35.560104mm" xmlns="http://www.w3.org/2000/svg" xmlns:xlink="http://www.w3.org/1999/xlink"><clipPath id="a"><path d="m0 0h595.276v841.89h-595.276z"/></clipPath><clipPath id="b"><path d="m0 0h595.276v841.89h-595.276z"/></clipPath><g transform="translate(617.31152 -8.758124)"><g clip-path="url(#b)" transform="matrix(1.25 0 0 -1.25 -708.8199 347.27287)"><path d="m0 0h5.432c2.2 0 3.84-.964 3.84-2.995 0-1.489-.761-2.318-2.081-2.758v-.034c1.574-.322 2.386-1.168 2.386-2.606 0-2.826-2.488-3.418-4.603-3.418h-4.974zm3.147-4.671h.88c1.032 0 2.099.254 2.099 1.253 0 1.082-1.016 1.184-2.066 1.184h-.913zm0-4.907h.931c1.151 0 2.352.17 2.352 1.371 0 1.286-1.235 1.404-2.319 1.404h-.964z" fill="#00529c" transform="translate(100.48061 264.8557)"/></g><g fill="#00529c"><path d="m0 0h3.858l4.552-11.811h-3.452l-.88 2.521h-4.433l-.931-2.521h-3.198zm1.929-2.437h-.034l-1.523-4.62h2.962z" transform="matrix(1.25 0 0 -1.25 -566.08415 16.203244)"/><path d="m0 0h4.01l3.994-8.021h.033l-.05 8.021h2.877v-11.811h-3.91l-4.128 8.072h-.033l.1-8.072h-2.893z" transform="matrix(1.25 0 0 -1.25 -555.02428 16.203244)"/><path d="m0 0h3.147v-4.823h.034l3.553 4.823h3.79l-4.365-5.499 4.704-6.312h-4.011l-3.671 5.364h-.034v-5.364h-3.147z" transform="matrix(1.25 0 0 -1.25 -540.1094 16.203244)"/><g clip-path="url(#a)" transform="matrix(1.25 0 0 -1.25 -708.8199 347.27287)"><path d="m0 0h5.432c2.199 0 3.841-.964 3.841-2.995 0-1.489-.761-2.318-2.081-2.758v-.034c1.574-.322 2.385-1.168 2.385-2.606 0-2.826-2.487-3.418-4.602-3.418h-4.975zm3.147-4.671h.88c1.033 0 2.098.254 2.098 1.253 0 1.082-1.014 1.184-2.064 1.184h-.914zm0-4.907h.931c1.15 0 2.352.17 2.352 1.371 0 1.286-1.235 1.404-2.318 1.404h-.965z" transform="translate(149.7343 264.8557)"/><path d="m0 0h5.618c2.098 0 3.807-.948 3.807-2.979 0-1.573-.744-2.622-2.267-2.977v-.034c1.014-.271 1.082-1.168 1.675-2.606l1.15-3.215h-3.282l-.677 2.131c-.643 2.031-1.05 2.54-2.217 2.54h-.66v-4.671h-3.147zm3.147-4.907h.829c1.016 0 2.302.034 2.302 1.371 0 1.099-1.1 1.302-2.302 1.302h-.829z" transform="translate(160.00951 264.8557)"/></g><path d="m-495.2449 16.202874h3.93375v14.76375h-3.93375z"/><path d="m0 0h-16.471c-2 0-3.621-1.661-3.621-3.71v-.039-16.273c0-2.029 1.591-3.679 3.565-3.709h16.518c2 0 3.622 1.66 3.622 3.709l.007 16.312c0 2.049-1.62 3.71-3.62 3.71m-14.514-21.83-.898-.01c-1.088 0-1.97.894-1.97 1.997l-.005.157v15.064l.006.812c.041 1.067.852 1.925 1.913 1.925h1.827c1.656 0 2.998-1.44 2.998-3.137 0-.84-.329-1.602-.862-2.156l-4.661-4.73 4.369-4.449c.563-.581.903-1.343.903-2.178 0-1.82-1.62-3.295-3.62-3.295m13.431.015-8.145.003s.941 2.035.941 3.295c0 1.537-.513 2.909-1.317 3.817l-2.786 2.84 2.843 2.938c.847.795 1.409 2.207 1.409 3.816 0 1.274-.352 2.402-.919 3.221h1.973c1.656 0 2.999-1.44 2.999-3.137 0-.84-.329-1.602-.862-2.156l-4.572-4.681 9.496-9.683c-.301-.189-.68-.273-1.06-.273m1.989 3.023-6.805 6.936 3.241 3.294c.659.825 1.078 2.067 1.078 3.456 0 1.282-.357 2.439-.929 3.258l1.45-.044c1.088 0 1.97-.894 1.97-1.997l-.005-14.903z" transform="matrix(1.25 0 0 -1.25 -592.19652 8.758124)"/></g></g></svg>