<svg enable-background="new 0 0 2512.222 2000" viewBox="0 0 2512.222 2000" xmlns="http://www.w3.org/2000/svg"><path d="m0 0h2512.222v2000h-2512.222z" fill="none"/><path d="m2238.844 1492.903c-40.214 90.9-95.976 162.932-162.665 219.435-77.01 65.262-168.597 109.811-267.641 138.785-322.243 94.289-723.361 23.711-957.925-34.843-47.566-11.877-88.282-23.26-120.102-32.672-53.708-15.887-104.613-40.148-150.487-72.282-.24-.168-.479-.336-.719-.504-314.349-220.496-447.861-535.639-343.34-834.127 1.624-4.657 309.799-952.591 1040.546-639.527 320.798 137.438 202.798 254.225 558.386 400.297 166.242 68.295 386.23 190.113 446.577 477.468 21.535 102.55 14.283 249.31-42.63 377.97z" fill="#fecc86" opacity=".4"/><path d="m1403.735 887.1c16.126 10.898 33.673 18.888 51.908 23.907l6.692 46.362 32.005 1.242 32.005 1.243 10.266-45.703c18.569-3.589 36.683-10.195 53.605-19.81l37.52 28.054 23.51-21.752 23.51-21.753-25.061-39.582c10.898-16.126 18.888-33.673 23.907-51.908l46.362-6.692 1.242-32.005 1.242-32.005-45.703-10.267c-3.589-18.569-10.195-36.682-19.81-53.604l28.055-37.521-21.753-23.51-21.752-23.51-39.583 25.061c-16.126-10.898-33.673-18.888-51.907-23.906l-6.692-46.362-32.005-1.243-32.005-1.243-10.267 45.704c-18.568 3.59-36.682 10.195-53.605 19.81l-37.52-28.055-23.51 21.752-23.51 21.752 25.061 39.582c-10.898 16.126-18.888 33.673-23.906 51.908l-46.362 6.692-1.243 32.005-1.242 32.005 45.703 10.267c3.589 18.569 10.195 36.682 19.81 53.605l-28.055 37.52 21.752 23.51 21.752 23.51zm17.478-235.076c48.711-45.07 124.736-42.119 169.806 6.593s42.119 124.737-6.593 169.807c-48.711 45.07-124.736 42.118-169.807-6.593-45.069-48.711-42.117-124.737 6.594-169.807z" fill="#fecc86" opacity=".3"/><path d="m1149.549 1274.44c-16.026-8.936-33.151-15.026-50.682-18.269l-10.024-43.006-30.161 1.414-30.161 1.413-5.958 43.755c-17.151 4.869-33.632 12.534-48.752 22.929l-37.503-23.325-20.328 22.327-20.328 22.327 26.73 35.157c-8.936 16.025-15.026 33.151-18.269 50.682l-43.006 10.024 1.414 30.161 1.413 30.161 43.755 5.958c4.868 17.151 12.533 33.632 22.929 48.751l-23.325 37.503 22.327 20.328 22.327 20.328 35.157-26.73c16.026 8.936 33.151 15.026 50.682 18.269l10.024 43.006 30.161-1.413 30.161-1.413 5.958-43.755c17.151-4.868 33.632-12.533 48.751-22.929l37.503 23.325 20.328-22.327 20.328-22.327-26.731-35.157c8.936-16.025 15.026-33.151 18.269-50.682l43.006-10.024-1.413-30.161-1.413-30.161-43.755-5.958c-4.868-17.152-12.533-33.632-22.929-48.752l23.325-37.503-22.327-20.328-22.327-20.328zm2.539 222.206c-42.118 46.26-113.763 49.618-160.024 7.5-46.26-42.118-49.618-113.763-7.499-160.024 42.118-46.26 113.763-49.618 160.024-7.5s49.618 113.764 7.499 160.024z" fill="#fecc86" opacity=".5"/><path d="m1529.684 1560.188c-6.879-9.179-15.11-17.012-24.297-23.323l5.213-27.109-17.584-6.864-17.584-6.864-14.531 23.472c-11.033-1.582-22.394-1.396-33.672.695l-15.485-22.859-17.287 7.58-17.287 7.58 6.323 26.876c-9.179 6.879-17.012 15.11-23.323 24.297l-27.109-5.213-6.864 17.584-6.864 17.584 23.472 14.531c-1.582 11.033-1.396 22.394.695 33.672l-22.859 15.485 7.58 17.287 7.58 17.287 26.876-6.323c6.879 9.179 15.11 17.012 24.297 23.323l-5.213 27.109 17.584 6.864 17.584 6.864 14.531-23.472c11.033 1.582 22.394 1.396 33.672-.695l15.485 22.859 17.287-7.58 17.287-7.58-6.324-26.876c9.179-6.879 17.012-15.11 23.323-24.297l27.109 5.213 6.864-17.584 6.864-17.584-23.472-14.531c1.582-11.033 1.396-22.394-.695-33.672l22.858-15.485-7.58-17.287-7.58-17.287zm-55.064 127.542c-35.818 15.706-77.587-.598-93.293-36.416s.598-77.587 36.416-93.293 77.587.598 93.293 36.416c15.707 35.819-.598 77.587-36.416 93.293z" fill="#fecc86" opacity=".5"/><path d="m656.314 775.385s-51.98-85.939-176.683-63.654c0 0 83.951 124.501 176.683 63.654z" fill="#3e9896"/><path d="m737.487 798.071s-15.484-172.267-225.294-232.028c.001 0 35.815 256.099 225.294 232.028z" fill="#80c4a4"/><path d="m988.548 774.88s59.325-14.516 76.496 7.789c17.17 22.306-25.108 83.815-57.227 88.592-32.12 4.778-19.269-96.381-19.269-96.381z" fill="#fe9f73"/><path d="m820.863 1596.799s150.967-73.31 178.643-176.863-150.016-116.787-147.547-116.775-180.469 48.474-192.961 78.037c-12.492 29.564-67.424 152.731-45.205 152.843 22.22.111 207.07 62.758 207.07 62.758z" fill="#ed7163"/><path d="m954.423 666.885c-.044-.223-.092-.445-.146-.664-1.701-7.446-8.715-12.449-16.31-11.641-.225.021-.45.047-.676.078-.075.011-.148.013-.223.026l-332.204 55.422c-.075.012-.145.035-.219.048-.224.044-.445.093-.665.146-7.446 1.701-12.456 8.71-11.648 16.305.021.224.047.449.078.675.011.075.013.149.026.223l115.235 690.732c1.199 7.185 7.995 12.032 15.173 10.834l336.027-56.059c7.178-1.198 12.033-7.988 10.834-15.173l-115.234-690.732c-.012-.075-.034-.146-.048-.22z" fill="#d0f6fc"/><path d="m585.992 724.186 24.066-23.137 323.826-53.166 32.558 20.236s2.078 29.351.372 30.088-376.699 67.786-377.648 62.003c-.95-5.783-3.174-36.024-3.174-36.024z" fill="#0d93b2"/><g fill="#fff" opacity=".5"><path d="m623.266 733.739c.339 2.029-.578 3.977-2.187 5.047-.574.387-1.245.662-1.976.784-.725.121-1.441.077-2.117-.101-1.868-.483-3.376-2.033-3.714-4.063-.461-2.761 1.41-5.371 4.163-5.831 2.761-.46 5.37 1.403 5.831 4.164z"/><path d="m638.727 731.16c.339 2.029-.578 3.977-2.187 5.047-.574.386-1.244.662-1.976.784s-1.455.08-2.124-.1c-1.869-.49-3.369-2.035-3.707-4.064-.461-2.761 1.403-5.37 4.164-5.831 2.76-.46 5.369 1.403 5.83 4.164z"/><path d="m654.187 728.58c.339 2.029-.578 3.977-2.187 5.047-.574.387-1.245.662-1.976.784-.732.122-1.455.079-2.124-.1-1.87-.49-3.369-2.034-3.707-4.064-.461-2.761 1.403-5.37 4.163-5.831 2.761-.46 5.371 1.403 5.831 4.164z"/></g><path d="m1068.513 1350.686c1.857 11.133-5.666 21.66-16.792 23.517l-321.719 53.672c-11.133 1.857-21.666-5.657-23.523-16.791l-112.777-676.003c-2.073-12.424 6.319-24.167 18.735-26.238l317.06-52.895c12.417-2.071 24.166 6.312 26.238 18.735zm-140.854-709.84-318.386 53.116c-20.485 3.417-34.328 22.795-30.909 43.288l113.938 682.96c3.419 20.492 22.803 34.327 43.288 30.909l318.386-53.116c20.492-3.419 34.328-22.796 30.909-43.288l-113.938-682.96c-3.419-20.492-22.796-34.328-43.288-30.909z" fill="#20111d"/><path d="m851.809 1578.441-.009.91v.286l-.437 87.679-.749 148.963c-47.566-11.877-88.282-23.26-120.102-32.672-53.708-15.887-104.613-40.148-150.487-72.282-.24-.168-.479-.336-.719-.504l6.146-188.026s-38.617-175.493-35.941-217.446c2.685-41.962 30.321-138.098 42.845-175.073 3.684-10.865 5.888-24.951 7.163-39.411.098-1.079.187-2.159.268-3.247 0-.027.009-.045.009-.045 1.097-13.88 1.374-27.912 1.329-39.625 0-.366 0-.732-.009-1.106 0-1.026-.009-2.025-.018-3.006 0-.259-.009-.517-.009-.776-.169-14.139-.767-23.844-.767-23.844.241-2.4.58-4.648.99-6.762.419-2.212.937-4.264 1.525-6.173.446-1.454.946-2.819 1.481-4.095 3.613-8.635 9.152-13.479 15.691-15.281 4.844-1.338 10.241-1.008 15.816.678 19.741 5.977 41.748 29.009 49.553 55.512 14.567 49.455 1.508 192.575 1.508 192.575s33.764 34.103 54.959 102.086c5.62 18.019 10.357 38.42 13.345 61.203 1.133 8.662 1.704 16.788 1.757 24.415.089 8.813-.5 16.949-1.606 24.451-1.57 10.669-4.211 20.062-7.538 28.314-17.725 44.014-54.995 55.833-54.995 55.833l2.462.723 60.775 17.761 92.568 27.047 3.176.927z" fill="#fe9f73"/><path d="m1045.097 1108.443 4.139 25.287s-35.67 35.989-24.032 81.697 42.376 51.217 42.376 51.217 48.019-64.365 47.264-86.708-.94-61.542-69.747-71.493z" fill="#fe9f73"/><path d="m1073.704 1258.174s19.254-19.522 37.136-62.129c-2.974-1.843-8.497-3.435-12.035-4.485-10.859-3.224-17.766-.992-23.642 6.629l-22.101 32.349s-4.248 8.259 5.083 17.805c3.588 3.67 15.559 9.831 15.559 9.831z" fill="#f78a5e"/><path d="m1068.222 1268.37-1.007-.249c-15.42-3.821-24.972-15.711-25.371-16.215-1.004-1.177-25.345-30.218-20.486-64.015 4.835-33.638 33.043-61.034 34.241-62.184l2.107 2.195c-.286.275-28.652 27.839-33.336 60.421-4.66 32.416 19.581 61.364 19.826 61.652.122.153 8.941 11.099 22.753 14.93l27.399-38.671c28.671-41.39 15.454-73.785 15.316-74.107l2.798-1.195c.149.348 3.645 8.683 3.468 22.41-.162 12.586-3.605 32.282-19.091 54.638z"/><path d="m1072.952 1280.702 3.234 19.759s-27.873 28.122-18.779 63.839 33.114 40.021 33.114 40.021 37.522-50.295 36.932-67.754c-.59-17.458-.735-48.089-54.501-55.865z" fill="#fe9f73"/><path d="m1095.305 1397.704s15.045-15.255 29.019-48.548c-2.323-1.44-6.64-2.684-9.404-3.505-8.485-2.519-13.883-.775-18.474 5.18l-17.27 25.278s-3.319 6.453 3.972 13.913c2.803 2.867 12.157 7.682 12.157 7.682z" fill="#f78a5e"/><path d="m1091.022 1405.671-.787-.195c-12.05-2.985-19.513-12.277-19.825-12.671-.784-.92-19.804-23.612-16.008-50.022 3.779-26.285 25.82-47.692 26.757-48.591l1.646 1.715c-.224.214-22.389 21.753-26.049 47.214-3.641 25.33 15.301 47.95 15.493 48.175.096.119 6.986 8.674 17.779 11.667l21.41-30.218c22.404-32.343 12.076-57.656 11.969-57.907l2.187-.934c.46 1.075 10.994 26.711-12.208 60.206z"/><path d="m749.249 1472.067s-24.062 62.223 6.75 78.368-74.206 24.748-74.191 21.705-72.56-93.167-54.281-97.639c18.279-4.473 75.435-25.486 88.298-11.729 12.863 13.756 33.424 9.295 33.424 9.295z" fill="#fe9f73"/><path d="m1020.792 958.733 4.139 25.287s-35.67 35.989-24.032 81.697 42.377 51.217 42.377 51.217 48.019-64.365 47.264-86.708c-.756-22.343-.941-61.542-69.748-71.493z" fill="#fe9f73"/><path d="m1049.399 1108.464s19.254-19.522 37.136-62.129c-2.973-1.843-8.497-3.435-12.035-4.485-10.859-3.224-17.766-.992-23.642 6.629l-22.101 32.349s-4.248 8.259 5.083 17.805c3.588 3.67 15.559 9.831 15.559 9.831z" fill="#f78a5e"/><path d="m807.151 1621.354h88.878v3.043h-88.878z" transform="matrix(.005 -1 1 .005 -775.52 2466.3477)"/><path d="m843.837 1583.046-1.228-2.784c51.692-22.803 99.717-66.673 122.463-97.784 20.117-27.513 28.745-47.853 28.83-48.055l2.806 1.176c-.086.205-8.833 20.846-29.18 48.675-22.978 31.428-71.487 75.742-123.691 98.772z"/><path d="m634.36 1010.945c-3.03-8.576-24.938-9.722-31.376-8.573-4.156.742.194 81.517-3.187 85.202 0 0-.612 1.011 10.02 1.382 11.717.408 19.855-4.532 19.855-4.532s7.718-64.904 4.688-73.479z" fill="#f78a5e"/><path d="m1043.923 1118.651-.999-.237c-13.866-3.285-24.872-15.633-25.334-16.157-1.055-1.239-25.396-30.28-20.538-64.076 4.836-33.638 33.043-61.034 34.242-62.184l2.106 2.195c-.286.275-28.652 27.838-33.336 60.421-4.66 32.415 19.581 61.363 19.826 61.652.087.099 10.284 11.521 22.748 14.936l27.403-38.677c28.671-41.39 15.454-73.785 15.317-74.107l2.798-1.195c.149.349 3.644 8.684 3.468 22.41-.162 12.587-3.606 32.283-19.091 54.638z"/><path d="m1023.429 984.266-48.081-276.976 3.002-.492 48.082 276.976z"/><path d="m1058.544 830.659-2.48-1.763c.212-.299 21.067-30.112 5.765-47.536-15.515-17.664-70.32-5.591-70.872-5.467l-.667-2.969c2.324-.522 57.132-12.581 73.825 6.428 16.89 19.233-4.646 50.007-5.571 51.307z"/><path d="m646.436 1498.991c-.446.319-1.043.402-1.581.165-18.096-7.958-35.025-34.515-35.737-35.642-.473-.749-.246-1.734.5-2.213.749-.473 1.74-.25 2.213.499.169.268 17.12 26.856 34.316 34.418.811.357 1.18 1.303.822 2.114-.12.274-.307.497-.533.659z" fill="#000100"/><path d="m668.339 1495.637c-.349.25-.795.36-1.248.27-19.388-3.867-41.647-26.146-42.585-27.092-.624-.63-.62-1.645.01-2.269.629-.628 1.645-.619 2.269.01.223.225 22.51 22.53 40.933 26.204.869.174 1.433 1.019 1.259 1.887-.082.416-.319.762-.638.99z" fill="#000100"/><path d="m693.271 1533.42-.921-2.9c.189-.06 19.076-6.238 35.973-25.422 15.591-17.7 32.646-50.447 25.36-105.934-7.33-55.849-25.394-97.032-39.256-121.746-15.024-26.783-28.489-40.535-28.623-40.671l-.498-.503.064-.705c.13-1.429 12.869-143.402-1.452-192.014-8.574-29.118-35.936-55.772-57.406-55.921-.016 0-.034 0-.05 0-10.614-.053-18.279 6.56-22.172 19.13-1.138 3.684-1.96 7.895-2.442 12.517.141 2.422 2.147 38.326-.81 71.753-1.453 16.497-3.889 29.875-7.24 39.761-11.463 33.842-40.048 132.172-42.766 174.686-2.638 41.262 35.523 215.263 35.909 217.016l-2.972.654c-1.579-7.173-38.639-176.175-35.974-217.863 2.736-42.799 31.42-141.514 42.921-175.469 3.273-9.657 5.658-22.796 7.091-39.052 3.026-34.207.819-71.057.797-71.425l-.008-.125.013-.124c.5-4.869 1.367-9.319 2.574-13.228 5.466-17.649 16.651-21.315 25.094-21.273h.057c10.81.076 23.626 6.433 35.161 17.443 11.812 11.273 20.74 25.714 25.142 40.661 14.122 47.933 2.704 180.404 1.626 192.462 2.593 2.763 14.966 16.491 28.552 40.686 14.019 24.965 32.284 66.561 39.685 122.955 3.284 25.005 2.014 47.638-3.774 67.267-4.646 15.755-12.193 29.617-22.432 41.203-17.458 19.75-36.424 25.928-37.223 26.181z"/><path d="m1532.66 819.504s-60.971-3.564-73.831 21.475c-12.86 25.04 39.831 77.903 72.285 76.802 32.453-1.102 1.546-98.277 1.546-98.277z" fill="#fe9f73"/><path d="m1846.011 1597.629s-161.724-44.843-207.644-141.696c-45.921-96.853 126.46-141.957 124.034-141.499s186.255 15.087 203.881 41.909c17.625 26.822 93.896 138.045 72.062 142.167s-192.333 99.119-192.333 99.119z" fill="#ed7163"/><path d="m1546.721 707.122c.003-.227.01-.454.023-.679.328-7.631 6.323-13.818 13.94-14.395.225-.02.451-.035.679-.045.076-.002.149-.014.224-.015l336.75-5.48c.076-.001.149.008.224.008.228.003.454.01.68.023 7.631.328 13.825 6.317 14.401 13.933.02.225.035.451.045.678.002.076.014.149.015.224l11.394 700.185c.119 7.283-5.691 13.277-12.967 13.396l-340.626 5.543c-7.276.119-13.277-5.684-13.396-12.967l-11.394-700.185c-.001-.075.008-.148.008-.224z" fill="#d0f6fc"/><path d="m1919.443 696.948-27.849-18.411-328.103 6.185-28.369 25.782s3.256 29.244 5.068 29.661c1.811.417 382.747-1.354 382.636-7.213s-3.383-36.004-3.383-36.004z" fill="#0d93b2"/><g fill="#fff" opacity=".5"><path d="m1884.507 713.076c.033 2.057 1.287 3.807 3.063 4.569.634.277 1.344.426 2.085.414.735-.012 1.432-.184 2.063-.482 1.75-.812 2.953-2.61 2.919-4.667-.046-2.799-2.356-5.028-5.148-4.983-2.798.046-5.028 2.35-4.982 5.149z"/><path d="m1868.834 713.331c.034 2.057 1.287 3.807 3.063 4.569.634.277 1.344.426 2.085.414.742-.012 1.446-.185 2.071-.482 1.75-.819 2.946-2.609 2.912-4.666-.046-2.799-2.349-5.029-5.148-4.983-2.798.045-5.028 2.349-4.983 5.148z"/><path d="m1853.162 713.586c.033 2.057 1.287 3.807 3.063 4.569.634.276 1.344.426 2.085.414.742-.012 1.446-.185 2.071-.482 1.75-.819 2.946-2.609 2.912-4.666-.046-2.799-2.349-5.029-5.148-4.983-2.798.045-5.028 2.349-4.983 5.148z"/></g><path d="m1546.838 715.029c-.205-12.594 9.837-22.961 22.424-23.165l321.4-5.23c12.587-.205 22.961 9.83 23.166 22.424l11.151 685.254c.184 11.286-8.819 20.579-20.104 20.763l-326.123 5.307c-11.278.183-20.578-8.812-20.762-20.098zm-15.489-.133 11.266 692.307c.338 20.773 17.445 37.333 38.218 36.995l322.743-5.252c20.766-.338 37.333-17.446 36.994-38.219l-11.266-692.307c-.338-20.773-17.453-37.332-38.218-36.994l-322.743 5.252c-20.773.338-37.332 17.446-36.994 38.218z" fill="#20111d"/><path d="m2076.179 1712.338c-77.01 65.262-168.597 109.811-267.641 138.785l.161-132.933.053-45.717 3.72-86.145v-.009l-.054-.259-.16-.901.928-.473 2.034-1.026 86.199-43.345h.018l56.52-28.421 2.293-1.151s-38.929-4.915-64.281-45.182c-.027-.036-.045-.08-.071-.116-.018-.027-.027-.054-.045-.08-4.683-7.431-8.885-16.066-12.301-26.092-2.444-7.181-4.487-15.076-5.986-23.746l-.009-.009c-1.32-7.511-2.23-15.602-2.676-24.326-.678-13.407-.633-26.119-.027-38.108.437-8.537 1.16-16.699 2.105-24.496v-.009c1.133-9.384 2.596-18.216 4.282-26.485 4.648-22.854 10.972-41.382 16.726-55.146 7.841-18.778 14.612-28.697 14.612-28.697s-8.189-29.304-16.503-65.931c-.687-2.988-1.365-6.021-2.034-9.09-9.054-41.15-17.475-88.901-14.755-114.664 2.881-27.484 20.366-54.103 38.706-63.541 5.174-2.676 10.428-3.97 15.432-3.533 6.762.598 13.087 4.353 18.198 12.203.758 1.16 1.49 2.417 2.194 3.755.91 1.757 1.784 3.666 2.587 5.736.009.009.009.018.018.036.794 2.016 1.526 4.175 2.203 6.494 0 0 1.258 10.366 3.818 25.12.125.705.25 1.418.375 2.15.125.678.241 1.356.357 2.025 2.07 11.338 4.817 24.728 8.314 37.841v.009c0 .018.009.027.009.036s0 .009.009.018c.268 1.044.562 2.096.848 3.131 3.862 13.996 8.581 27.439 14.157 37.457 19.001 34.112 63.541 123.682 73.764 164.475 10.214 40.776 3.907 220.345 3.907 220.345v.009z" fill="#fe9f73"/><path d="m1537.276 1157.795.496 25.619s41.582 28.956 38.39 76.014c-3.192 47.059-32.431 58.027-32.431 58.027s-58.852-54.635-62.145-76.747c-3.293-22.113-10.189-60.701 55.69-82.913z" fill="#fe9f73"/><path d="m1536.178 1310.23s-22.463-15.724-47.745-54.401c2.592-2.349 7.737-4.913 11.027-6.585 10.098-5.132 17.295-4.184 24.45 2.251l27.58 27.826s5.669 7.356-1.785 18.43c-2.865 4.257-13.527 12.479-13.527 12.479z" fill="#f78a5e"/><path d="m1543.411 1319.269-35.428-34.547c-19.28-19.203-26.223-37.953-28.655-50.303-2.652-13.469-.719-22.299-.636-22.668l2.968.672c-.076.339-7.226 34.589 28.459 70.132l33.92 33.076c12.893-6.262 19.589-18.62 19.656-18.747.215-.375 18.83-33.224 8.392-64.264-10.491-31.201-43.368-53.189-43.699-53.407l1.675-2.54c1.387.915 34.077 22.766 44.908 54.978 10.882 32.364-7.815 65.322-8.616 66.709-.275.52-7.522 13.941-21.999 20.483z"/><path d="m1540.986 1332.252.387 20.018s32.493 22.626 29.998 59.399c-2.494 36.772-25.342 45.343-25.342 45.343s-45.988-42.693-48.561-59.971-7.961-47.432 43.518-64.789z" fill="#fe9f73"/><path d="m1540.128 1451.367s-17.552-12.287-37.309-42.51c2.025-1.836 6.046-3.839 8.616-5.145 7.891-4.01 13.515-3.269 19.106 1.759l21.551 21.744s4.43 5.748-1.394 14.402c-2.239 3.325-10.57 9.75-10.57 9.75z" fill="#f78a5e"/><path d="m1545.78 1458.43-27.684-26.995c-28.877-28.763-23.147-55.88-22.889-57.019l2.319.524c-.059.266-5.646 27.028 22.238 54.802l26.506 25.846c10.101-4.904 15.307-14.55 15.359-14.649.168-.294 14.714-25.963 6.558-50.218-8.198-24.381-33.888-41.563-34.147-41.734l1.309-1.985c1.083.714 26.628 17.79 35.091 42.96 8.503 25.289-6.106 51.044-6.733 52.127-.215.406-5.877 10.894-17.19 16.006z"/><path d="m1893.924 1462.016s34.903 56.854 7.513 78.298 77.455 10.94 76.891 7.951 54.542-104.738 35.756-105.836-78.798-11.444-88.965 4.409-31.195 15.178-31.195 15.178z" fill="#fe9f73"/><path d="m1534.146 1006.157.496 25.619s41.582 28.956 38.39 76.014c-3.192 47.059-32.431 58.027-32.431 58.027s-58.853-54.635-62.145-76.748c-3.292-22.111-10.189-60.699 55.69-82.912z" fill="#fe9f73"/><path d="m1533.048 1158.593s-22.463-15.724-47.745-54.401c2.592-2.349 7.737-4.913 11.027-6.585 10.098-5.132 17.295-4.184 24.45 2.251l27.58 27.826s5.669 7.356-1.785 18.43c-2.865 4.257-13.527 12.479-13.527 12.479z" fill="#f78a5e"/><path d="m1743.938 1650.153h133.08v3.043h-133.08z" transform="matrix(.0266 -.9996 .9996 .0266 111.31 3417.6558)"/><path d="m1820.932 1588.251c-55.506-13.224-111.219-48.05-139.494-74.812-25.038-23.696-37.368-42.419-37.49-42.605l2.548-1.663c.12.184 12.28 18.63 37.034 42.059 27.99 26.491 83.148 60.967 138.108 74.061z"/><path d="m1923.654 987.727c1.432-8.982 22.772-14.065 29.312-14.098 4.221-.021 14.53 80.212 18.52 83.226 0 0 .785.884-9.606 3.169-11.45 2.518-20.347-.872-20.347-.872s-19.311-62.443-17.879-71.425z" fill="#f78a5e"/><path d="m1540.274 1167.623-35.421-34.538c-19.28-19.203-26.223-37.954-28.655-50.303-2.653-13.469-.72-22.299-.636-22.668l2.968.672c-.076.34-7.226 34.588 28.459 70.132l33.926 33.081c11.643-5.61 19.61-18.687 19.691-18.822.175-.305 18.79-33.154 8.353-64.195-10.491-31.201-43.368-53.189-43.699-53.407l1.675-2.54c1.387.915 34.077 22.766 44.907 54.978 10.882 32.364-7.814 65.322-8.616 66.709-.372.621-8.969 14.755-22.013 20.49z"/><path d="m1534.172 1031.806-3.445-280.929 1.991-.06 3.445 280.929z"/><path d="m1473.887 887.006c-1.144-1.113-27.884-27.491-14.745-49.457 12.987-21.71 69.069-19.749 71.451-19.655l-.12 3.041c-.563-.02-56.656-1.992-68.719 18.175-11.904 19.9 13.991 45.457 14.254 45.713z"/><path d="m1999.909 1469.931c.496.234 1.099.207 1.585-.123 16.361-11.095 28.216-40.272 28.713-41.509.33-.823-.071-1.75-.891-2.086-.822-.33-1.756.068-2.087.89-.118.294-11.989 29.506-27.536 40.05-.734.497-.925 1.495-.427 2.228.167.246.392.431.643.55z" fill="#000100"/><path d="m1977.76 1470.588c.388.182.847.211 1.276.04 18.371-7.305 36.241-33.237 36.992-34.337.5-.732.312-1.73-.42-2.229-.732-.504-1.73-.312-2.23.419-.178.261-18.072 26.224-35.528 33.165-.824.328-1.226 1.261-.898 2.084.158.393.453.69.808.858z" fill="#000100"/><path d="m1960.061 1512.252c-.831-.105-20.602-2.756-41.339-19.032-12.163-9.546-22.089-21.817-29.503-36.475-9.238-18.262-14.573-40.292-15.859-65.479-2.904-56.804 7.549-101.015 16.829-128.101 8.994-26.251 18.684-41.987 20.736-45.173-3.238-11.664-38.39-139.896-33.156-189.591 1.63-15.496 7.805-31.312 17.386-44.533 9.358-12.912 20.814-21.48 31.434-23.506 8.302-1.585 19.996-.027 28.577 16.38 1.895 3.629 3.55 7.849 4.921 12.547l.05.244c.044.366 4.528 37.009 13.682 70.107 4.344 15.73 9.063 28.222 14.026 37.129 17.443 31.321 63.483 123.234 73.902 164.834 10.15 40.521 4.218 213.437 3.96 220.777l-3.041-.106c.063-1.794 6.175-179.826-3.87-219.932-10.349-41.322-56.222-132.875-73.608-164.092-5.08-9.119-9.892-21.836-14.301-37.8-8.944-32.341-13.455-68.014-13.755-70.426-1.308-4.458-2.876-8.452-4.662-11.872-6.107-11.677-14.859-16.794-25.31-14.801-21.09 4.025-43.189 35.181-46.364 65.368-5.308 50.403 32.86 187.738 33.246 189.12l.191.681-.399.586c-.108.157-10.868 16.115-20.808 45.171-9.172 26.811-19.502 70.578-16.626 126.833 2.859 55.987 25.615 85.128 44.203 99.716 20.081 15.761 39.646 18.382 39.842 18.407z"/><path d="m1196.431 1126.25-437.359 89.492c-8.109 1.659-16.027-3.569-17.687-11.678l-54.039-264.097c-1.659-8.109 3.569-16.028 11.678-17.687l437.359-89.492c8.109-1.659 16.027 3.569 17.687 11.678l54.039 264.097c1.659 8.109-3.57 16.028-11.678 17.687z" fill="#f7597f"/><g fill="#fff"><ellipse cx="947.727" cy="1024.265" opacity=".1" rx="106.076" ry="106.076" transform="matrix(.7071 -.7071 .7071 .7071 -446.6819 970.1445)"/><path d="m770.674 1113.261c-.12 1.523-.476 2.819-1.069 3.892s-1.393 1.934-2.402 2.585c-1.009.65-2.207 1.117-3.595 1.402-1.388.284-2.68.326-3.875.127-1.196-.199-2.276-.676-3.242-1.43-.967-.754-1.804-1.806-2.512-3.159-.708-1.352-1.269-3.038-1.682-5.06l-1.009-4.932c-.414-2.021-.561-3.792-.441-5.315.12-1.521.476-2.819 1.069-3.891.592-1.073 1.399-1.935 2.42-2.588 1.021-.652 2.225-1.121 3.613-1.405 1.389-.284 2.674-.325 3.857-.123 1.184.202 2.258.68 3.224 1.433.966.754 1.803 1.807 2.511 3.159.708 1.353 1.269 3.039 1.682 5.061l1.009 4.932c.416 2.019.562 3.791.442 5.312zm-4.773-9.566c-.314-1.534-.715-2.816-1.204-3.845s-1.046-1.835-1.67-2.418c-.625-.582-1.316-.961-2.073-1.136-.756-.175-1.56-.176-2.41-.002s-1.588.49-2.215.948c-.627.459-1.113 1.078-1.459 1.859-.346.782-.542 1.742-.587 2.88s.089 2.474.403 4.009l1.009 4.932c.314 1.535.715 2.817 1.204 3.845.489 1.029 1.046 1.835 1.671 2.418s1.316.961 2.072 1.136c.757.176 1.56.176 2.41.002s1.588-.49 2.215-.948 1.113-1.077 1.46-1.859c.346-.781.541-1.741.586-2.88.045-1.138-.089-2.475-.403-4.009z"/><path d="m792.776 1108.739c-.12 1.522-.477 2.819-1.069 3.892-.593 1.073-1.393 1.934-2.402 2.585-1.009.65-2.207 1.118-3.595 1.402s-2.68.326-3.875.127c-1.196-.199-2.276-.676-3.242-1.43-.967-.754-1.803-1.806-2.511-3.159-.708-1.352-1.269-3.038-1.682-5.06l-1.009-4.932c-.414-2.021-.561-3.792-.441-5.315.12-1.521.476-2.819 1.069-3.891.592-1.073 1.399-1.935 2.42-2.588s2.225-1.121 3.613-1.405c1.389-.284 2.674-.325 3.857-.123s2.258.68 3.224 1.434 1.803 1.807 2.511 3.159c.708 1.353 1.269 3.039 1.682 5.061l1.009 4.932c.414 2.018.561 3.79.441 5.311zm-4.774-9.566c-.314-1.535-.715-2.816-1.204-3.845s-1.045-1.835-1.67-2.418c-.625-.582-1.316-.961-2.073-1.136-.756-.175-1.56-.176-2.41-.002s-1.588.49-2.215.948c-.627.459-1.114 1.078-1.459 1.859-.346.782-.542 1.742-.587 2.88-.045 1.139.089 2.474.403 4.009l1.009 4.932c.314 1.535.715 2.817 1.204 3.845.489 1.029 1.045 1.835 1.671 2.418.625.583 1.316.961 2.072 1.136.757.175 1.56.176 2.41.002s1.588-.49 2.215-.948 1.113-1.077 1.46-1.859c.346-.781.541-1.741.586-2.879s-.089-2.475-.403-4.009z"/><path d="m811.638 1089.313c.294 1.437.183 2.76-.333 3.969s-1.512 2.562-2.987 4.056l-3.031 3.094c-.886.892-1.598 1.703-2.135 2.435s-.933 1.441-1.187 2.127-.394 1.369-.421 2.046c-.027.678.042 1.419.207 2.222l.157.767 12.311-2.519c.195-.04.376-.02.545.06s.273.217.313.412l.329 1.608c.04.195-.001.368-.122.52s-.279.247-.474.287l-14.476 2.962c-.193.039-.375.007-.546-.097-.172-.104-.277-.254-.317-.448l-.605-2.955c-.388-1.896-.311-3.723.233-5.482.544-1.758 1.68-3.511 3.409-5.258l3.193-3.237c.652-.665 1.183-1.242 1.592-1.732.409-.489.715-.951.919-1.385s.318-.87.344-1.306c.025-.436-.016-.921-.126-1.457-.269-1.313-.884-2.181-1.846-2.605s-2.43-.434-4.402-.031c-.95.194-1.998.466-3.145.815-1.146.349-2.216.701-3.209 1.056l-.146.03c-.39.08-.63-.1-.719-.54l-.265-1.295c-.04-.198-.004-.359.11-.485.114-.125.263-.233.448-.323.875-.436 1.878-.835 3.01-1.195s2.246-.652 3.341-.876c2.971-.608 5.27-.532 6.897.225 1.625.758 2.67 2.269 3.134 4.535z"/><path d="m832.19 1106.611c-.092.171-.235.277-.43.317l-2.009.411c-.195.04-.368-.001-.52-.122s-.247-.279-.287-.474l-4.702-22.979-4.294 3.01c-.156.108-.306.177-.453.207-.219.045-.356-.066-.411-.335l-.381-1.863c-.025-.122-.013-.219.035-.293.048-.073.126-.159.233-.257l4.978-3.759c.262-.206.503-.332.722-.376l1.498-.306c.195-.04.373-.006.534.1.161.107.262.257.302.452l5.263 25.719c.04.195.014.377-.078.548z"/><path d="m878.913 1091.113c-.12 1.522-.477 2.819-1.069 3.892-.593 1.073-1.393 1.934-2.402 2.585-1.009.65-2.207 1.117-3.595 1.402-1.388.284-2.68.326-3.875.127-1.196-.199-2.276-.676-3.242-1.43-.967-.754-1.803-1.806-2.512-3.159-.708-1.352-1.269-3.038-1.682-5.06l-1.009-4.932c-.414-2.021-.561-3.792-.441-5.315.12-1.521.476-2.819 1.069-3.892.592-1.073 1.399-1.935 2.42-2.588s2.225-1.121 3.613-1.405c1.389-.284 2.674-.325 3.857-.123 1.184.202 2.258.68 3.224 1.433.966.754 1.803 1.807 2.511 3.159.708 1.353 1.269 3.039 1.682 5.061l1.009 4.932c.415 2.021.562 3.792.442 5.313zm-4.774-9.566c-.314-1.535-.715-2.816-1.204-3.845s-1.045-1.835-1.67-2.418c-.625-.582-1.316-.961-2.073-1.136-.756-.175-1.56-.176-2.41-.002s-1.588.49-2.215.948-1.114 1.078-1.459 1.859c-.346.782-.542 1.742-.587 2.88-.045 1.139.089 2.475.403 4.009l1.009 4.932c.314 1.534.715 2.817 1.204 3.845.489 1.029 1.046 1.835 1.671 2.418s1.316.961 2.072 1.136c.757.176 1.56.176 2.41.002s1.588-.49 2.215-.948 1.113-1.077 1.46-1.859c.346-.781.541-1.741.586-2.88.045-1.138-.089-2.475-.403-4.009z"/><path d="m900.358 1088.685c-.249 1.079-.71 2.017-1.384 2.814-.674.798-1.534 1.462-2.58 1.993s-2.239.934-3.578 1.208c-1.169.239-2.287.391-3.352.455-1.066.064-2.057.087-2.974.068-.206-.009-.386-.056-.543-.139s-.255-.224-.296-.422l-.257-1.258c-.085-.415.079-.665.494-.75l.11-.022c1.126-.078 2.234-.177 3.326-.3 1.091-.121 2.063-.27 2.916-.445 1.997-.408 3.364-1.105 4.101-2.09s.927-2.351.569-4.099l-.156-.764c-.099-.485-.269-.975-.51-1.47-.241-.494-.57-.925-.989-1.296-.418-.369-.93-.638-1.535-.805s-1.322-.166-2.15.003l-6.648 1.36c-.463.095-.739-.077-.829-.516l-.262-1.278c-.095-.463.089-.742.552-.836l6.648-1.36c.877-.179 1.568-.459 2.074-.841.505-.381.867-.816 1.085-1.303.217-.487.335-.997.352-1.532.018-.534-.023-1.044-.123-1.529l-.104-.509c-.308-1.504-.965-2.513-1.971-3.028-1.006-.514-2.544-.56-4.614-.137-1.072.219-2.053.477-2.944.774s-1.918.64-3.081 1.03l-.11.022c-.414.085-.663-.08-.748-.495l-.265-1.296c-.035-.172.002-.334.11-.485s.255-.27.44-.36c.836-.377 1.756-.745 2.762-1.105 1.005-.36 2.092-.659 3.261-.898 1.363-.279 2.629-.417 3.797-.416 1.167.003 2.204.203 3.11.6.906.399 1.671 1.003 2.293 1.815.623.812 1.074 1.899 1.353 3.263l.105.512c.254 1.242.191 2.422-.189 3.54-.38 1.119-1.085 2.074-2.115 2.869.722.182 1.348.447 1.876.796s.978.751 1.351 1.208.674.941.906 1.451c.231.511.402 1.035.512 1.57l.157.767c.281 1.367.296 2.588.047 3.666z"/><path d="m922.46 1084.163c-.249 1.079-.71 2.017-1.384 2.814-.674.798-1.534 1.462-2.58 1.993s-2.239.934-3.578 1.208c-1.169.239-2.287.391-3.352.455-1.066.064-2.057.087-2.974.068-.205-.009-.386-.056-.542-.139-.157-.083-.255-.224-.296-.422l-.257-1.258c-.085-.415.079-.665.494-.75l.11-.022c1.126-.078 2.234-.177 3.326-.3 1.091-.122 2.063-.27 2.916-.445 1.997-.409 3.364-1.105 4.101-2.09s.927-2.351.569-4.099l-.156-.764c-.099-.485-.269-.975-.51-1.47-.241-.494-.57-.926-.988-1.296-.418-.369-.93-.638-1.535-.804-.605-.167-1.322-.166-2.15.003l-6.648 1.36c-.463.095-.739-.077-.829-.516l-.262-1.278c-.095-.463.089-.742.552-.836l6.648-1.36c.877-.179 1.568-.459 2.073-.841.505-.381.867-.816 1.085-1.303.217-.487.335-.997.353-1.532.017-.534-.023-1.044-.123-1.529l-.104-.509c-.308-1.504-.965-2.513-1.971-3.028-1.006-.514-2.544-.56-4.614-.137-1.072.219-2.053.477-2.944.774s-1.918.64-3.082 1.03l-.11.022c-.414.085-.663-.08-.748-.495l-.265-1.296c-.035-.172.001-.334.11-.485.108-.151.255-.27.44-.36.836-.377 1.756-.745 2.761-1.105s2.092-.659 3.261-.898c1.363-.279 2.629-.417 3.797-.416 1.167.003 2.204.203 3.111.6.906.399 1.671 1.003 2.293 1.815.623.812 1.074 1.899 1.353 3.263l.105.512c.254 1.242.191 2.422-.189 3.54-.38 1.119-1.085 2.074-2.115 2.869.722.182 1.348.447 1.876.796s.978.751 1.351 1.208.674.941.906 1.451c.231.511.402 1.035.511 1.57l.157.767c.281 1.366.296 2.586.047 3.665z"/><path d="m940.429 1084.464c-.092.171-.236.277-.43.317l-2.009.411c-.195.04-.368-.001-.52-.122s-.247-.279-.287-.474l-4.702-22.979-4.294 3.01c-.156.108-.306.177-.453.207-.219.045-.356-.066-.411-.335l-.381-1.863c-.025-.122-.013-.219.035-.293.048-.073.126-.159.233-.257l4.978-3.759c.262-.206.503-.331.722-.376l1.498-.306c.195-.04.373-.006.534.1.161.107.262.257.302.452l5.262 25.719c.041.194.015.377-.077.548z"/><path d="m987.504 1067.524-3.178.65 1.331 6.502c.04.195.019.377-.062.545-.081.169-.22.274-.417.314l-2.142.438c-.197.04-.366-.001-.507-.125-.14-.123-.231-.282-.271-.477l-1.331-6.502-10.526 2.154c-.558.114-.968.09-1.229-.072s-.446-.511-.556-1.047l-.284-1.388c-.105-.512-.051-.992.16-1.441l7.68-17.366c.067-.166.161-.325.281-.476.121-.151.339-.26.655-.324l2.18-.446c.641-.131 1.016.071 1.126.605l3.334 16.295 3.178-.65c.195-.04.372-.012.531.084s.259.243.299.44l.303 1.48c.094.442-.092.712-.555.807zm-9.663-13.933c-.03-.146-.094-.209-.191-.189l-.036.007c-.097.02-.179.113-.247.279l-5.958 13.667c-.053.112-.07.217-.05.313.03.146.142.199.336.159l8.696-1.779z"/><path d="m1008.926 1064.796c-.12 1.459-.492 2.708-1.117 3.749s-1.493 1.885-2.603 2.531c-1.111.646-2.447 1.128-4.005 1.447-1.461.299-2.697.488-3.709.567-1.011.078-1.913.109-2.703.09-.254.001-.476-.031-.666-.095-.191-.064-.309-.207-.354-.429l-.295-1.444c-.045-.219-.018-.396.082-.531.099-.135.246-.221.441-.261.048-.01.086-.011.113-.004s.064.006.113-.004c.966.006 1.975-.048 3.031-.164 1.055-.114 2.167-.291 3.336-.53 1.413-.289 2.492-.718 3.238-1.287s1.267-1.25 1.561-2.043.401-1.698.32-2.717c-.082-1.019-.244-2.123-.487-3.312l-.082-.402c-.745.33-1.545.665-2.401 1.005-.857.341-1.845.625-2.965.854-1.194.244-2.357.355-3.49.334-1.134-.021-2.175-.24-3.122-.655-.948-.415-1.766-1.066-2.455-1.953-.69-.887-1.183-2.06-1.482-3.522l-.045-.219c-.593-2.898-.32-5.314.82-7.247 1.139-1.933 3.207-3.206 6.203-3.819 2.752-.563 5.09-.172 7.014 1.172 1.924 1.345 3.253 3.806 3.986 7.386l1.308 6.393c.397 1.949.536 3.652.415 5.11zm-5.018-10.855c-.303-1.481-.677-2.688-1.121-3.621-.445-.933-.964-1.643-1.559-2.128-.594-.486-1.263-.779-2.007-.88-.744-.1-1.554-.061-2.431.118-.853.175-1.604.442-2.253.802-.649.361-1.172.847-1.566 1.459-.395.612-.642 1.359-.741 2.239-.1.88-.022 1.939.231 3.178l.045.218c.199.971.523 1.752.974 2.343.45.591.982 1.02 1.595 1.286.613.267 1.27.411 1.972.431.702.021 1.418-.044 2.149-.193.438-.09.91-.205 1.413-.346.504-.141.999-.293 1.486-.456.487-.162.947-.333 1.38-.51s.8-.334 1.102-.472z"/><path d="m1028.116 1045.017c.294 1.437.183 2.76-.333 3.969-.516 1.21-1.512 2.562-2.987 4.056l-3.031 3.094c-.886.892-1.598 1.703-2.135 2.435s-.933 1.441-1.187 2.127c-.254.687-.394 1.369-.421 2.046-.027.678.042 1.419.207 2.223l.157.767 12.311-2.519c.195-.04.376-.02.545.06s.273.217.313.412l.329 1.607c.04.195-.001.368-.122.52s-.279.247-.474.287l-14.476 2.962c-.193.039-.375.007-.546-.097-.172-.104-.277-.254-.317-.448l-.605-2.955c-.388-1.896-.311-3.724.233-5.482s1.68-3.511 3.409-5.258l3.193-3.237c.652-.665 1.183-1.242 1.592-1.732.409-.489.715-.951.919-1.385s.318-.87.344-1.306c.025-.435-.017-.921-.126-1.456-.269-1.313-.884-2.181-1.846-2.605s-2.43-.434-4.402-.031c-.95.194-1.998.466-3.145.815-1.146.349-2.216.701-3.209 1.056l-.146.03c-.39.08-.63-.1-.72-.54l-.265-1.295c-.041-.198-.004-.359.11-.485.113-.125.262-.233.448-.323.875-.436 1.878-.835 3.009-1.195 1.132-.36 2.246-.652 3.342-.876 2.971-.608 5.27-.532 6.897.225 1.626.757 2.671 2.269 3.135 4.534z"/><path d="m1048.668 1062.316c-.092.171-.235.277-.43.317l-2.009.411c-.195.04-.368-.001-.52-.122s-.247-.279-.287-.474l-4.702-22.979-4.294 3.01c-.156.108-.306.177-.453.207-.219.045-.356-.066-.411-.335l-.381-1.863c-.025-.122-.013-.219.035-.293.048-.073.126-.159.233-.257l4.978-3.759c.262-.206.503-.331.722-.376l1.498-.307c.195-.04.373-.006.534.1.161.107.262.257.302.452l5.263 25.719c.04.195.014.378-.078.549z"/><path d="m1092.151 1031.914c.294 1.437.183 2.76-.333 3.969s-1.512 2.562-2.987 4.056l-3.031 3.094c-.886.892-1.598 1.703-2.135 2.435s-.933 1.441-1.187 2.127c-.254.687-.394 1.369-.421 2.046-.027.678.042 1.419.207 2.223l.157.767 12.311-2.519c.195-.04.376-.02.545.06s.273.217.313.412l.329 1.608c.04.195-.001.368-.122.52s-.279.247-.474.287l-14.476 2.962c-.193.04-.375.007-.546-.097-.172-.104-.277-.254-.317-.448l-.605-2.955c-.388-1.896-.311-3.724.233-5.482s1.68-3.51 3.409-5.258l3.193-3.237c.652-.665 1.183-1.242 1.592-1.732.409-.489.715-.951.919-1.385s.318-.87.344-1.306c.025-.435-.016-.921-.126-1.456-.269-1.313-.884-2.181-1.846-2.605s-2.43-.434-4.402-.031c-.95.194-1.998.466-3.145.815-1.146.349-2.216.701-3.209 1.056l-.146.03c-.39.08-.63-.1-.719-.54l-.265-1.295c-.041-.198-.004-.359.11-.485.113-.125.262-.233.448-.323.875-.436 1.878-.835 3.01-1.195s2.246-.652 3.341-.876c2.971-.608 5.27-.532 6.897.225 1.625.756 2.671 2.268 3.134 4.533z"/><path d="m1117.493 1042.295c-.12 1.522-.476 2.819-1.069 3.892s-1.393 1.934-2.402 2.585c-1.009.65-2.207 1.118-3.595 1.402s-2.68.326-3.875.127c-1.196-.199-2.276-.676-3.242-1.43-.967-.754-1.803-1.806-2.512-3.159-.708-1.352-1.269-3.038-1.682-5.06l-1.009-4.932c-.414-2.021-.561-3.792-.441-5.315.12-1.521.476-2.819 1.069-3.891.592-1.073 1.399-1.935 2.42-2.588s2.225-1.121 3.613-1.405c1.389-.284 2.674-.325 3.857-.123s2.258.68 3.224 1.433c.966.754 1.803 1.807 2.511 3.159.708 1.353 1.269 3.039 1.682 5.061l1.009 4.932c.415 2.02.562 3.791.442 5.312zm-4.774-9.566c-.314-1.534-.715-2.816-1.204-3.845s-1.045-1.835-1.67-2.418c-.625-.582-1.316-.961-2.073-1.136-.756-.175-1.56-.176-2.41-.002s-1.588.49-2.215.948c-.627.459-1.114 1.078-1.459 1.859-.346.782-.542 1.742-.587 2.88-.045 1.139.089 2.474.403 4.009l1.009 4.932c.314 1.534.715 2.816 1.204 3.845s1.046 1.835 1.671 2.418 1.316.961 2.072 1.136c.757.175 1.56.176 2.41.002s1.588-.49 2.215-.948 1.113-1.078 1.46-1.859c.346-.781.541-1.741.586-2.88.045-1.138-.089-2.475-.403-4.009z"/><path d="m1136.354 1022.869c.294 1.437.183 2.76-.333 3.969s-1.512 2.562-2.987 4.056l-3.031 3.094c-.886.892-1.598 1.703-2.135 2.435s-.933 1.441-1.187 2.127c-.254.687-.394 1.369-.421 2.046-.027.678.042 1.419.207 2.223l.157.767 12.311-2.519c.195-.04.376-.02.545.06s.273.217.313.412l.329 1.608c.04.195-.001.368-.122.52s-.279.247-.474.287l-14.476 2.962c-.193.04-.375.007-.546-.097-.172-.104-.277-.254-.317-.448l-.605-2.955c-.388-1.896-.311-3.724.233-5.482s1.68-3.51 3.409-5.258l3.193-3.237c.652-.665 1.183-1.242 1.592-1.732.409-.489.715-.951.919-1.385s.318-.87.344-1.306c.025-.435-.016-.921-.126-1.456-.269-1.313-.884-2.181-1.847-2.605-.962-.424-2.43-.434-4.402-.031-.95.194-1.998.466-3.145.815-1.146.349-2.216.701-3.209 1.056l-.146.03c-.39.08-.63-.1-.72-.54l-.265-1.295c-.04-.198-.004-.359.11-.485.113-.126.263-.233.448-.323.875-.436 1.878-.835 3.01-1.195s2.246-.652 3.341-.876c2.971-.608 5.27-.532 6.897.225s2.673 2.268 3.136 4.533z"/><path d="m1156.907 1040.168c-.092.171-.235.277-.43.317l-2.009.411c-.196.04-.368-.001-.52-.122s-.247-.279-.287-.474l-4.702-22.978-4.294 3.01c-.156.108-.306.177-.453.207-.219.045-.356-.066-.411-.335l-.381-1.863c-.025-.122-.013-.219.035-.293.048-.073.126-.159.233-.257l4.978-3.759c.262-.206.503-.331.722-.376l1.498-.306c.195-.04.373-.006.534.1.161.107.262.257.302.452l5.262 25.719c.041.193.015.376-.077.547z"/><path d="m761.376 1134.017h76.121v21.806h-76.121z" transform="matrix(.9797 -.2005 .2005 .9797 -213.289 183.5005)"/><path d="m1053.412 856.182h76.121v13.083h-76.121z" transform="matrix(.9797 -.2005 .2005 .9797 -150.7902 236.315)"/><path d="m998.969 885.065h135.855v13.083h-135.855z" transform="matrix(.9797 -.2005 .2005 .9797 -157.0789 231.9744)"/><path d="m765.123 1139.3h333.427v21.806h-333.427z" transform="matrix(.9797 -.2005 .2005 .9797 -211.6603 210.1493)"/><path d="m1148.897 1105.788c1.207 5.899-2.597 11.66-8.496 12.867s-11.66-2.597-12.867-8.496 2.597-11.66 8.496-12.867 11.66 2.596 12.867 8.496z"/><path d="m1178.805 1099.668c1.207 5.899-2.597 11.66-8.496 12.867s-11.66-2.597-12.867-8.496 2.597-11.66 8.496-12.867 11.66 2.597 12.867 8.496z"/></g><path d="m783.056 935.007 7.604 37.16c.386 1.888-.828 3.739-2.725 4.127l-63.57 13.008c-1.896.388-3.749-.835-4.136-2.723l-7.604-37.16c-.388-1.896.835-3.749 2.732-4.137l63.57-13.008c1.897-.389 3.741.836 4.129 2.733z" fill="#fecc86"/><path d="m749.265 959.219-33.243 6.802-.357-1.748 31.494-6.444-2.285-11.167 1.748-.358z" fill="#efa348"/><path d="m759.836 982.043-1.748.357-3.536-17.282 33.272-6.808.358 1.748-31.524 6.45z" fill="#efa348"/><path d="m760.182 936.122h1.784v18.9h-1.784z" fill="#efa348" transform="matrix(.9797 -.2005 .2005 .9797 -174.125 171.7873)"/><path d="m761.06 943.41h23.653v1.784h-23.653z" fill="#efa348" transform="matrix(.9797 -.2005 .2005 .9797 -173.613 174.1081)"/><path d="m738.729 978.271-1.747.357-1.226-5.988-17.641 3.61-.357-1.748 19.389-3.968z" fill="#efa348"/><path d="m1198.284 1127.236-440.529 90.141c-7.945 1.626-15.731-3.515-17.356-11.46l-54.689-267.267c-1.626-7.945 3.515-15.731 11.46-17.356l440.53-90.141c7.945-1.626 15.73 3.515 17.356 11.46l54.688 267.268c1.626 7.944-3.515 15.73-11.46 17.355zm-500.577-203.321c-6.499 1.33-10.704 7.699-9.375 14.198l54.688 267.268c1.33 6.499 7.699 10.704 14.198 9.374l440.529-90.141c6.499-1.33 10.704-7.699 9.375-14.198l-54.688-267.268c-1.33-6.499-7.699-10.704-14.198-9.375z" fill="#1d1d1b"/><ellipse cx="1733.681" cy="1050.424" fill="#fff" rx="130.755" ry="130.755" transform="matrix(.7071 -.7071 .7071 .7071 -234.9784 1533.5594)"/><path d="m1709.386 1117.035-49.314-68.58c-2.335-3.246-1.595-7.77 1.651-10.105 3.246-2.334 7.771-1.595 10.104 1.651l38.089 52.969 95.221-120.798c2.475-3.141 7.028-3.679 10.167-1.204 3.141 2.476 3.68 7.027 1.204 10.168z" fill="#5ab3bf"/><path d="m1778.273 1157.795 53.919 53.276-23.618-84.619z" fill="#fff"/><path d="m1626.583 1281.68h223.607v11.112h-223.607z" fill="#fff"/><path d="m1626.583 1327.67h223.607v11.112h-223.607z" fill="#fff"/><path d="m1155.167 674.34c-11.273-.925-22.207-3.989-32.498-9.106l2.71-5.453c9.597 4.771 19.787 7.628 30.286 8.49zm33.56-2.606-1.462-5.911c10.375-2.567 20.075-6.893 28.827-12.86l3.43 5.032c-9.352 6.376-19.714 10.998-30.795 13.739zm-93.293-26.253c-7.564-7.471-14.542-16.309-20.741-26.271l5.17-3.217c5.947 9.557 12.625 18.02 19.85 25.155zm148.237-10.983-4.916-3.593c6.146-8.408 11.054-17.911 14.588-28.244l5.761 1.971c-3.733 10.914-8.926 20.962-15.433 29.866zm-474.189-12.222-6.076-.402c.726-10.963 2.112-22.04 4.12-32.924l5.988 1.105c-1.965 10.652-3.322 21.492-4.032 32.221zm290.311-32.895c-3.989-10.088-7.289-20.78-9.809-31.781l5.936-1.359c2.452 10.701 5.66 21.098 9.536 30.901zm205.815-17.645-6.075-.407c.193-2.891.291-5.851.291-8.798 0-7.642-.658-15.45-1.955-23.208l6.006-1.004c1.352 8.09 2.038 16.236 2.038 24.213.001 3.081-.101 6.178-.305 9.204zm-484.381-13.232-5.823-1.779c3.213-10.513 7.068-20.986 11.458-31.127l5.588 2.419c-4.3 9.934-8.076 20.191-11.223 30.487zm263.565-33.678c-1.176-11.123-2.011-22.201-2.483-32.925l6.083-.268c.466 10.6 1.292 21.553 2.455 32.553zm204.484-16.477c-3.809-9.78-8.661-19.478-14.424-28.824l5.183-3.196c5.955 9.658 10.973 19.688 14.915 29.81zm-442.282-9.391-5.286-3.022c5.475-9.577 11.54-18.945 18.028-27.843l4.92 3.587c-6.356 8.718-12.298 17.896-17.662 27.278zm993.478-.143-5.804-1.842c3.331-10.5 5.929-21.084 7.717-31.459l6.001 1.035c-1.836 10.646-4.499 21.502-7.914 32.266zm-752.404-39.79-6.087-.155c.285-11.183.994-22.274 2.109-32.963l6.057.632c-1.098 10.53-1.797 21.461-2.079 32.486zm167.661-5.547c-6.843-7.957-14.507-15.703-22.778-23.024l4.035-4.56c8.478 7.503 16.337 15.448 23.36 23.613zm-370.492-6.941-4.487-4.116c7.497-8.173 15.502-15.955 23.794-23.129l3.984 4.605c-8.116 7.021-15.952 14.638-23.291 22.64zm966.321-13.096-6.089-.112c.023-1.214.033-2.424.033-3.632.001-9.565-.692-19.174-2.06-28.559l6.025-.878c1.411 9.676 2.125 19.58 2.124 29.438 0 1.244-.01 2.492-.033 3.743zm-644.153-23.002c-7.551-5.254-15.619-10.344-23.978-15.128-1.206-.69-2.412-1.369-3.62-2.036l2.945-5.329c1.233.681 2.466 1.375 3.699 2.079 8.515 4.874 16.735 10.06 24.432 15.416zm-273.104-6.277-3.403-5.05c9.238-6.224 18.876-11.872 28.646-16.787l2.737 5.44c-9.541 4.799-18.954 10.316-27.98 16.397zm160.616-9.792-5.977-1.163c2.134-10.965 4.785-21.776 7.881-32.131l5.834 1.743c-3.039 10.165-5.643 20.78-7.738 31.551zm55.596-15.015c-10.127-4.048-20.496-7.407-30.817-9.982l1.474-5.908c10.589 2.642 21.222 6.086 31.604 10.237zm-158.396-4.202-1.987-5.756c10.515-3.629 21.302-6.529 32.064-8.618l1.161 5.977c-10.483 2.036-20.993 4.861-31.238 8.397zm844.074-5.445c-3.211-10.101-7.303-20.166-12.164-29.917l5.449-2.716c5 10.031 9.212 20.39 12.518 30.789zm-748.378-5.913c-10.717-1.084-21.608-1.384-32.342-.887l-.281-6.083c11.031-.511 22.222-.203 33.235.912zm25.775-31.532-5.612-2.362c4.308-10.24 9.211-20.251 14.572-29.754l5.304 2.991c-5.248 9.301-10.047 19.099-14.264 29.125zm693.975-20.336c-5.968-8.682-12.703-17.264-20.016-25.507l4.555-4.041c7.479 8.43 14.369 17.211 20.479 26.1zm-662.129-36.023-4.907-3.605c6.515-8.87 13.651-17.444 21.209-25.486l4.437 4.17c-7.39 7.864-14.368 16.248-20.739 24.921zm619.247-12.556c-7.83-7.11-16.28-14.068-25.115-20.681l3.649-4.875c8.989 6.728 17.588 13.809 25.56 21.047zm-574.935-34.641-3.916-4.663c8.345-7.008 17.273-13.684 26.538-19.843l3.37 5.071c-9.076 6.034-17.821 12.572-25.992 19.435zm522.931-4.426c-9.034-5.645-18.552-11.097-28.292-16.203l2.828-5.393c9.875 5.177 19.528 10.706 28.692 16.432zm-57.702-30.329c-9.823-4.312-20.019-8.395-30.304-12.136l2.081-5.722c10.407 3.786 20.727 7.918 30.671 12.283zm-411.267-1.215-2.826-5.394c9.597-5.027 19.703-9.709 30.038-13.918l2.297 5.64c-10.156 4.136-20.084 8.736-29.509 13.672zm349.943-21.13c-10.358-3.062-20.991-5.863-31.602-8.323l1.375-5.932c10.73 2.489 21.48 5.32 31.954 8.416zm-289.767-3.464-1.793-5.819c10.342-3.187 21.099-6.028 31.975-8.444l1.32 5.944c-10.717 2.38-21.316 5.179-31.502 8.319zm226.132-11.305c-10.711-1.83-21.595-3.364-32.35-4.559l.673-6.052c10.873 1.208 21.875 2.758 32.702 4.608zm-162.558-2.886-.878-6.026c10.731-1.562 21.782-2.779 32.843-3.617l.462 6.071c-10.924.828-21.834 2.03-32.427 3.572zm97.66-4.312c-10.9-.555-21.841-.778-32.628-.66l-.064-6.089c10.891-.118 21.977.107 33.002.668z" fill="#6095ab"/><path d="m1780.973 545.356-5.402-2.809c2.521-4.851 4.922-9.775 7.136-14.635l5.542 2.524c-2.257 4.956-4.706 9.976-7.276 14.92z" fill="#6095ab"/><path d="m1728.18 576.527-33.819 58.29s48.944-39.19 50.122-40.13c1.17-.934 44.693-64.258 44.693-64.258l19.348-5.538-30.713-8.23z" fill="#cc154a"/><path d="m1777.812 516.66-21.82-20.79-61.631 138.947z" fill="#f7597f"/><path d="m1818.064 557.857-28.888-27.429-94.815 104.389z" fill="#f7597f"/></svg>