<svg height="17.510006mm" viewBox="0 0 59.999561 17.510006" width="59.999561mm" xmlns="http://www.w3.org/2000/svg" xmlns:xlink="http://www.w3.org/1999/xlink"><clipPath id="a"><path d="m382.677 748.082h170.078v51.288h-170.078z"/></clipPath><g clip-path="url(#a)" transform="matrix(.35277777 0 0 -.35277777 -135.000115 281.416705)"><g fill="#003a70"><path d="m0 0c0 2.465-.047 4.533-.18 6.378h4.664l.219-3.167h.13c1.055 1.674 2.992 3.654 6.598 3.654 2.815 0 5.013-1.59 5.936-3.962h.09c.751 1.189 1.629 2.065 2.638 2.683 1.187.835 2.552 1.279 4.314 1.279 3.558 0 7.161-2.42 7.161-9.285v-12.619h-5.276v11.831c0 3.561-1.23 5.673-3.821 5.673-1.851 0-3.217-1.321-3.785-2.861-.132-.527-.265-1.186-.265-1.799v-12.844h-5.279v12.402c0 2.99-1.186 5.102-3.692 5.102-2.024 0-3.385-1.583-3.869-3.076-.219-.532-.312-1.146-.312-1.762v-12.666h-5.271z" transform="translate(382.8575 763.6027)"/><path d="m0 0c-3.827.09-7.475-.743-7.475-4 0-2.108 1.364-3.079 3.079-3.079 2.151 0 3.738 1.407 4.217 2.946.133.395.179.837.179 1.187zm5.276-5.32c0-1.934.089-3.818.311-5.144h-4.883l-.351 2.376h-.137c-1.317-1.672-3.559-2.858-6.327-2.858-4.312 0-6.729 3.116-6.729 6.377 0 5.409 4.79 8.133 12.707 8.09v.352c0 1.408-.573 3.739-4.351 3.739-2.113 0-4.315-.663-5.763-1.586l-1.057 3.517c1.583.971 4.356 1.897 7.742 1.897 6.861 0 8.838-4.358 8.838-9.018z" transform="translate(429.7098 759.028)"/><path d="m0 0c0 2.465-.049 4.533-.177 6.378h4.745l.265-3.21h.13c.923 1.668 3.257 3.697 6.816 3.697 3.742 0 7.611-2.42 7.611-9.193v-12.711h-5.411v12.093c0 3.079-1.144 5.411-4.089 5.411-2.155 0-3.647-1.537-4.222-3.166-.172-.486-.219-1.147-.219-1.756v-12.582h-5.449z" transform="translate(438.7279 763.6027)"/><path d="m0 0c0 .437-.045.965-.131 1.405-.485 2.111-2.198 3.825-4.662 3.825-3.474 0-5.408-3.08-5.408-7.081 0-3.914 1.934-6.776 5.366-6.776 2.196 0 4.133 1.497 4.659 3.828.131.485.176 1.017.176 1.588zm5.408 17.53v-23.996c0-2.198.09-4.575.176-6.024h-4.837l-.216 3.383h-.09c-1.275-2.371-3.876-3.867-6.994-3.867-5.1 0-9.147 4.347-9.147 10.946-.043 7.171 4.444 11.44 9.589 11.44 2.944 0 5.057-1.233 6.023-2.822h.088v10.94z" transform="translate(476.1589 761.0557)"/><path d="m485.391 769.981h5.461v-21.415h-5.461z"/><path d="m0 0c0 2.902-.044 4.972-.177 6.904h4.707l.174-4.086h.179c1.054 3.034 3.562 4.086 5.849 4.086.527 0 .835.091 1.275 0v-4.751c-.44.09-.923.178-1.586.178-2.592 0-4.351-1.67-4.833-4.088-.088-.483-.175-1.059-.175-1.677v-11.076h-5.413z" transform="translate(494.6713 763.0753)"/><path d="m509.185 769.981h5.45v-21.415h-5.45z"/></g><path d="m0 0c-2.691 3.065-5.547 1.681-7.827.551-.955-.472-4.422-2.78-7.858-4.389-2.448-1.147-5.962-.8-7.889 1.58-.117.144-3.232 3.918-3.562 4.383-2.023 2.537-7.14 4.641-13.254 1.142-3.276-1.896-10.996-6.326-13.882-7.974-1.754-.895-5.826-1.286-8.126 1.821-.038.051-3.06 3.822-3.181 3.967-.089.102-2.041 2.997-6.392 3.086-.64.016-3.836.035-6.959-1.738-4.141-2.369-13.779-7.879-13.779-7.879-.007 0-.007-.005-.007-.005-3.962-2.268-7.052-4.029-7.052-4.029l3.648-4.484c1.708-2.117 5.554-3.758 8.892-1.842 0 0 12.33 7.14 12.373 7.16 5.334 2.927 9.45 2.927 12.177 1.837 2.453-1.033 4.585-3.613 4.585-3.613s2.789-3.456 3.279-4.06c1.586-1.952 4.209-1.186 4.209-1.186s.969.112 2.441.982c0 0 11.94 6.923 11.947 6.925 3.794 2.225 7.274 2.64 9.049 2.478 5.567-.507 7.298-4.396 9.714-7.108 1.421-1.599 2.702-2.503 4.663-2.457 1.291.029 2.746.808 2.961.948l14.3 8.255s-1.465 2.208-4.47 5.649" fill="#ffb700" fill-rule="evenodd" transform="translate(548.2855 792.6043)"/></g></svg>