<svg viewBox="0 0 77 24" xmlns="http://www.w3.org/2000/svg"><path d="m21.19 20.24a12.54 12.54 0 0 1 -8.8 3.45 12.59 12.59 0 0 1 -8.85-3.45 11.68 11.68 0 0 1 0-16.77 12.55 12.55 0 0 1 8.86-3.47 12.54 12.54 0 0 1 8.8 3.45 11.67 11.67 0 0 1 0 16.77m-8.8-16.36a7.73 7.73 0 0 0 -7.8 8 7.78 7.78 0 1 0 15.56 0 7.73 7.73 0 0 0 -7.76-8m38-1.07-9.51 21.21-.54-.1c-2.72-.49-3.27-1.17-4.54-3.93l-7.13-15.53h-2.68v-3.77h10.13v3.77h-2.42l5.73 12.85 5.56-12.85h-3v-3.77h8.4zm23 17.45a13 13 0 0 1 -17.64 0 11.68 11.68 0 0 1 0-16.77 13 13 0 0 1 17.64 0 11.65 11.65 0 0 1 0 16.77m-8.75-16.38a7.74 7.74 0 0 0 -7.81 8 7.78 7.78 0 1 0 15.56 0 7.72 7.72 0 0 0 -7.75-8" fill="#4b2489" fill-rule="evenodd"/></svg>