<svg enable-background="new 0 0 500 500" viewBox="0 0 500 500" xmlns="http://www.w3.org/2000/svg"><g enable-background="new"><path d="m470 249.371-250.573 145.617-199.402-115.125 250.573-145.617z" fill="#ef476f"/><path d="m470 249.371-.025 8.926-250.573 145.617.025-8.926z" fill="#be1e46"/><path d="m219.427 394.988-.025 8.926-199.402-115.125.025-8.926z" fill="#d2325a"/></g><g enable-background="new"><path d="m200.233 305.236c-10.641-6.144-25.028-8.805-38.893-7.988l52.808 30.489c1.364-8.034-3.278-16.36-13.915-22.501m70.76 30.595-123.809-71.481-21.343 12.403 33.525 19.356c15.027-1.192 30.838 1.551 42.41 8.232 11.571 6.681 16.359 15.83 14.35 24.538l33.525 19.356zm-7.198-53.616-24.03-13.874c-.325 3.613 1.9 7.292 6.669 10.046 4.769 2.753 11.127 4.029 17.361 3.828m49.892 28.805-47.873-27.639c-7.422.565-15.212-.801-20.921-4.097-5.713-3.298-8.097-7.806-7.144-12.106l-47.871-27.638-9.008 5.235 2.041 1.179-1.542.896-2.041-1.179-10.793 6.272 123.809 71.481 10.793-6.272-2.041-1.179 1.542-.896 2.041 1.179zm-35.213-51.253c-4.767-2.753-11.123-4.03-17.355-3.832l24.024 13.87c.323-3.609-1.902-7.285-6.669-10.038m77.907 26.441-123.809-71.481-10.272 5.97 2.041 1.178-1.549.9-2.041-1.179-9.522 5.534 47.873 27.639c7.42-.566 15.21.799 20.921 4.097 5.708 3.295 8.09 7.803 7.139 12.104l47.875 27.641 9.522-5.534-2.041-1.179 1.549-.9 2.041 1.179zm7.195-45.306-52.813-30.492c-1.366 8.034 3.278 16.359 13.92 22.504 10.637 6.142 25.025 8.805 38.893 7.988m35.499 20.495-33.523-19.355c-15.03 1.194-30.846-1.547-42.418-8.229-11.572-6.681-16.357-15.833-14.345-24.543l-33.523-19.355-21.343 12.404 123.809 71.481z" fill="#06d6a0"/><path d="m301.503 181.232-5.665-3.271-5.635 3.274c3.318 1.504 8.007 1.501 11.3-.003m20.637 11.914-19.069-11.009c-4.161 1.993-10.233 1.991-14.418 0l-13.387 7.78 33.523 19.355c1.357-5.875 5.805-11.546 13.351-16.126m69.653 40.214-68.101-39.318c-7.611 4.628-11.918 10.418-12.93 16.368l52.813 30.492c10.27-.605 20.252-3.118 28.218-7.542m20.621 11.906-19.069-11.009c-7.882 4.386-17.658 6.981-27.794 7.786l33.523 19.355 13.387-7.779c-3.456-2.418-3.476-5.935-.047-8.353m7.233 4.176-5.672-3.275c-2.587 1.914-2.571 4.635.037 6.549z" fill="#14e6b4"/><path d="m303.22 245.386c-1.077-.622-1.082-1.623-.013-2.244 1.063-.617 2.798-.622 3.874 0 1.07.618 1.075 1.627.013 2.244-1.069.622-2.804.618-3.874 0m74.511 28.415-123.809-71.481-9.39 5.457 2.041 1.179-1.542.896-2.041-1.179-10.418 6.054 123.809 71.481 10.418-6.054-2.041-1.179 1.542-.896 2.041 1.179z" fill="#14e6b4"/><path d="m244.023 259.325-44.242-25.543-9.904 5.756 47.871 27.638c.631-2.844 2.722-5.598 6.275-7.851m33.766 19.495-32.212-18.597c-3.613 2.31-5.548 5.192-5.812 8.119l24.03 13.874c5.05-.164 10.018-1.296 13.994-3.396m45.802 26.444-44.242-25.543c-3.878 2.065-8.626 3.285-13.536 3.659l47.873 27.639zm-64.49-50.494-47.873-27.639-9.904 5.756 44.242 25.543c3.876-2.065 8.624-3.285 13.535-3.66m26.042 15.035-24.024-13.87c-5.052.16-10.022 1.29-14 3.391l32.212 18.598c3.614-2.311 5.55-5.193 5.812-8.119m49.894 28.807-47.875-27.641c-.629 2.846-2.719 5.601-6.271 7.854l44.242 25.543z" fill="#14e6b4"/><path d="m217.833 295.008c-1.077-.622-1.082-1.623-.013-2.244 1.063-.618 2.798-.622 3.874 0 1.07.618 1.075 1.627.013 2.244-1.07.622-2.805.618-3.874 0m74.51 28.415-123.809-71.481-9.904 5.756 2.041 1.179-1.542.896-2.041-1.178-9.904 5.756 123.809 71.481 9.904-5.756-2.041-1.179 1.542-.896 2.041 1.179z" fill="#14e6b4"/><path d="m110.895 285.438-5.634 3.274 5.665 3.271c2.591-1.915 2.578-4.629-.031-6.545m123.81 71.481c-3.313-1.505-8.007-1.508-11.307 0l5.672 3.275zm-75.34-60.811-33.525-19.356-13.387 7.78c3.45 2.418 3.468 5.939.041 8.356l19.069 11.009c7.884-4.388 17.663-6.984 27.802-7.789m54.783 31.629-52.808-30.489c-10.274.605-20.259 3.12-28.225 7.546l68.101 39.318c7.613-4.628 11.921-10.421 12.932-16.375m35.501 20.497-33.525-19.356c-1.356 5.876-5.805 11.548-13.356 16.13l19.069 11.009c4.163-1.995 10.24-1.998 14.426-.004z" fill="#14e6b4"/><g fill="#fff"><path d="m279.349 279.721-1.561-.901c-3.976 2.1-8.944 3.232-13.994 3.395-6.234.201-12.592-1.074-17.361-3.828s-6.994-6.433-6.669-10.046c.263-2.927 2.199-5.809 5.812-8.119l-1.554-.897c-3.553 2.253-5.645 5.007-6.275 7.851-.953 4.3 1.431 8.808 7.144 12.106 5.709 3.296 13.499 4.663 20.921 4.097 4.911-.373 9.66-1.593 13.537-3.658m.674-20.854c-5.712-3.298-13.502-4.663-20.921-4.097-4.911.374-9.659 1.594-13.536 3.659l1.554.897c3.977-2.101 8.947-3.231 14-3.391 6.232-.198 12.588 1.08 17.355 3.832 4.768 2.753 6.992 6.429 6.669 10.038-.262 2.926-2.198 5.808-5.812 8.118l1.56.901c3.552-2.252 5.641-5.007 6.271-7.854.95-4.299-1.433-8.807-7.14-12.103"/><path d="m325.133 304.368-44.242-25.543-1.56-.901-32.212-18.598-1.554-.897-44.241-25.543-1.542.897 44.241 25.542 1.554.897 32.212 18.598 1.56.901 44.242 25.543z"/><path d="m201.775 304.34c-11.571-6.681-27.383-9.424-42.41-8.232-10.139.805-19.918 3.4-27.803 7.789l1.552.896c7.965-4.425 17.951-6.94 28.225-7.546 13.865-.817 28.252 1.844 38.893 7.988 10.637 6.141 15.279 14.466 13.915 22.501-1.011 5.953-5.319 11.746-12.932 16.375l1.552.896c7.551-4.581 12-10.254 13.356-16.13 2.011-8.707-2.777-17.856-14.348-24.537"/><path d="m393.345 234.257-1.552-.896c-7.966 4.424-17.948 6.937-28.218 7.542-13.867.817-28.255-1.846-38.893-7.988-10.642-6.144-15.286-14.469-13.92-22.504 1.012-5.95 5.319-11.74 12.93-16.368l-1.552-.896c-7.546 4.58-11.994 10.251-13.351 16.125-2.013 8.71 2.772 17.862 14.345 24.543 11.572 6.681 27.388 9.423 42.418 8.229 10.135-.807 19.911-3.401 27.793-7.787"/><path d="m413.975 246.167-1.561-.901c-3.429 2.418-3.409 5.934.047 8.352l1.551-.901c-2.608-1.914-2.624-4.636-.037-6.55"/><path d="m303.071 182.137-1.568-.905c-3.293 1.504-7.982 1.508-11.299.004l-1.551.901c4.185 1.99 10.257 1.992 14.418 0"/><path d="m236.263 356.013c-4.186-1.994-10.263-1.991-14.426.004l1.561.901c3.3-1.508 7.995-1.505 11.307 0z"/><path d="m112.453 284.533-1.558.905c2.609 1.916 2.622 4.63.031 6.545l1.568.905c3.427-2.417 3.409-5.937-.041-8.355"/><path d="m282.449 330.971-1.552-.896-9.904 5.756-21.344 12.404-13.387 7.779-1.558.905-5.635 3.275-5.672-3.275-1.561-.901-19.069-11.009-1.552-.896-68.101-39.318-1.552-.896-19.069-11.009-1.568-.905-5.665-3.271 5.634-3.274 1.558-.905 13.387-7.78 21.343-12.403 9.904-5.756-1.559-.9-53.369 31.015 126.92 73.277zm-103.122-85.302-1.559-.9-20.698 12.028 1.559.9 9.904-5.756zm125.362 72.378-1.552-.896-10.793 6.272-9.904 5.756 1.552.896zm-83.939-96.45-1.559-.9-39.881 23.176 1.559.9 9.008-5.235 9.904-5.756 1.542-.896 9.904-5.756zm125.362 72.377-1.552-.896-9.522 5.534-9.904 5.756-1.542.896-9.904 5.756-9.008 5.235 1.552.896zm-103.122-85.301-1.559-.9-20.691 12.024 1.559.9 10.272-5.97zm125.361 72.377-1.552-.896-10.418 6.054-10.272 5.97 1.552.896zm54.397-31.612-126.92-73.277-52.855 30.716 1.559.9 9.39-5.457 21.343-12.404 13.387-7.78 1.551-.901 5.635-3.274 5.665 3.271 1.568.905 19.069 11.009 1.552.896 68.101 39.318 1.552.896 19.069 11.009 1.561.901 5.672 3.275-5.635 3.275-1.551.901-13.387 7.779-21.343 12.404-9.39 5.457 1.552.896z"/><path d="m221.694 292.764c-1.077-.622-2.812-.617-3.874 0-1.07.621-1.064 1.622.013 2.244 1.07.617 2.805.622 3.874 0 1.063-.617 1.057-1.626-.013-2.244"/><path d="m307.082 243.142c-1.077-.622-2.812-.617-3.874 0-1.07.622-1.064 1.623.013 2.244 1.07.617 2.805.622 3.874 0 1.063-.617 1.057-1.626-.013-2.244"/><path d="m308.272 318.329-2.041-1.178-1.552-.896-2.042-1.179-1.542.896 2.042 1.179 1.552.896 2.041 1.178z"/><path d="m286.033 331.253-2.042-1.178-1.552-.896-2.041-1.179-1.542.896 2.041 1.179 1.552.896 2.042 1.178z"/><path d="m371.934 281.333-2.041-1.179-1.552-.896-2.041-1.179-1.542.897 2.041 1.178 1.552.896 2.041 1.179z"/><path d="m349.702 294.253-2.042-1.179-1.552-.896-2.041-1.178-1.549.9 2.042 1.178 1.552.896 2.041 1.179z"/><path d="m182.911 245.952-2.042-1.179-1.559-.9-2.034-1.174-1.542.896 2.034 1.174 1.559.9 2.042 1.179z"/><path d="m160.671 258.876-2.041-1.179-1.559-.9-2.035-1.174-1.541.896 2.034 1.174 1.559.901 2.041 1.178z"/><path d="m246.573 208.955-2.041-1.178-1.559-.9-2.035-1.175-1.542.896 2.035 1.175 1.559.9 2.041 1.178z"/><path d="m224.34 221.875-2.041-1.178-1.559-.9-2.034-1.175-1.549.9 2.034 1.175 1.559.9 2.042 1.178z"/></g></g><g enable-background="new"><path d="m137.008 251.814 31.477-18.292 3.173 1.832-31.477 18.292z" fill="#ffd166"/><path d="m140.181 253.646 31.477-18.292-.011 4-31.477 18.292z" fill="#dcaa46"/><path d="m137.02 247.814 31.477-18.293-.012 4.001-31.477 18.292z" fill="#dcaa46"/><path d="m133.533 245.801 31.477-18.293 3.487 2.013-31.477 18.293z" fill="#ffd166"/><path d="m130.727 240.173 31.477-18.292 2.818 1.627-31.478 18.292z" fill="#ffd166"/><path d="m133.544 241.8 31.478-18.292-.012 4-31.477 18.293z" fill="#dcaa46"/><path d="m127.28 234.177 31.477-18.293 3.458 1.997-31.477 18.292z" fill="#ffd166"/><path d="m130.738 236.173 31.477-18.292-.011 4-31.477 18.292z" fill="#dcaa46"/><path d="m117.531 224.541 31.478-18.292 9.759 5.635-31.477 18.292z" fill="#ffd166"/><path d="m127.291 230.176 31.477-18.292-.011 4-31.477 18.293z" fill="#dcaa46"/><path d="m127.291 230.176-.011 4.001 3.458 1.996-.011 4 2.817 1.627-.011 4.001 3.487 2.013-.012 4 3.173 1.832-.011 4-22.695-13.103.056-20.002z" fill="#f0be5a"/></g><path d="m117.475 244.543 24.415 16.87 35.242-20.473-5.485-1.586-31.477 18.292z" fill="#c82850"/><g fill="none" stroke-linecap="round" stroke-linejoin="round" stroke-miterlimit="10"><path d="m158.659 336.934 25.53 14.641" stroke="#c82850" stroke-width="1.095"/><path d="m165.76 348.045 18.429 3.53 12.085-7.665-11.05-7.103" stroke="#c82850" stroke-width="1.095"/><path d="m140.23 333.404 18.429 3.53 12.085-7.664-11.05-7.103" stroke="#c82850" stroke-width="1.095"/><path d="m185.224 336.807v-22.141l-12.783 7.38-6.681 25.999" stroke="#fff" stroke-width=".6392"/><path d="m159.594 322.009v-22.141l-12.783 7.381-6.607 25.707" stroke="#fff" stroke-width=".6392"/><path d="m146.811 307.249 25.63 14.797" stroke="#fff" stroke-width=".6392"/><path d="m159.594 299.868 25.63 14.798" stroke="#fff" stroke-width=".6392"/><path d="m159.477 300.013-12.612 7.19-6.672 26.061 19.412-11.387z" stroke="#fff" stroke-width=".1598"/><path d="m140.67 331.401c6.368-3.728 12.676-7.421 18.926-11.079" stroke="#fff" stroke-width=".1598"/><path d="m141.123 329.63c6.211-3.629 12.366-7.225 18.464-10.788" stroke="#fff" stroke-width=".1598"/><path d="m141.555 327.943c6.062-3.535 12.07-7.039 18.023-10.512" stroke="#fff" stroke-width=".1598"/><path d="m141.967 326.334c5.919-3.446 11.787-6.863 17.604-10.249" stroke="#fff" stroke-width=".1598"/><path d="m142.36 324.799c5.784-3.362 11.518-6.695 17.203-9.999" stroke="#fff" stroke-width=".1598"/><path d="m142.736 323.332c5.654-3.281 11.261-6.535 16.82-9.761" stroke="#fff" stroke-width=".1598"/><path d="m143.095 321.929c5.53-3.204 11.014-6.382 16.454-9.534" stroke="#fff" stroke-width=".1598"/><path d="m143.439 320.586c5.411-3.131 10.779-6.236 16.104-9.317" stroke="#fff" stroke-width=".1598"/><path d="m143.768 319.299c5.297-3.061 10.553-6.097 15.768-9.11" stroke="#fff" stroke-width=".1598"/><path d="m144.084 318.064c5.188-2.994 10.337-5.964 15.446-8.912" stroke="#fff" stroke-width=".1598"/><path d="m144.388 316.879c5.084-2.929 10.129-5.837 15.137-8.722" stroke="#fff" stroke-width=".1598"/><path d="m144.679 315.741c4.983-2.868 9.93-5.715 14.84-8.54" stroke="#fff" stroke-width=".1598"/><path d="m144.96 314.646c4.887-2.809 9.738-5.597 14.554-8.366" stroke="#fff" stroke-width=".1598"/><path d="m145.229 313.593c4.794-2.752 9.553-5.485 14.279-8.198" stroke="#fff" stroke-width=".1598"/><path d="m145.489 312.578c4.704-2.698 9.376-5.377 14.014-8.037" stroke="#fff" stroke-width=".1598"/><path d="m145.739 311.601c4.618-2.646 9.204-5.273 13.759-7.882" stroke="#fff" stroke-width=".1598"/><path d="m145.98 310.658c4.535-2.595 9.039-5.173 13.513-7.733" stroke="#fff" stroke-width=".1598"/><path d="m146.213 309.749c4.455-2.547 8.88-5.077 13.276-7.59" stroke="#fff" stroke-width=".1598"/><path d="m146.438 308.871c4.377-2.5 8.726-4.984 13.047-7.452" stroke="#fff" stroke-width=".1598"/><path d="m146.655 308.023c4.303-2.455 8.578-4.895 12.826-7.318" stroke="#fff" stroke-width=".1598"/><path d="m158.608 300.508-.333 22.15" stroke="#fff" stroke-width=".1598"/><path d="m157.314 301.246-1.025 22.576" stroke="#fff" stroke-width=".1598"/><path d="m156.017 301.986-1.719 23.004" stroke="#fff" stroke-width=".1598"/><path d="m154.717 302.727-2.416 23.434" stroke="#fff" stroke-width=".1598"/><path d="m153.415 303.469-3.117 23.867" stroke="#fff" stroke-width=".1598"/><path d="m152.11 304.213-3.82 24.301" stroke="#fff" stroke-width=".1598"/><path d="m150.802 304.958-4.527 24.739" stroke="#fff" stroke-width=".1598"/><path d="m149.493 305.705-5.24 25.177" stroke="#fff" stroke-width=".1598"/><path d="m148.18 306.453-5.954 25.618" stroke="#fff" stroke-width=".1598"/><path d="m146.426 307.071 26.031 15.064-6.517 25.781-25.728-15.166z" stroke="#fff" stroke-width=".1598"/><path d="m140.506 331.538 25.742 15.162" stroke="#fff" stroke-width=".1598"/><path d="m140.799 330.325 25.757 15.157" stroke="#fff" stroke-width=".1598"/><path d="m141.093 329.11 25.771 15.153" stroke="#fff" stroke-width=".1598"/><path d="m141.387 327.895 25.785 15.148" stroke="#fff" stroke-width=".1598"/><path d="m141.682 326.679 25.799 15.143" stroke="#fff" stroke-width=".1598"/><path d="m141.976 325.462 25.814 15.138" stroke="#fff" stroke-width=".1598"/><path d="m142.271 324.243 25.828 15.133" stroke="#fff" stroke-width=".1598"/><path d="m142.566 323.024 25.842 15.128" stroke="#fff" stroke-width=".1598"/><path d="m142.861 321.803 25.857 15.124" stroke="#fff" stroke-width=".1598"/><path d="m143.157 320.581 25.871 15.119" stroke="#fff" stroke-width=".1598"/><path d="m143.453 319.359 25.886 15.113" stroke="#fff" stroke-width=".1598"/><path d="m143.749 318.135 25.9 15.108" stroke="#fff" stroke-width=".1598"/><path d="m144.045 316.91 25.915 15.104" stroke="#fff" stroke-width=".1598"/><path d="m144.342 315.684 25.929 15.099" stroke="#fff" stroke-width=".1598"/><path d="m144.639 314.457 25.943 15.094" stroke="#fff" stroke-width=".1598"/><path d="m144.936 313.229 25.958 15.088" stroke="#fff" stroke-width=".1598"/><path d="m145.234 311.999 25.972 15.084" stroke="#fff" stroke-width=".1598"/><path d="m145.531 310.769 25.987 15.079" stroke="#fff" stroke-width=".1598"/><path d="m145.829 309.537 26.002 15.074" stroke="#fff" stroke-width=".1598"/><path d="m146.128 308.305 26.016 15.069" stroke="#fff" stroke-width=".1598"/><path d="m171.206 321.411-6.502 25.777" stroke="#fff" stroke-width=".1598"/><path d="m169.956 320.688-6.487 25.772" stroke="#fff" stroke-width=".1598"/><path d="m168.708 319.965-6.473 25.767" stroke="#fff" stroke-width=".1598"/><path d="m167.46 319.243-6.458 25.762" stroke="#fff" stroke-width=".1598"/><path d="m166.214 318.522-6.444 25.757" stroke="#fff" stroke-width=".1598"/><path d="m164.969 317.802-6.429 25.752" stroke="#fff" stroke-width=".1598"/><path d="m163.725 317.082-6.415 25.747" stroke="#fff" stroke-width=".1598"/><path d="m162.482 316.362-6.4 25.743" stroke="#fff" stroke-width=".1598"/><path d="m161.24 315.644-6.386 25.737" stroke="#fff" stroke-width=".1598"/><path d="m159.999 314.926-6.371 25.732" stroke="#fff" stroke-width=".1598"/><path d="m158.76 314.208-6.357 25.728" stroke="#fff" stroke-width=".1598"/><path d="m157.521 313.492-6.342 25.723" stroke="#fff" stroke-width=".1598"/><path d="m156.284 312.776-6.328 25.718" stroke="#fff" stroke-width=".1598"/><path d="m155.048 312.06-6.314 25.713" stroke="#fff" stroke-width=".1598"/><path d="m153.813 311.346-6.299 25.708" stroke="#fff" stroke-width=".1598"/><path d="m152.579 310.632-6.285 25.703" stroke="#fff" stroke-width=".1598"/><path d="m151.346 309.918-6.27 25.698" stroke="#fff" stroke-width=".1598"/><path d="m150.115 309.206-6.257 25.693" stroke="#fff" stroke-width=".1598"/><path d="m148.884 308.493-6.242 25.689" stroke="#fff" stroke-width=".1598"/><path d="m147.654 307.782-6.227 25.683" stroke="#fff" stroke-width=".1598"/><path d="m185.224 314.666-12.611 7.19-6.673 26.06 19.412-11.386z" stroke="#fff" stroke-width=".1598"/><path d="m166.417 346.054c6.368-3.728 12.677-7.421 18.926-11.079" stroke="#fff" stroke-width=".1598"/><path d="m166.871 344.282c6.211-3.629 12.366-7.225 18.464-10.788" stroke="#fff" stroke-width=".1598"/><path d="m167.303 342.595c6.062-3.535 12.07-7.039 18.024-10.512" stroke="#fff" stroke-width=".1598"/><path d="m167.714 340.987c5.92-3.446 11.787-6.863 17.604-10.249" stroke="#fff" stroke-width=".1598"/><path d="m168.107 339.452c5.784-3.362 11.518-6.695 17.203-9.999" stroke="#fff" stroke-width=".1598"/><path d="m168.483 337.985c5.654-3.281 11.26-6.535 16.82-9.761" stroke="#fff" stroke-width=".1598"/><path d="m168.842 336.582c5.53-3.204 11.014-6.382 16.454-9.534" stroke="#fff" stroke-width=".1598"/><path d="m169.186 335.239c5.411-3.131 10.779-6.236 16.104-9.317" stroke="#fff" stroke-width=".1598"/><path d="m169.516 333.952c5.297-3.061 10.553-6.097 15.768-9.11" stroke="#fff" stroke-width=".1598"/><path d="m169.832 332.717c5.188-2.994 10.337-5.964 15.446-8.912" stroke="#fff" stroke-width=".1598"/><path d="m170.135 331.532c5.084-2.929 10.129-5.837 15.137-8.722" stroke="#fff" stroke-width=".1598"/><path d="m170.427 330.393c4.983-2.868 9.93-5.715 14.84-8.54" stroke="#fff" stroke-width=".1598"/><path d="m170.707 329.298c4.886-2.809 9.738-5.597 14.554-8.366" stroke="#fff" stroke-width=".1598"/><path d="m170.977 328.245c4.794-2.752 9.553-5.485 14.279-8.198" stroke="#fff" stroke-width=".1598"/><path d="m171.236 327.231c4.704-2.698 9.375-5.377 14.014-8.037" stroke="#fff" stroke-width=".1598"/><path d="m171.487 326.253c4.618-2.645 9.204-5.273 13.759-7.882" stroke="#fff" stroke-width=".1598"/><path d="m171.728 325.311c4.535-2.595 9.039-5.173 13.513-7.733" stroke="#fff" stroke-width=".1598"/><path d="m171.961 324.402c4.455-2.547 8.88-5.077 13.276-7.59" stroke="#fff" stroke-width=".1598"/><path d="m172.186 323.524c4.377-2.5 8.726-4.984 13.047-7.452" stroke="#fff" stroke-width=".1598"/><path d="m172.403 322.676c4.303-2.455 8.578-4.895 12.826-7.318" stroke="#fff" stroke-width=".1598"/><path d="m184.356 315.161-.334 22.149" stroke="#fff" stroke-width=".1598"/><path d="m183.061 315.899-1.024 22.576" stroke="#fff" stroke-width=".1598"/><path d="m181.764 316.639-1.718 23.003" stroke="#fff" stroke-width=".1598"/><path d="m180.464 317.379-2.415 23.435" stroke="#fff" stroke-width=".1598"/><path d="m179.162 318.122-3.116 23.867" stroke="#fff" stroke-width=".1598"/><path d="m177.857 318.866-3.82 24.301" stroke="#fff" stroke-width=".1598"/><path d="m176.55 319.611-4.528 24.738" stroke="#fff" stroke-width=".1598"/><path d="m175.24 320.358-5.239 25.177" stroke="#fff" stroke-width=".1598"/><path d="m173.927 321.106-5.953 25.618" stroke="#fff" stroke-width=".1598"/><path d="m172.45 321.72c5.253-2.762 6.975-3.802 12.62-7.276-8.493-4.8-16.938-9.681-25.426-14.49-5.831 3.376-6.409 3.714-12.756 7.239 8.446 4.965 16.979 9.805 25.562 14.527z" stroke="#fff" stroke-width=".1598"/><path d="m160.902 300.664c-4.83 2.839-7.461 4.376-12.685 7.305" stroke="#fff" stroke-width=".1598"/><path d="m162.113 301.349c-4.802 2.862-7.455 4.447-12.615 7.365" stroke="#fff" stroke-width=".1598"/><path d="m163.283 302.015c-4.774 2.884-7.45 4.514-12.546 7.42" stroke="#fff" stroke-width=".1598"/><path d="m164.419 302.664c-4.746 2.903-7.447 4.578-12.48 7.469" stroke="#fff" stroke-width=".1598"/><path d="m165.529 303.299c-4.72 2.921-7.447 4.637-12.417 7.511" stroke="#fff" stroke-width=".1598"/><path d="m166.617 303.924c-4.695 2.936-7.449 4.693-12.358 7.548" stroke="#fff" stroke-width=".1598"/><path d="m167.692 304.543c-4.672 2.95-7.454 4.744-12.304 7.579" stroke="#fff" stroke-width=".1598"/><path d="m168.76 305.159c-4.651 2.961-7.463 4.791-12.256 7.603" stroke="#fff" stroke-width=".1598"/><path d="m169.828 305.775c-4.632 2.971-7.477 4.834-12.215 7.621" stroke="#fff" stroke-width=".1598"/><path d="m170.902 306.395c-4.616 2.978-7.497 4.872-12.183 7.633" stroke="#fff" stroke-width=".1598"/><path d="m171.99 307.022c-4.603 2.982-7.522 4.906-12.159 7.637" stroke="#fff" stroke-width=".1598"/><path d="m173.097 307.66c-4.593 2.985-7.554 4.935-12.145 7.635" stroke="#fff" stroke-width=".1598"/><path d="m174.231 308.311c-4.587 2.985-7.594 4.96-12.142 7.625" stroke="#fff" stroke-width=".1598"/><path d="m175.398 308.981c-4.585 2.983-7.641 4.98-12.151 7.608" stroke="#fff" stroke-width=".1598"/><path d="m176.606 309.671c-4.586 2.978-7.696 4.994-12.172 7.584" stroke="#fff" stroke-width=".1598"/><path d="m177.86 310.385c-4.593 2.971-7.761 5.004-12.207 7.552" stroke="#fff" stroke-width=".1598"/><path d="m179.168 311.128c-4.604 2.961-7.835 5.008-12.257 7.513" stroke="#fff" stroke-width=".1598"/><path d="m180.537 311.901c-4.621 2.948-7.92 5.008-12.322 7.466" stroke="#fff" stroke-width=".1598"/><path d="m181.972 312.71c-4.643 2.933-8.016 5.002-12.404 7.411" stroke="#fff" stroke-width=".1598"/><path d="m183.481 313.556c-4.671 2.915-8.123 4.99-12.503 7.347" stroke="#fff" stroke-width=".1598"/><path d="m173.174 321.337c-8.542-4.749-17.021-9.636-25.426-14.622" stroke="#fff" stroke-width=".1598"/><path d="m174.503 320.624c-8.489-4.784-16.895-9.735-25.253-14.745" stroke="#fff" stroke-width=".1598"/><path d="m175.797 319.914c-8.464-4.802-16.831-9.791-25.17-14.806" stroke="#fff" stroke-width=".1598"/><path d="m177.072 319.2c-8.459-4.808-16.814-9.811-25.158-14.816" stroke="#fff" stroke-width=".1598"/><path d="m178.34 318.477c-8.469-4.805-16.831-9.806-25.196-14.788" stroke="#fff" stroke-width=".1598"/><path d="m179.615 317.735c-8.455-4.859-16.863-9.78-25.263-14.733" stroke="#fff" stroke-width=".1598"/><path d="m180.912 316.968c-8.476-4.842-16.906-9.749-25.34-14.664" stroke="#fff" stroke-width=".1598"/><path d="m182.244 316.168c-8.494-4.824-16.943-9.717-25.407-14.592" stroke="#fff" stroke-width=".1598"/><path d="m183.626 315.33c-8.502-4.809-16.957-9.691-25.442-14.53" stroke="#fff" stroke-width=".1598"/><path d="m342.001 202.285 9.495 5.622 8.474-4.947 1.113-11.588" stroke="#c82850" stroke-width="1.095"/><path d="m367.624 216.987 9.495 5.622 8.475-4.948 1.112-11.587" stroke="#c82850" stroke-width="1.095"/><path d="m359.97 202.96 25.624 14.701" stroke="#c82850" stroke-width="1.095"/><path d="m367.023 217.398.196-22.14 12.784-7.267 6.21 18.459" stroke="#fff" stroke-width=".6392"/><path d="m341.9 202.329.196-22.14 12.784-7.267 6.211 18.459" stroke="#fff" stroke-width=".6392"/><path d="m342.096 180.189 25.123 15.069" stroke="#fff" stroke-width=".6392"/><path d="m354.88 172.922 25.123 15.069" stroke="#fff" stroke-width=".6392"/><path d="m379.954 188.435c-4.932 2.441-7.74 4.05-12.672 6.923-.101 13.452.031 8.63-.068 22.084 7.643-4.095 11.285-6.62 18.862-10.788-3.437-10.598-3.01-8.028-6.122-18.219z" stroke="#fff" stroke-width=".1598"/><path d="m367.224 215.917c6.222-3.319 12.279-7.108 18.448-10.467" stroke="#fff" stroke-width=".1598"/><path d="m367.233 214.534c6.087-3.241 12.035-6.934 18.073-10.195" stroke="#fff" stroke-width=".1598"/><path d="m367.239 213.277c5.962-3.176 11.809-6.786 17.724-9.963" stroke="#fff" stroke-width=".1598"/><path d="m367.244 212.133c5.844-3.123 11.599-6.661 17.398-9.765" stroke="#fff" stroke-width=".1598"/><path d="m367.247 211.087c5.733-3.08 11.403-6.556 17.094-9.597" stroke="#fff" stroke-width=".1598"/><path d="m367.249 210.122c5.628-3.045 11.218-6.467 16.807-9.453" stroke="#fff" stroke-width=".1598"/><path d="m367.249 209.225c5.528-3.016 11.044-6.392 16.535-9.329" stroke="#fff" stroke-width=".1598"/><path d="m367.249 208.381c5.432-2.992 10.877-6.326 16.275-9.219" stroke="#fff" stroke-width=".1598"/><path d="m367.249 207.573c5.339-2.972 10.716-6.267 16.024-9.12" stroke="#fff" stroke-width=".1598"/><path d="m367.248 206.788c5.248-2.954 10.56-6.211 15.78-9.026" stroke="#fff" stroke-width=".1598"/><path d="m367.247 206.011c5.159-2.935 10.406-6.156 15.538-8.932" stroke="#fff" stroke-width=".1598"/><path d="m367.246 205.227c5.069-2.915 10.252-6.097 15.297-8.833" stroke="#fff" stroke-width=".1598"/><path d="m367.245 204.419c4.978-2.892 10.096-6.032 15.054-8.724" stroke="#fff" stroke-width=".1598"/><path d="m367.245 203.575c4.886-2.863 9.937-5.957 14.805-8.601" stroke="#fff" stroke-width=".1598"/><path d="m367.246 202.678c4.791-2.829 9.772-5.869 14.548-8.459" stroke="#fff" stroke-width=".1598"/><path d="m367.248 201.714c4.692-2.786 9.6-5.765 14.279-8.292" stroke="#fff" stroke-width=".1598"/><path d="m367.251 200.667c4.589-2.734 9.418-5.641 13.997-8.096" stroke="#fff" stroke-width=".1598"/><path d="m367.256 199.523c4.479-2.67 9.225-5.495 13.697-7.865" stroke="#fff" stroke-width=".1598"/><path d="m367.263 198.267c4.363-2.593 9.018-5.323 13.377-7.596" stroke="#fff" stroke-width=".1598"/><path d="m367.271 196.884c4.24-2.501 8.796-5.121 13.034-7.283" stroke="#fff" stroke-width=".1598"/><path d="m379.346 188.738c2.947 10.359 2.544 7.683 5.8 18.431" stroke="#fff" stroke-width=".1598"/><path d="m378.023 189.411c2.601 10.722 2.254 7.817 5.129 18.884" stroke="#fff" stroke-width=".1598"/><path d="m376.685 190.108c2.263 11.082 1.976 7.946 4.479 19.331" stroke="#fff" stroke-width=".1598"/><path d="m375.336 190.827c1.931 11.438 1.706 8.071 3.844 19.77" stroke="#fff" stroke-width=".1598"/><path d="m373.981 191.563c1.602 11.791 1.441 8.189 3.215 20.197" stroke="#fff" stroke-width=".1598"/><path d="m372.624 192.311c1.273 12.138 1.176 8.3 2.587 20.612" stroke="#fff" stroke-width=".1598"/><path d="m371.271 193.069c.941 12.479.907 8.4 1.952 21.01" stroke="#fff" stroke-width=".1598"/><path d="m369.927 193.833c.603 12.812.629 8.49 1.302 21.39" stroke="#fff" stroke-width=".1598"/><path d="m368.595 194.597c.257 13.137.338 8.567.631 21.749" stroke="#fff" stroke-width=".1598"/><path d="m354.841 173.144c-4.932 2.441-7.74 4.05-12.671 6.923-.101 13.452.03 8.63-.069 22.084 7.643-4.095 11.285-6.62 18.862-10.788-3.436-10.598-3.01-8.028-6.122-18.219z" stroke="#fff" stroke-width=".1598"/><path d="m342.112 200.626c6.222-3.318 12.279-7.108 18.448-10.467" stroke="#fff" stroke-width=".1598"/><path d="m342.12 199.243c6.087-3.241 12.035-6.934 18.073-10.195" stroke="#fff" stroke-width=".1598"/><path d="m342.127 197.987c5.962-3.176 11.809-6.786 17.724-9.963" stroke="#fff" stroke-width=".1598"/><path d="m342.132 196.843c5.844-3.123 11.599-6.661 17.398-9.765" stroke="#fff" stroke-width=".1598"/><path d="m342.135 195.796c5.733-3.08 11.403-6.556 17.094-9.597" stroke="#fff" stroke-width=".1598"/><path d="m342.137 194.831c5.628-3.045 11.218-6.467 16.807-9.453" stroke="#fff" stroke-width=".1598"/><path d="m342.137 193.934c5.528-3.016 11.044-6.392 16.535-9.329" stroke="#fff" stroke-width=".1598"/><path d="m342.137 193.09c5.432-2.992 10.877-6.326 16.275-9.219" stroke="#fff" stroke-width=".1598"/><path d="m342.137 192.283c5.339-2.972 10.716-6.267 16.024-9.12" stroke="#fff" stroke-width=".1598"/><path d="m342.136 191.498c5.248-2.954 10.56-6.211 15.78-9.026" stroke="#fff" stroke-width=".1598"/><path d="m342.135 190.721c5.158-2.935 10.406-6.156 15.538-8.932" stroke="#fff" stroke-width=".1598"/><path d="m342.134 189.936c5.069-2.915 10.252-6.097 15.297-8.833" stroke="#fff" stroke-width=".1598"/><path d="m342.133 189.129c4.978-2.892 10.096-6.032 15.054-8.724" stroke="#fff" stroke-width=".1598"/><path d="m342.133 188.284c4.886-2.863 9.937-5.957 14.805-8.601" stroke="#fff" stroke-width=".1598"/><path d="m342.134 187.387c4.791-2.829 9.772-5.869 14.548-8.458" stroke="#fff" stroke-width=".1598"/><path d="m342.136 186.423c4.692-2.786 9.6-5.765 14.279-8.292" stroke="#fff" stroke-width=".1598"/><path d="m342.139 185.376c4.589-2.734 9.418-5.641 13.997-8.096" stroke="#fff" stroke-width=".1598"/><path d="m342.144 184.232c4.479-2.67 9.225-5.495 13.697-7.865" stroke="#fff" stroke-width=".1598"/><path d="m342.151 182.976c4.363-2.593 9.018-5.323 13.377-7.596" stroke="#fff" stroke-width=".1598"/><path d="m342.159 181.593c4.24-2.501 8.797-5.121 13.035-7.283" stroke="#fff" stroke-width=".1598"/><path d="m354.233 173.447c2.947 10.359 2.544 7.683 5.8 18.432" stroke="#fff" stroke-width=".1598"/><path d="m352.911 174.12c2.601 10.722 2.254 7.817 5.129 18.884" stroke="#fff" stroke-width=".1598"/><path d="m351.573 174.818c2.263 11.082 1.976 7.946 4.479 19.331" stroke="#fff" stroke-width=".1598"/><path d="m350.224 175.536c1.931 11.438 1.706 8.071 3.844 19.77" stroke="#fff" stroke-width=".1598"/><path d="m348.868 176.272c1.602 11.791 1.441 8.189 3.216 20.197" stroke="#fff" stroke-width=".1598"/><path d="m347.512 177.021c1.273 12.138 1.176 8.3 2.587 20.612" stroke="#fff" stroke-width=".1598"/><path d="m346.159 177.779c.941 12.479.907 8.4 1.952 21.01" stroke="#fff" stroke-width=".1598"/><path d="m344.814 178.542c.603 12.812.629 8.49 1.302 21.39" stroke="#fff" stroke-width=".1598"/><path d="m343.483 179.306c.257 13.137.338 8.567.631 21.749" stroke="#fff" stroke-width=".1598"/><path d="m355.068 173.037c8.236 5.14 16.559 10.078 24.842 15.137 2.569 7.481 2.097 6.21 6.412 18.273-8.889-4.01-16.904-8.798-25.189-13.924-4.037-13.423-2.135-7.488-6.065-19.486z" stroke="#fff" stroke-width=".1598"/><path d="m360.678 191.01c8.271 5.145 16.295 9.976 25.149 14.054" stroke="#fff" stroke-width=".1598"/><path d="m360.272 189.656c8.254 5.147 16.282 9.998 25.098 14.127" stroke="#fff" stroke-width=".1598"/><path d="m359.91 188.446c8.237 5.136 16.263 9.986 25.037 14.15" stroke="#fff" stroke-width=".1598"/><path d="m359.586 187.363c8.218 5.114 16.239 9.945 24.969 14.132" stroke="#fff" stroke-width=".1598"/><path d="m359.295 186.392c8.198 5.082 16.21 9.881 24.896 14.079" stroke="#fff" stroke-width=".1598"/><path d="m359.032 185.517c8.178 5.043 16.18 9.8 24.82 14.001" stroke="#fff" stroke-width=".1598"/><path d="m358.793 184.721c8.157 4.999 16.148 9.707 24.744 13.905" stroke="#fff" stroke-width=".1598"/><path d="m358.572 183.989c8.138 4.953 16.118 9.607 24.669 13.8" stroke="#fff" stroke-width=".1598"/><path d="m358.365 183.305c8.119 4.906 16.09 9.505 24.598 13.692" stroke="#fff" stroke-width=".1598"/><path d="m358.165 182.653c8.102 4.862 16.066 9.408 24.533 13.59" stroke="#fff" stroke-width=".1598"/><path d="m357.969 182.017c14.153 8.829 13.73 7.901 24.476 13.502" stroke="#fff" stroke-width=".1598"/><path d="m357.771 181.382c14.179 8.801 13.8 7.869 24.429 13.436" stroke="#fff" stroke-width=".1598"/><path d="m357.566 180.73c14.21 8.786 13.879 7.855 24.395 13.4" stroke="#fff" stroke-width=".1598"/><path d="m357.348 180.046c14.247 8.786 13.966 7.864 24.376 13.401" stroke="#fff" stroke-width=".1598"/><path d="m357.114 179.316c14.29 8.804 14.063 7.9 24.374 13.448" stroke="#fff" stroke-width=".1598"/><path d="m356.858 178.521c14.342 8.843 14.172 7.968 24.391 13.549" stroke="#fff" stroke-width=".1598"/><path d="m356.574 177.647c8.084 4.788 16.154 9.28 24.43 13.712" stroke="#fff" stroke-width=".1598"/><path d="m356.259 176.677c8.106 4.839 16.224 9.4 24.492 13.944" stroke="#fff" stroke-width=".1598"/><path d="m355.906 175.596c8.138 4.913 16.314 9.57 24.58 14.253" stroke="#fff" stroke-width=".1598"/><path d="m355.511 174.388c8.181 5.012 16.425 9.794 24.696 14.648" stroke="#fff" stroke-width=".1598"/><path d="m378.756 187.458c2.542 7.689 1.956 6.192 6.167 18.314" stroke="#fff" stroke-width=".1598"/><path d="m377.649 186.778c2.53 7.898 1.837 6.177 5.956 18.357" stroke="#fff" stroke-width=".1598"/><path d="m376.579 186.128c2.53 8.109 1.736 6.164 5.778 18.404" stroke="#fff" stroke-width=".1598"/><path d="m375.541 185.503c2.542 8.321 1.655 6.152 5.631 18.455" stroke="#fff" stroke-width=".1598"/><path d="m374.525 184.896c2.566 8.535 1.59 6.142 5.513 18.508" stroke="#fff" stroke-width=".1598"/><path d="m373.524 184.303c2.602 8.749 1.543 6.134 5.422 18.563" stroke="#fff" stroke-width=".1598"/><path d="m372.531 183.716c2.647 8.964 1.51 6.127 5.356 18.62" stroke="#fff" stroke-width=".1598"/><path d="m371.537 183.13c2.701 9.179 1.491 6.12 5.314 18.68" stroke="#fff" stroke-width=".1598"/><path d="m370.536 182.541c2.764 9.396 1.485 6.115 5.293 18.741" stroke="#fff" stroke-width=".1598"/><path d="m369.518 181.941c2.836 9.613 1.492 6.111 5.293 18.803" stroke="#fff" stroke-width=".1598"/><path d="m368.477 181.325c2.914 9.83 1.509 6.107 5.31 18.866" stroke="#fff" stroke-width=".1598"/><path d="m367.405 180.688c2.999 10.048 1.535 6.104 5.343 18.93" stroke="#fff" stroke-width=".1598"/><path d="m366.293 180.023c3.089 10.265 1.571 6.101 5.391 18.994" stroke="#fff" stroke-width=".1598"/><path d="m365.135 179.326c3.184 10.483 1.613 6.098 5.451 19.059" stroke="#fff" stroke-width=".1598"/><path d="m363.922 178.59c3.284 10.701 1.662 6.095 5.522 19.123" stroke="#fff" stroke-width=".1598"/><path d="m362.647 177.809c3.387 10.918 1.717 6.091 5.601 19.186" stroke="#fff" stroke-width=".1598"/><path d="m361.302 176.978c3.493 11.135 1.775 6.087 5.688 19.249" stroke="#fff" stroke-width=".1598"/><path d="m359.88 176.091c3.601 11.352 1.836 6.082 5.779 19.311" stroke="#fff" stroke-width=".1598"/><path d="m358.372 175.142c3.71 11.568 1.9 6.077 5.873 19.371" stroke="#fff" stroke-width=".1598"/><path d="m356.77 174.126c3.82 11.783 1.964 6.07 5.97 19.43" stroke="#fff" stroke-width=".1598"/></g><path d="m352.467 300.688 9.196 5.344 22.562-13.026-9.196-5.344z" fill="#c82850"/><g enable-background="new"><path d="m376.805 289.206-.019 5.819.939.542.018-5.819z" fill="#f0be5a"/><path d="m377.725 295.567.755-.439.019-5.819-.756.439z" fill="#dcaa46"/><path d="m377.743 289.748.756-.439-.939-.542-.755.439z" fill="#dbb458"/></g><g enable-background="new"><path d="m361.303 298.247-.019 5.819.939.542.019-5.819z" fill="#f0be5a"/><path d="m362.223 304.608.755-.439.019-5.819-.755.439z" fill="#dcaa46"/><path d="m362.242 298.789.755-.439-.939-.542-.755.439z" fill="#dbb458"/></g><g enable-background="new"><path d="m354.67 295.196-.011 4.632.939.542.011-4.632z" fill="#f0be5a"/><path d="m355.598 300.37.755-.439.011-4.632-.755.439z" fill="#dcaa46"/><path d="m355.609 295.738.755-.439-.939-.542-.755.439z" fill="#dbb458"/></g><g enable-background="new"><path d="m354.317 294.435 7.173 4.169 17.6-10.161-7.173-4.169z" fill="#ffd166"/><path d="m354.317 294.435.002.655 7.173 4.169-.002-.655z" fill="#f0be5a"/><path d="m361.49 298.604.002.655 17.6-10.161-.002-.655z" fill="#dcaa46"/></g><path d="m377.466 285.398 9.196 5.344 22.562-13.026-9.196-5.344z" fill="#c82850"/><g enable-background="new"><path d="m401.804 273.916-.019 5.819.939.542.019-5.819z" fill="#f0be5a"/><path d="m402.724 280.277.755-.438.019-5.819-.755.438z" fill="#dcaa46"/><path d="m402.743 274.458.755-.438-.939-.542-.755.438z" fill="#dbb458"/></g><g enable-background="new"><path d="m386.303 282.957-.019 5.819.939.542.018-5.819z" fill="#f0be5a"/><path d="m387.223 289.318.755-.439.019-5.819-.756.439z" fill="#dcaa46"/><path d="m387.241 283.499.756-.439-.939-.542-.755.439z" fill="#dbb458"/></g><g enable-background="new"><path d="m379.669 279.906-.011 4.632.939.542.011-4.632z" fill="#f0be5a"/><path d="m380.597 285.08.755-.439.011-4.632-.755.439z" fill="#dcaa46"/><path d="m380.608 280.448.755-.439-.939-.542-.755.439z" fill="#dbb458"/></g><g enable-background="new"><path d="m379.316 279.145 7.174 4.169 17.6-10.161-7.174-4.169z" fill="#ffd166"/><path d="m379.316 279.145.002.655 7.174 4.169-.002-.655z" fill="#f0be5a"/><path d="m386.49 283.314.002.655 17.599-10.161-.001-.655z" fill="#dcaa46"/></g><g enable-background="new"><path d="m98.224 275.166 31.477-18.292 3.173 1.832-31.477 18.292z" fill="#ffd166"/><path d="m101.397 276.998 31.477-18.292-.012 4-31.477 18.292z" fill="#dcaa46"/><path d="m98.235 271.166 31.477-18.293-.011 4.001-31.477 18.292z" fill="#dcaa46"/><path d="m94.748 269.153 31.478-18.293 3.486 2.013-31.477 18.293z" fill="#ffd166"/><path d="m91.942 263.526 31.477-18.293 2.818 1.627-31.477 18.292z" fill="#ffd166"/><path d="m94.76 265.152 31.477-18.292-.011 4-31.478 18.293z" fill="#dcaa46"/><path d="m88.495 257.529 31.477-18.293 3.458 1.997-31.477 18.292z" fill="#ffd166"/><path d="m91.953 259.525 31.477-18.292-.011 4-31.477 18.293z" fill="#dcaa46"/><path d="m78.747 247.893 31.477-18.292 9.76 5.635-31.477 18.292z" fill="#ffd166"/><path d="m88.507 253.528 31.477-18.292-.012 4-31.477 18.293z" fill="#dcaa46"/><path d="m88.507 253.528-.012 4.001 3.458 1.996-.011 4.001 2.818 1.626-.012 4.001 3.487 2.013-.011 4 3.173 1.832-.012 4-22.695-13.103.057-20.002z" fill="#f0be5a"/></g><path d="m78.69 267.895 24.415 16.869 35.243-20.472-5.486-1.586-31.477 18.292z" fill="#c82850"/><g enable-background="new"><path d="m177.487 154.197-.007 2.393-7.145-4.125.007-2.393z" fill="#bbbcbf"/><path d="m177.487 154.197 4.315-2.508-.006 2.393-4.316 2.508z" fill="#d0d1d3"/><path d="m170.342 150.072 4.316-2.508 7.144 4.125-4.315 2.508z" fill="#e6e6e7"/></g><g enable-background="new"><path d="m168.032 147.251 1.618-.94-.162 57.294-1.619.941z" fill="#d0d1d3"/><path d="m177.173 151.696-.003.831-9.138-5.276-.163 57.295-1.539-.889.165-58.126z" fill="#bbbcbf"/><path d="m177.173 151.696 1.618-.94-.002.831-1.619.94z" fill="#d0d1d3"/><path d="m166.495 145.531 1.618-.94 10.678 6.165-1.618.94z" fill="#e6e6e7"/></g><path d="m200.201 215.259 1.798-1.017-32.511-10.637-1.619.941z" fill="#c82850"/><g enable-background="new"><path d="m202.948 139.796-.007 2.392-7.145-4.125.007-2.392z" fill="#bbbcbf"/><path d="m202.948 139.796 4.316-2.508-.007 2.392-4.316 2.508z" fill="#d0d1d3"/><path d="m195.803 135.671 4.316-2.508 7.145 4.125-4.316 2.508z" fill="#e6e6e7"/></g><g enable-background="new"><path d="m193.493 132.85 1.618-.941-.162 57.295-1.619.941z" fill="#d0d1d3"/><path d="m202.634 137.295-.002.831-9.139-5.276-.163 57.295-1.539-.889.165-58.126z" fill="#bbbcbf"/><path d="m202.634 137.295 1.618-.941-.002.831-1.618.941z" fill="#d0d1d3"/><path d="m191.956 131.13 1.618-.941 10.678 6.165-1.618.941z" fill="#e6e6e7"/></g><path d="m225.662 200.858 1.798-1.018-32.511-10.636-1.619.941z" fill="#c82850"/><g enable-background="new"><path d="m447.26 202.391.007 2.392 7.145-4.125-.007-2.392z" fill="#bbbcbf"/><path d="m447.26 202.391-4.315-2.508.006 2.392 4.316 2.508z" fill="#d0d1d3"/><path d="m454.405 198.266-4.316-2.508-7.144 4.125 4.315 2.508z" fill="#e6e6e7"/></g><g enable-background="new"><path d="m456.715 195.444-1.618-.94.162 57.295 1.619.94z" fill="#d0d1d3"/><path d="m447.574 199.889.003.832 9.138-5.277.163 57.295 1.539-.889-.165-58.125z" fill="#bbbcbf"/><path d="m447.574 199.889-1.618-.94.002.831 1.619.941z" fill="#d0d1d3"/><path d="m458.252 193.725-1.618-.941-10.678 6.165 1.618.94z" fill="#e6e6e7"/></g><path d="m424.546 263.453-1.798-1.018 32.511-10.636 1.619.94z" fill="#c82850"/><path d="m203.123 210.71 9.196 5.345 22.561-13.027-9.196-5.344z" fill="#c82850"/><g enable-background="new"><path d="m227.46 199.229-.019 5.819.939.542.019-5.819z" fill="#f0be5a"/><path d="m228.38 205.59.755-.439.019-5.819-.755.439z" fill="#dcaa46"/><path d="m228.399 199.771.755-.439-.939-.542-.755.439z" fill="#dbb458"/></g><g enable-background="new"><path d="m211.959 208.269-.019 5.819.939.542.019-5.819z" fill="#f0be5a"/><path d="m212.879 214.63.755-.439.019-5.819-.755.439z" fill="#dcaa46"/><path d="m212.898 208.811.755-.439-.939-.542-.755.439z" fill="#dbb458"/></g><g enable-background="new"><path d="m205.325 205.218-.011 4.632.939.542.011-4.632z" fill="#f0be5a"/><path d="m206.253 210.392.755-.439.011-4.631-.755.438z" fill="#dcaa46"/><path d="m206.264 205.76.755-.438-.939-.543-.755.439z" fill="#dbb458"/></g><g enable-background="new"><path d="m204.972 204.457 7.174 4.169 17.6-10.161-7.174-4.169z" fill="#ffd166"/><path d="m204.972 204.457.002.656 7.174 4.168-.002-.655z" fill="#f0be5a"/><path d="m212.146 208.626.002.655 17.6-10.161-.002-.655z" fill="#dcaa46"/></g><path d="m229.154 195.381 9.196 5.344 22.562-13.026-9.196-5.344z" fill="#c82850"/><g enable-background="new"><path d="m253.492 183.899-.019 5.819.939.542.019-5.819z" fill="#f0be5a"/><path d="m254.412 190.26.755-.438.019-5.82-.755.439z" fill="#dcaa46"/><path d="m254.431 184.441.755-.439-.939-.542-.755.439z" fill="#dbb458"/></g><g enable-background="new"><path d="m237.99 192.94-.018 5.819.938.542.019-5.819z" fill="#f0be5a"/><path d="m238.91 199.301.756-.439.018-5.819-.755.439z" fill="#dcaa46"/><path d="m238.929 193.482.755-.439-.939-.542-.755.439z" fill="#dbb458"/></g><g enable-background="new"><path d="m231.357 189.889-.011 4.632.939.542.011-4.632z" fill="#f0be5a"/><path d="m232.285 195.063.755-.439.011-4.632-.755.439z" fill="#dcaa46"/><path d="m232.296 190.431.755-.439-.939-.542-.755.439z" fill="#dbb458"/></g><g enable-background="new"><path d="m231.004 189.128 7.174 4.169 17.599-10.161-7.173-4.169z" fill="#ffd166"/><path d="m231.004 189.128.002.655 7.173 4.169-.001-.655z" fill="#f0be5a"/><path d="m238.178 193.297.001.655 17.6-10.161-.002-.655z" fill="#dcaa46"/></g><path d="m255.145 180.192 9.196 5.344 22.562-13.026-9.196-5.344z" fill="#c82850"/><g enable-background="new"><path d="m279.482 168.71-.018 5.819.938.543.019-5.82z" fill="#f0be5a"/><path d="m280.402 175.072.756-.439.018-5.819-.755.438z" fill="#dcaa46"/><path d="m280.421 169.252.755-.438-.939-.543-.755.439z" fill="#dbb458"/></g><g enable-background="new"><path d="m263.981 177.751-.019 5.819.939.542.019-5.819z" fill="#f0be5a"/><path d="m264.901 184.112.755-.439.019-5.819-.755.439z" fill="#dcaa46"/><path d="m264.92 178.293.755-.439-.939-.542-.755.439z" fill="#dbb458"/></g><g enable-background="new"><path d="m257.347 174.7-.011 4.632.939.542.011-4.632z" fill="#f0be5a"/><path d="m258.275 179.874.756-.439.01-4.632-.755.439z" fill="#dcaa46"/><path d="m258.286 175.242.755-.439-.938-.542-.756.439z" fill="#dbb458"/></g><g enable-background="new"><path d="m256.995 173.939 7.173 4.169 17.6-10.161-7.174-4.169z" fill="#ffd166"/><path d="m256.995 173.939.001.655 7.174 4.169-.002-.655z" fill="#f0be5a"/><path d="m264.168 178.108.002.655 17.6-10.161-.002-.655z" fill="#dcaa46"/></g><path d="m83.129 280.997-23.056 13.399-23.203-13.396 23.056-13.399z" fill="#c82850"/><path d="m54.756 234.105c.065-.294-.096-.603-.488-.829-.669-.386-1.751-.386-2.415 0-.387.225-.546.531-.48.823-.019.084 0 49.172 0 49.83-.065.294.097.602.488.829.669.386 1.75.386 2.415 0 .386-.224.545-.53.48-.823 0-1.057.019-49.746 0-49.83z" fill="#dcaa46"/><g enable-background="new"><path d="m69.199 253.654-14.854 8.632-14.951-8.632 14.854-8.632z" fill="#82d6a0"/><path d="m69.199 253.654-.008 2.496-14.853 8.632.007-2.496z" fill="#5ab478"/><path d="m54.345 262.286-.007 2.496-14.951-8.632.007-2.496z" fill="#46a06e"/></g><g enable-background="new"><path d="m75.552 243.483-21.859 12.703-22.003-12.703 21.86-12.703z" fill="#82d6a0"/><path d="m75.552 243.483-.011 3.673-21.859 12.703.011-3.673z" fill="#5ab478"/><path d="m53.693 256.186-.011 3.673-22.002-12.703.01-3.673z" fill="#46a06e"/></g><g enable-background="new"><path d="m70.394 231.069-16.708 9.71-16.816-9.708 16.709-9.71z" fill="#82d6a0"/><path d="m70.394 231.069-.031 11.019-16.709 9.71.032-11.019z" fill="#5ab478"/><path d="m53.686 240.779-.032 11.019-16.815-9.708.031-11.019z" fill="#46a06e"/></g><g enable-background="new"><path d="m60.88 226.615-7.231 4.203-7.278-4.203 7.231-4.202z" fill="#82d6a0"/><path d="m60.88 226.615-.013 4.769-7.231 4.203.013-4.769z" fill="#5ab478"/><path d="m53.649 230.818-.013 4.769-7.279-4.202.014-4.77z" fill="#46a06e"/></g><path d="m36.839 242.09 11.115 10.783 5.739 3.313 21.859-12.703-5.184-2.993-.005 1.598-16.709 9.71z" fill="#6ebe78"/><path d="m46.357 231.385 3.646 7.268 3.683 2.126 16.708-9.71-9.514-2.951-.013 3.266-7.231 4.203z" fill="#6ebe78"/><path d="m41.158 252.629 10.572 8.148 2.615 1.509 14.854-8.632-2.208-1.275-13.309 7.48z" fill="#6ebe78"/><path d="m51.359 269.153 3.399 8.968.012-13.591-.432.252-2.979-1.72z" fill="#c89632"/><path d="m290.857 148.695-19.739 11.47-19.863-11.468 19.738-11.47z" fill="#c82850"/><path d="m266.567 108.551c.056-.252-.082-.516-.418-.709-.573-.331-1.499-.33-2.067 0-.331.192-.467.454-.411.705-.016.072 0 42.096 0 42.66-.056.252.083.516.418.71.573.331 1.498.331 2.067 0 .331-.192.467-.454.411-.705 0-.907.016-42.589 0-42.661z" fill="#dcaa46"/><g enable-background="new"><path d="m278.931 125.286-12.717 7.39-12.799-7.39 12.716-7.39z" fill="#82d6a0"/><path d="m278.931 125.286-.006 2.137-12.717 7.39.006-2.137z" fill="#5ab478"/><path d="m266.214 132.676-.006 2.137-12.799-7.39.006-2.137z" fill="#46a06e"/></g><g enable-background="new"><path d="m284.37 116.579-18.714 10.875-18.836-10.875 18.714-10.875z" fill="#82d6a0"/><path d="m284.37 116.579-.009 3.145-18.714 10.875.009-3.145z" fill="#5ab478"/><path d="m265.656 127.454-.009 3.145-18.836-10.875.009-3.145z" fill="#46a06e"/></g><g enable-background="new"><path d="m279.954 105.951-14.304 8.313-14.395-8.311 14.304-8.313z" fill="#82d6a0"/><path d="m279.954 105.951-.026 9.434-14.305 8.313.027-9.434z" fill="#5ab478"/><path d="m265.65 114.264-.027 9.434-14.395-8.312.027-9.433z" fill="#46a06e"/></g><g enable-background="new"><path d="m271.809 102.139-6.19 3.597-6.231-3.597 6.19-3.598z" fill="#82d6a0"/><path d="m271.809 102.139-.011 4.082-6.191 3.598.012-4.083z" fill="#5ab478"/><path d="m265.619 105.736-.012 4.083-6.231-3.598.012-4.082z" fill="#46a06e"/></g><path d="m251.228 115.386 9.515 9.232 4.913 2.836 18.714-10.875-4.438-2.562-.004 1.368-14.305 8.313z" fill="#6ebe78"/><path d="m259.376 106.221 3.122 6.223 3.152 1.82 14.304-8.313-8.145-2.526-.011 2.796-6.191 3.598z" fill="#6ebe78"/><path d="m254.925 124.409 9.051 6.975 2.238 1.292 12.717-7.39-1.89-1.091-11.394 6.404z" fill="#6ebe78"/><path d="m263.658 138.555 2.91 7.678.011-11.635-.371.215-2.55-1.472z" fill="#c89632"/><path d="m308.223 158.457-15.074 8.76-15.171-8.758 15.075-8.76z" fill="#c82850"/><path d="m289.672 127.798c.043-.192-.063-.394-.319-.542-.438-.253-1.145-.252-1.579 0-.253.147-.357.347-.314.538-.012.055 0 32.15 0 32.58-.043.192.063.394.319.542.437.253 1.144.252 1.579 0 .253-.147.356-.347.314-.538 0-.691.013-32.525 0-32.58z" fill="#dcaa46"/><g enable-background="new"><path d="m299.115 140.58-9.711 5.643-9.776-5.643 9.712-5.644z" fill="#82d6a0"/><path d="m299.115 140.58-.004 1.632-9.712 5.643.005-1.632z" fill="#5ab478"/><path d="m289.404 146.223-.005 1.632-9.775-5.643.004-1.632z" fill="#46a06e"/></g><g enable-background="new"><path d="m303.269 133.93-14.292 8.305-14.385-8.305 14.292-8.306z" fill="#82d6a0"/><path d="m303.269 133.93-.007 2.401-14.292 8.306.007-2.402z" fill="#5ab478"/><path d="m288.977 142.235-.007 2.402-14.385-8.306.007-2.401z" fill="#46a06e"/></g><g enable-background="new"><path d="m299.897 125.813-10.924 6.349-10.995-6.348 10.925-6.348z" fill="#82d6a0"/><path d="m299.897 125.813-.02 7.205-10.925 6.348.021-7.204z" fill="#5ab478"/><path d="m288.973 132.162-.021 7.204-10.994-6.347.02-7.205z" fill="#46a06e"/></g><g enable-background="new"><path d="m293.677 122.901-4.728 2.748-4.759-2.747 4.728-2.748z" fill="#82d6a0"/><path d="m293.677 122.901-.009 3.119-4.728 2.747.009-3.118z" fill="#5ab478"/><path d="m288.949 125.649-.009 3.118-4.759-2.747.009-3.118z" fill="#46a06e"/></g><path d="m277.958 133.019 7.267 7.05 3.752 2.166 14.292-8.305-3.39-1.957-.002 1.045-10.925 6.348z" fill="#6ebe78"/><path d="m284.181 126.02 2.384 4.752 2.408 1.39 10.924-6.349-6.22-1.929-.009 2.136-4.728 2.747z" fill="#6ebe78"/><path d="m280.782 139.909 6.912 5.328 1.71.986 9.711-5.643-1.443-.834-8.702 4.891z" fill="#6ebe78"/><path d="m287.451 150.713 2.223 5.864.008-8.886-.283.164-1.948-1.124z" fill="#c89632"/><path d="m95.138 295.887-15.98 9.286-16.081-9.285 15.979-9.286z" fill="#c82850"/><path d="m75.473 263.386c.045-.204-.067-.418-.338-.574-.464-.268-1.214-.267-1.674 0-.268.156-.378.368-.333.57-.013.058 0 34.08 0 34.536-.045.204.067.418.339.574.464.268 1.213.268 1.673 0 .268-.156.378-.368.333-.57 0-.732.013-34.477 0-34.536z" fill="#dcaa46"/><g enable-background="new"><path d="m85.483 276.935-10.295 5.983-10.362-5.983 10.295-5.982z" fill="#82d6a0"/><path d="m85.483 276.935-.005 1.73-10.295 5.983.005-1.73z" fill="#5ab478"/><path d="m75.188 282.918-.005 1.73-10.362-5.983.005-1.73z" fill="#46a06e"/></g><g enable-background="new"><path d="m89.886 269.886-15.15 8.804-15.249-8.804 15.15-8.804z" fill="#82d6a0"/><path d="m89.886 269.886-.007 2.546-15.15 8.804.007-2.546z" fill="#5ab478"/><path d="m74.736 278.69-.007 2.546-15.25-8.804.008-2.546z" fill="#46a06e"/></g><g enable-background="new"><path d="m86.312 261.282-11.581 6.73-11.654-6.729 11.58-6.73z" fill="#82d6a0"/><path d="m86.312 261.282-.022 7.637-11.581 6.73.022-7.637z" fill="#5ab478"/><path d="m74.731 268.012-.022 7.637-11.654-6.728.022-7.638z" fill="#46a06e"/></g><g enable-background="new"><path d="m79.718 258.195-5.012 2.913-5.045-2.912 5.012-2.913z" fill="#82d6a0"/><path d="m79.718 258.195-.01 3.306-5.011 2.912.009-3.305z" fill="#5ab478"/><path d="m74.706 261.108-.009 3.305-5.045-2.912.009-3.305z" fill="#46a06e"/></g><path d="m63.055 268.921 7.704 7.473 3.977 2.296 15.15-8.804-3.593-2.074-.003 1.107-11.581 6.73z" fill="#6ebe78"/><path d="m69.652 261.501 2.527 5.038 2.552 1.473 11.581-6.73-6.594-2.045-.01 2.264-5.011 2.912z" fill="#6ebe78"/><path d="m66.049 276.225 7.327 5.647 1.812 1.046 10.295-5.983-1.53-.883-9.224 5.184z" fill="#6ebe78"/><path d="m73.119 287.677 2.355 6.216.009-9.419-.3.174-2.064-1.192z" fill="#c89632"/></svg>