<svg enable-background="new 0 0 750 500" viewBox="0 0 750 500" xmlns="http://www.w3.org/2000/svg"><path d="m66.831 357.818c-5.507 5.507-11.49 8.454-13.361 6.582-1.872-1.872 1.075-7.854 6.583-13.362 5.507-5.507 11.489-8.454 13.361-6.582s-1.076 7.854-6.583 13.362z" fill="#bedbf7"/><path d="m90.999 257.089c-17.901 17.901-33.838 30.986-35.597 29.226-1.759-1.759 11.326-17.697 29.226-35.598s33.838-30.986 35.598-29.226-11.327 17.697-29.227 35.598z" fill="#bedbf7"/><path d="m670.403 357.552h-113.941c-6.111 0-11.065-4.954-11.065-11.065v-153.05c0-6.111 4.954-11.065 11.065-11.065h113.941c6.111 0 11.065 4.954 11.065 11.065v153.05c0 6.111-4.954 11.065-11.065 11.065z" fill="none" stroke="#bedbf7" stroke-miterlimit="10" stroke-width="1.0668"/><path d="m354.886 219.867h-223.368c-6.15 0-11.135-4.985-11.135-11.135v-106.89c0-6.15 4.985-11.135 11.135-11.135h223.367c6.15 0 11.135 4.985 11.135 11.135v106.89c0 6.15-4.985 11.135-11.134 11.135z" fill="none" stroke="#bedbf7" stroke-miterlimit="10" stroke-width="1.0668"/><path d="m361.517 127.031c-159.29 0-288.419 129.13-288.419 288.419 0 .369.013.735.014 1.104h576.81c.001-.369.014-.735.014-1.104 0-159.289-129.129-288.419-288.419-288.419z" fill="#ffcc40"/><path d="m674.349 326.141s-2 3.967 1.2 17.086c3.201 13.118.8 18.46-4.801 26.591s-22.203 25.533-21.203 46.737h-31.99s5.786-14.202 7.387-27.604c1.6-13.402 9.849-21.403 22.327-27.804 12.477-6.402 16.478-30.806 27.08-35.006z" fill="#57a845"/><path d="m674.349 326.141s-7.401 6.368-8.401 17.086-2.6 18.919-12.002 28.121c-9.401 9.201-20.603 23.003-20.603 45.207" fill="none" stroke="#283847" stroke-miterlimit="10" stroke-width="1.2169"/><path d="m653.636 355.718c-1.881 2.293-3.966 4.196-6.368 5.428-12.478 6.401-20.727 14.402-22.327 27.804s-7.387 27.604-7.387 27.604h31.99c-.525-11.127 3.799-21.205 8.836-29.448-1.994-10.873-4.311-22.737-4.744-31.388z" fill="#283847"/><path d="m674.349 228.426s-2.4 4.201 0 15.002c2.4 10.802 3.867 24.304-1.067 30.305s-12.435 13.202-15.136 25.804c-2.7 12.602 3.601 21.603-3 32.405s-12.902 12.453-14.102 26.929c-1.2 14.477 9.901 28.279-16.503 57.683h-59.955s18.849-35.405 24.249-54.008c5.401-18.603.9-27.304 9.301-40.056s20.103-8.868 25.204-20.711 5.101-22.045 12.302-29.546 18.903-10.502 23.529-22.016c4.475-11.137 11.277-19.991 15.178-21.791z" fill="#57a845"/><path d="m674.349 228.426c-9.198 10.099-9.601 22.703-10.201 31.905-.6 9.201-14.402 12.202-19.203 24.504s-4.201 23.762-9.902 34.234c-5.701 10.473-14.702 11.673-21.003 26.075s3.301 47.407-19.203 71.411" fill="none" stroke="#283847" stroke-miterlimit="10" stroke-width="1.2169"/><ellipse cx="483.332" cy="182.219" fill="#ff9d38" rx="108.775" ry="108.775" transform="matrix(.7071 -.7071 .7071 .7071 12.7164 395.1378)"/><path d="m584.24 102.651c-22.512 0-40.762 18.25-40.762 40.761 0 4.505.742 8.835 2.091 12.886l-20.406 22.674 28.042-9.148c7.477 8.776 18.601 14.349 31.034 14.349 22.512 0 40.761-18.25 40.761-40.762.001-22.51-18.248-40.76-40.76-40.76z" fill="#ffcc40"/><path d="m580.238 161.584c-.804 0-1.607-.307-2.221-.92l-19.777-19.777c-1.227-1.226-1.227-3.215 0-4.441 1.227-1.227 3.214-1.227 4.441 0l17.557 17.556 25.561-25.559c1.227-1.227 3.214-1.227 4.441 0 1.227 1.226 1.227 3.215 0 4.441l-27.781 27.781c-.614.612-1.418.919-2.221.919z" fill="#57a845"/><path d="m99.176 228.426s2.4 4.201 0 15.002c-2.4 10.802-3.867 24.304 1.067 30.305s12.435 13.202 15.136 25.804c2.7 12.602-3.601 21.603 3 32.405s12.902 12.453 14.102 26.929c1.2 14.477-9.902 28.279 16.503 57.683h59.955s-18.849-35.405-24.249-54.008c-5.401-18.603-.9-27.304-9.301-40.056s-20.103-8.868-25.204-20.711-5.101-22.045-12.302-29.546-18.903-10.502-23.529-22.016c-4.476-11.137-11.277-19.991-15.178-21.791z" fill="#57a845"/><path d="m132.481 358.871c1.2 14.477-9.902 28.279 16.503 57.683h59.955s-18.849-35.405-24.249-54.008c-5.401-18.603-.9-27.304-9.301-40.056s-20.103-8.868-25.204-20.711-5.101-22.045-12.302-29.546c-.992-1.033-2.074-1.976-3.206-2.872-.124 21.125-4.384 55.286-6.254 76.104 2.052 3.249 3.537 7.117 4.058 13.406z" fill="#283847"/><path d="m99.176 228.426c9.198 10.099 9.601 22.703 10.201 31.905.6 9.201 14.402 12.202 19.203 24.504s4.201 23.762 9.902 34.234c5.701 10.473 14.702 11.673 21.003 26.075s-3.301 47.407 19.203 71.411" fill="none" stroke="#283847" stroke-miterlimit="10" stroke-width="1.2169"/><path d="m414.464 358.871h-266.513c-5.945 0-10.765-4.82-10.765-10.765v-213.03c0-5.946 4.82-10.765 10.765-10.765h266.513c5.945 0 10.765 4.82 10.765 10.765v213.03c0 5.945-4.82 10.765-10.765 10.765z" fill="#fff"/><path d="m341.817 154.142v204.729h72.647c5.945 0 10.765-4.82 10.765-10.765v-193.964z" fill="#e4eef7"/><text fill="#3a65c9" font-family="Montserrat-Bold" font-size="12.802" transform="translate(355.7755 189.1204)">AUGUST</text><path d="m356.803 219.867c0 1.901-1.541 3.443-3.443 3.443-1.901 0-3.443-1.541-3.443-3.443 0-1.901 1.541-3.443 3.443-3.443s3.443 1.541 3.443 3.443z" fill="none" stroke="#3a65c9" stroke-miterlimit="10" stroke-width="1.0668"/><path d="m361.82 219.867h51.658" fill="none" stroke="#3a65c9" stroke-miterlimit="10" stroke-width="1.0668"/><circle cx="353.361" cy="247.706" fill="none" r="3.443" stroke="#3a65c9" stroke-miterlimit="10" stroke-width="1.0668"/><path d="m361.82 247.706h51.658" fill="none" stroke="#3a65c9" stroke-miterlimit="10" stroke-width="1.0668"/><circle cx="353.361" cy="275.545" fill="none" r="3.443" stroke="#3a65c9" stroke-miterlimit="10" stroke-width="1.0668"/><path d="m361.82 275.545h51.658" fill="none" stroke="#3a65c9" stroke-miterlimit="10" stroke-width="1.0668"/><ellipse cx="186.802" cy="205.719" fill="none" rx="8.939" ry="8.939" stroke="#3a65c9" stroke-miterlimit="10" stroke-width="1.001" transform="matrix(.1561 -.9877 .9877 .1561 -45.5525 358.1231)"/><ellipse cx="213.677" cy="205.719" fill="none" rx="8.939" ry="8.939" stroke="#3a65c9" stroke-miterlimit="10" stroke-width="1.001" transform="matrix(.7071 -.7071 .7071 .7071 -82.8811 211.3461)"/><ellipse cx="240.552" cy="205.719" fill="none" rx="8.939" ry="8.939" stroke="#3a65c9" stroke-miterlimit="10" stroke-width="1.001" transform="matrix(.2289 -.9735 .9735 .2289 -14.7636 392.8015)"/><ellipse cx="267.426" cy="205.719" fill="none" rx="8.939" ry="8.939" stroke="#3a65c9" stroke-miterlimit="10" stroke-width="1.001" transform="matrix(.1597 -.9872 .9872 .1597 21.6305 436.8509)"/><ellipse cx="294.301" cy="205.719" fill="none" rx="8.939" ry="8.939" stroke="#3a65c9" stroke-miterlimit="10" stroke-width="1.001" transform="matrix(.1597 -.9872 .9872 .1597 44.2125 463.3807)"/><ellipse cx="321.176" cy="205.719" fill="none" rx="8.939" ry="8.939" stroke="#3a65c9" stroke-miterlimit="10" stroke-width="1.001" transform="matrix(.1629 -.9866 .9866 .1629 65.8759 489.0856)"/><circle cx="159.927" cy="236.905" fill="none" r="8.939" stroke="#3a65c9" stroke-miterlimit="10" stroke-width="1.001"/><circle cx="186.802" cy="236.905" fill="none" r="8.939" stroke="#3a65c9" stroke-miterlimit="10" stroke-width="1.001"/><circle cx="213.677" cy="236.905" fill="none" r="8.939" stroke="#3a65c9" stroke-miterlimit="10" stroke-width="1.001"/><circle cx="240.552" cy="236.905" fill="#ff5521" r="8.939"/><g fill="none" stroke-miterlimit="10"><circle cx="267.426" cy="236.905" r="8.939" stroke="#3a65c9" stroke-width="1.001"/><circle cx="294.301" cy="236.905" r="8.939" stroke="#3a65c9" stroke-width="1.001"/><circle cx="321.176" cy="236.905" r="8.939" stroke="#3a65c9" stroke-width="1.001"/><circle cx="159.927" cy="268.091" r="8.939" stroke="#3a65c9" stroke-width="1.001"/><circle cx="186.802" cy="268.091" r="8.939" stroke="#3a65c9" stroke-width="1.001"/><circle cx="213.677" cy="268.091" r="8.939" stroke="#3a65c9" stroke-width="1.001"/><circle cx="240.552" cy="268.091" r="8.939" stroke="#3a65c9" stroke-width="1.001"/><circle cx="267.426" cy="268.091" r="8.939" stroke="#3a65c9" stroke-width="1.001"/><circle cx="294.301" cy="268.091" r="8.939" stroke="#3a65c9" stroke-width="1.001"/><circle cx="321.176" cy="268.091" r="8.939" stroke="#3a65c9" stroke-width="1.001"/><ellipse cx="159.927" cy="299.277" rx="8.939" ry="8.939" stroke="#3a65c9" stroke-width="1.001" transform="matrix(.9239 -.3827 .3827 .9239 -102.3549 83.9827)"/><ellipse cx="186.802" cy="299.277" rx="8.939" ry="8.939" stroke="#3a65c9" stroke-width="1.001" transform="matrix(.9315 -.3637 .3637 .9315 -96.0636 88.448)"/><ellipse cx="213.677" cy="299.277" rx="8.939" ry="8.939" stroke="#3a65c9" stroke-width="1.001" transform="matrix(.2306 -.973 .973 .2306 -126.8138 438.1691)"/><ellipse cx="240.552" cy="299.277" rx="8.939" ry="8.939" stroke="#3a65c9" stroke-width="1.001" transform="matrix(.7071 -.7071 .7071 .7071 -141.1651 257.7519)"/><ellipse cx="267.426" cy="299.277" rx="8.939" ry="8.939" stroke="#3a65c9" stroke-width="1.001" transform="matrix(.9247 -.3806 .3806 .9247 -93.7796 124.3086)"/><ellipse cx="294.301" cy="299.277" rx="8.939" ry="8.939" stroke="#3a65c9" stroke-width="1.001" transform="matrix(.9247 -.3806 .3806 .9247 -91.7569 134.5374)"/><ellipse cx="321.176" cy="299.277" rx="8.939" ry="8.939" stroke="#3a65c9" stroke-width="1.001" transform="matrix(.9184 -.3957 .3957 .9184 -92.2032 151.4987)"/><circle cx="159.927" cy="330.463" r="8.939" stroke="#3a65c9" stroke-width="1.001"/><circle cx="186.802" cy="330.463" r="8.939" stroke="#3a65c9" stroke-width="1.001"/><circle cx="213.677" cy="330.463" r="8.939" stroke="#3a65c9" stroke-width="1.001"/></g><path d="m156.204 181.336.704-1.561c.755.55 1.881.934 2.956.934 1.228 0 1.727-.41 1.727-.96 0-1.676-5.207-.525-5.207-3.851 0-1.523 1.228-2.789 3.774-2.789 1.126 0 2.277.268 3.109.793l-.64 1.574c-.831-.474-1.689-.704-2.482-.704-1.228 0-1.702.461-1.702 1.024 0 1.65 5.208.512 5.208 3.8 0 1.497-1.241 2.776-3.8 2.776-1.421 0-2.854-.422-3.647-1.036z" fill="#ff5521"/><path d="m189.904 182.219-.013-5.374-2.635 4.427h-.934l-2.623-4.312v5.259h-1.945v-8.957h1.714l3.352 5.566 3.302-5.566h1.701l.026 8.957z" fill="#3a65c9"/><path d="m212.64 174.951h-2.866v-1.689h7.805v1.689h-2.866v7.268h-2.073z" fill="#3a65c9"/><path d="m247.71 173.262-2.93 8.957h-2.226l-1.971-6.065-2.034 6.065h-2.213l-2.943-8.957h2.15l2.022 6.295 2.111-6.295h1.919l2.047 6.346 2.086-6.346z" fill="#3a65c9"/><path d="m266.39 174.951h-2.866v-1.689h7.805v1.689h-2.866v7.268h-2.073z" fill="#3a65c9"/><path d="m292.99 174.926v2.367h4.145v1.664h-4.145v3.262h-2.073v-8.957h6.768v1.663h-4.695z" fill="#3a65c9"/><path d="m317.453 181.336.704-1.561c.755.55 1.88.934 2.956.934 1.228 0 1.727-.41 1.727-.96 0-1.676-5.207-.525-5.207-3.851 0-1.523 1.228-2.789 3.775-2.789 1.126 0 2.277.268 3.109.793l-.64 1.574c-.831-.474-1.689-.704-2.482-.704-1.228 0-1.702.461-1.702 1.024 0 1.65 5.207.512 5.207 3.8 0 1.497-1.241 2.776-3.8 2.776-1.421 0-2.854-.422-3.647-1.036z" fill="#3a65c9"/><path d="m425.229 163.004h-288.043v-27.928c0-5.946 4.82-10.765 10.765-10.765h266.513c5.945 0 10.765 4.82 10.765 10.765z" fill="#ffcc40"/><path d="m198.593 142.818c-10.221 0-18.508-8.286-18.508-18.508s8.286-18.508 18.508-18.508c10.221 0 18.508 8.286 18.508 18.508" style="fill:none;stroke:#3a65c9;stroke-width:2.1337;stroke-linecap:round;stroke-linejoin:round;stroke-miterlimit:10"/><path d="m226.131 142.818c-10.221 0-18.508-8.286-18.508-18.508s8.286-18.508 18.508-18.508c10.221 0 18.508 8.286 18.508 18.508" style="fill:none;stroke:#3a65c9;stroke-width:2.1337;stroke-linecap:round;stroke-linejoin:round;stroke-miterlimit:10"/><path d="m253.669 142.818c-10.222 0-18.508-8.286-18.508-18.508s8.286-18.508 18.508-18.508c10.221 0 18.508 8.286 18.508 18.508" style="fill:none;stroke:#3a65c9;stroke-width:2.1337;stroke-linecap:round;stroke-linejoin:round;stroke-miterlimit:10"/><path d="m281.208 142.818c-10.221 0-18.508-8.286-18.508-18.508s8.286-18.508 18.508-18.508c10.221 0 18.507 8.286 18.507 18.508" style="fill:none;stroke:#3a65c9;stroke-width:2.1337;stroke-linecap:round;stroke-linejoin:round;stroke-miterlimit:10"/><path d="m308.746 142.818c-10.221 0-18.507-8.286-18.507-18.508s8.286-18.508 18.507-18.508c10.222 0 18.508 8.286 18.508 18.508" style="fill:none;stroke:#3a65c9;stroke-width:2.1337;stroke-linecap:round;stroke-linejoin:round;stroke-miterlimit:10"/><path d="m336.284 142.818c-10.221 0-18.507-8.286-18.507-18.508s8.286-18.508 18.507-18.508c10.222 0 18.508 8.286 18.508 18.508" style="fill:none;stroke:#3a65c9;stroke-width:2.1337;stroke-linecap:round;stroke-linejoin:round;stroke-miterlimit:10"/><path d="m363.822 142.818c-10.221 0-18.508-8.286-18.508-18.508s8.286-18.508 18.508-18.508 18.508 8.286 18.508 18.508" style="fill:none;stroke:#3a65c9;stroke-width:2.1337;stroke-linecap:round;stroke-linejoin:round;stroke-miterlimit:10"/><ellipse cx="425.229" cy="80.309" fill="#3a65c9" rx="33.302" ry="33.302" transform="matrix(.7071 -.7071 .7071 .7071 67.76 324.2044)"/><circle cx="425.229" cy="80.309" fill="#fff" r="25.404"/><path d="m411.111 68.783 14.118 11.526v22.722" style="fill:none;stroke:#ffcc40;stroke-width:2.1337;stroke-linecap:round;stroke-linejoin:round;stroke-miterlimit:10"/><path d="m522.744 189.27c7.881 2.561 24.387 9.119 40.456 15.683 25.037 10.227 42.529 33.257 45.716 60.114 4.12 34.725 8.341 72.008 9.664 83.332 2.88 24.649-13.623 48.653-26.825 50.453l5.101 17.703h-138.622l-32.705-104.116s-24.304 51.308-34.205 65.71-38.106 25.204-59.709-4.201c-21.603-29.404-41.106-71.036-41.106-71.036l31.633-19.296 33.177 40.524 23.894-66.738c6.965-19.454 21.631-35.183 40.551-43.49l35.62-15.64z" fill="#3a65c9"/><path d="m527.034 190.75c-1.609-.577-3.064-1.081-4.29-1.48l-67.36 9.001-4.402 1.933c11.603 16.07 56.16 23.721 76.052-9.454z" fill="#ffcc40"/><path d="m502.413 308.538h-33.047l-8.408-60.809h33.047z" fill="#fff"/><path d="m490.658 250.216 7.702 55.707" fill="none" stroke="#283847" stroke-miterlimit="10" stroke-width="1.0766"/><path d="m468.2 253.548c.135.977-.547 1.769-1.524 1.769s-1.878-.792-2.013-1.769.547-1.769 1.524-1.769c.976 0 1.878.792 2.013 1.769z" fill="#283847"/><path d="m474.067 253.548c.135.977-.547 1.769-1.524 1.769s-1.878-.792-2.013-1.769.547-1.769 1.524-1.769 1.878.792 2.013 1.769z" fill="#283847"/><path d="m406.68 350.674 7.131-74.135 11.718 35.9z" fill="#38518f"/><path d="m355.319 324.14-5.401 16.803" fill="none" stroke="#1a294d" stroke-miterlimit="10" stroke-width="1.0668"/><path d="m337.403 380.729c20.597 20.694 44.883 10.566 53.921-2.581.377-.548.777-1.156 1.194-1.807-5.73-7.966-15.348-13.195-26.249-13.195-12.795 0-23.819 7.203-28.866 17.583z" fill="#38518f"/><path d="m516.443 307.038 57.909 46.507" fill="none" stroke="#1a294d" stroke-miterlimit="10" stroke-width="1.0668"/><path d="m614.472 375.723c-4.985-3.69-11.359-5.906-18.308-5.906-15.964 0-28.904 11.687-28.904 26.104 0 1.589.166 3.142.467 4.652 7.209.845 15.447.625 24.027-1.722 12.277-3.358 19.027-13.623 22.718-23.128z" fill="#38518f"/><path d="m489.319 319.082 28.282-9.369-22.832 18.711z" fill="#38518f"/><path d="m321.442 284.598-18.936-29.266s-6.41-11.808-12.599-16.277c-2.838-2.049-9.043-7.739-10.17-9.219 0 0-3.48 1.163-1.813 4.834s7.183 9.973 7.183 9.973-14.161-3.145-19.39-4.65c-5.229-1.506-14.202-4.339-14.986-.779-.863 3.917 19.927 8.492 19.927 8.492s-5.182 1.094-3.182 6.56c-3.269 1.76-3.489 6.165.341 7.796-2.153 2.64-.179 6.705 5.423 6.704 5.056 3.009 9.34 5.576 17.389 2.629l11.061 27.265z" fill="#ff6969"/><path d="m270.658 247.706 11.01 3.102" fill="none" stroke="#b82c2c" stroke-miterlimit="10" stroke-width="1.0668"/><path d="m267.476 254.266 13.413 3.233" fill="none" stroke="#b82c2c" stroke-miterlimit="10" stroke-width="1.0668"/><path d="m267.817 262.062 12.192.705" fill="none" stroke="#b82c2c" stroke-miterlimit="10" stroke-width="1.0668"/><path d="m273.24 268.766 6.865-.675" fill="none" stroke="#b82c2c" stroke-miterlimit="10" stroke-width="1.0668"/><path d="m281.98 268.057s2.437-2.145-.096-5.325c2.298-1.542 1.249-4.224.455-5.26 2.132-1.014 2.983-4.781.051-6.678" fill="none" stroke="#b82c2c" stroke-miterlimit="10" stroke-width="1.0668"/><path d="m283.951 255.705s1.888 7.231 10.313 8.478" fill="none" stroke="#b82c2c" stroke-miterlimit="10" stroke-width="1.0668"/><path d="m322.014 285.885-25.814 28.583-5.691-11.556z" fill="#38518f"/><path d="m512.699 305.903-8.249-9.811s3.856-20.177-8.123-28.439c0 0 3.923 13.4-2.646 16.381s-18.236 1.073-28.806-7.979l-.528-4.202s-2.898 6.736 1.27 9.668c-1.504 3.526-2.247 6.545 1.15 8.217-2.032 2.596-1.087 6.671 1.469 7.697-2.4 4.501 1.9 8.001 6.501 8.487 2.973.314 13.988.619 13.988.619l8.029 9.291z" fill="#ff6969"/><path d="m425.529 278.133h29.18s11.726 35.473-5.877 35.473c-17.602 0-23.303-35.473-23.303-35.473z" fill="#ffcc40"/><path d="m501.041 152.214s7.901-12.602 10.302-20.003c2.4-7.401-5.601-7.101-5.601-7.101 1.1-8.201-1.8-11.502-8.201-11.702-1.3-7.901-10.202-11.902-15.802-6.501-8.001-8.001-20.403-2-20.103 9.401-9.902-2.1-13.496 20.153.903 23.629l27.201 15.437z" fill="#330909"/><path d="m466.035 127.611s15.452 8.401 27.904 5.851c0 0-.9 4.801 3.15 7.201l-4.501 11.852 2.1.6s4.651-10.051 10.202-8.101-.9 20.703-10.802 15.152l8.101 23.254 20.553 5.851s-7.501 20.103-40.506 20.103c-17.103 0-26.854-11.102-26.854-11.102l17.103-6.601-4.801-15.452s-11.252.1-14.702-8.401c-3.474-8.559 4.351-19.653 4.351-19.653z" fill="#ff6969"/><path d="m467.686 176.218c7.126.075 16.288-5.176 19.733-8.701 0 0-6.735 17.799-16.572 18.876z" fill="#b82c2c"/><path d="m472.486 191.67 2.851 7.426" fill="none" stroke="#b82c2c" stroke-miterlimit="10" stroke-width="1.0668"/><path d="m469.817 153.234s6.37 1.58 7.37 4.281h-17.103s1.685-3.489 5.134-3.595c.001 0 2.129.985 4.599-.686z" fill="#330909"/><path d="m464.535 157.515h8.901s.95 10.977-2.3 10.977-6.601-10.977-6.601-10.977z" fill="#fff"/><path d="m465.389 142.751c0 1.553-.638 2.813-1.425 2.813s-1.425-1.259-1.425-2.813.638-2.813 1.425-2.813c.786 0 1.425 1.259 1.425 2.813z" fill="#330909"/><ellipse cx="476.827" cy="144.509" fill="#330909" rx="1.425" ry="2.813"/><path d="m459.434 137.816 10.277 1.261s.9 10.441-6.901 9.483c-7.801-.957-3.376-10.744-3.376-10.744z" fill="none" stroke="#fff" stroke-miterlimit="10" stroke-width="1.0668"/><path d="m473.023 139.483 10.276 1.261s.9 10.441-6.901 9.483c-7.8-.956-3.375-10.744-3.375-10.744z" fill="none" stroke="#fff" stroke-miterlimit="10" stroke-width="1.0668"/><path d="m469.66 141.696 2.519.309" fill="none" stroke="#fff" stroke-miterlimit="10" stroke-width="1.0668"/><path d="m483.091 144.509 15.686 2.641" fill="none" stroke="#fff" stroke-miterlimit="10" stroke-width="1.0668"/><path d="m475.402 136.462 9.799-.412" fill="none" stroke="#330909" stroke-miterlimit="10" stroke-width="2.1337"/><path d="m472.179 136.612s-4.502-3.941-8.811-2.702" fill="none" stroke="#330909" stroke-miterlimit="10" stroke-width="2.1337"/><path d="m470.351 142.751-5.316 11.109s2.767 1.092 5.316-1.02" fill="none" stroke="#330909" stroke-miterlimit="10" stroke-width="1.0668"/><path d="m495.49 155.365s3.3 1.15 3.851 0c.55-1.15-2.15-2.901-2.15-2.901s3.15-5.801 6.101-4.751c2.95 1.05-.9 7.501-.9 7.501" fill="none" stroke="#330909" stroke-miterlimit="10" stroke-width="1.0668"/><path d="m591.754 398.852c-12.902 4.201-43.507 5.106-63.91-21.001-20.403-26.106-39.906-61.212-39.906-61.212" fill="none" stroke="#1a294d" stroke-miterlimit="10" stroke-width="1.0668"/><path d="m425.529 312.439-15.702-48.108" fill="none" stroke="#1a294d" stroke-miterlimit="10" stroke-width="1.0668"/><path d="m545.397 260.331 16.107 82.896" fill="none" stroke="#1a294d" stroke-miterlimit="10" stroke-width="1.0668"/><path d="m486.438 320.037 33.806-11.199-5.301-5.926-32.405 11.827z" fill="#fff"/><path d="m290.509 305.388 34.655-21.454-4.35-6.751-34.74 20.853z" fill="#fff"/><ellipse cx="457.784" cy="437.934" fill="#ffcc40" rx="31.355" ry="7.951"/><path d="m435.797 386.271 3.472 50.704h.043c0 1.156 8.27 2.094 18.472 2.094s18.472-.938 18.472-2.094h.043l3.472-50.704z" fill="#ff5521"/><path d="m476.924 429.982c-6.769 0-10.497-7.131-10.497-20.079 0-8.925 6.49-16.187 14.467-16.187 4.098 0 8.236 1.957 11.069 5.235 2.769 3.202 3.968 7.201 3.376 11.259-1.51 10.348-10.287 19.772-18.415 19.772zm3.97-32.011c-5.631 0-10.212 5.352-10.212 11.932 0 3.712.45 15.824 6.243 15.824 5.368 0 12.9-7.196 14.204-16.132.411-2.817-.435-5.609-2.384-7.862-2.038-2.355-4.972-3.762-7.851-3.762z" fill="#ff5521"/><path d="m452.961 382.501c-1.714-4.408-3.918-6.612-1.959-11.755s4.424-6.734 4.6-11.387c.175-4.653-2.684-8.816-2.684-8.816s8.411.209 8.492 10.285c.062 7.689-7.469 9.347-8.449 21.673z" fill="#fff"/><path d="m464.259 382.501c-1.714-4.408-3.918-6.612-1.959-11.755s4.424-6.734 4.6-11.387c.175-4.653-2.684-8.816-2.684-8.816s8.411.209 8.492 10.285c.062 7.689-7.469 9.347-8.449 21.673z" fill="#fff"/><path d="m267.683 345.159-9.329-16.897-9.329 16.897c-1.875 3.397-5.449 5.506-9.329 5.506h-62.25c-5.885 0-10.656 4.771-10.656 10.656v76.383c0 5.885 4.771 10.656 10.656 10.656h161.815c5.885 0 10.656-4.771 10.656-10.656v-76.383c0-5.885-4.771-10.656-10.656-10.656h-62.25c-3.879 0-7.452-2.109-9.328-5.506z" fill="#bedbf7"/><path d="m220.899 360.792v78.686" fill="none" stroke="#fff" stroke-miterlimit="10" stroke-width="1.2169"/><path d="m192.152 376.815c-6.167.683-11.169 5.671-11.87 11.837-.449 3.948.809 7.599 3.129 10.32 3.514 4.123 6.141 8.926 8.243 13.919l1.37 3.254c.25.593 1.09.593 1.34 0l1.811-4.301c2.024-4.807 4.894-9.173 8.126-13.266 1.813-2.296 2.895-5.193 2.895-8.346.001-7.965-6.896-14.32-15.044-13.417zm1.543 18.656c-2.894 0-5.24-2.346-5.24-5.24s2.346-5.24 5.24-5.24 5.24 2.346 5.24 5.24c-.001 2.894-2.347 5.24-5.24 5.24z" fill="#ff5521"/><text fill="#3a65c9" font-family="Montserrat-Bold" font-size="24.2307" letter-spacing="2" transform="translate(235.8131 386.1839)">10:30</text><path d="m325.114 398.272h-87.813c-1.271 0-2.3-1.03-2.3-2.3 0-1.27 1.03-2.3 2.3-2.3h87.813c1.27 0 2.3 1.03 2.3 2.3.001 1.27-1.029 2.3-2.3 2.3z" fill="#fff"/><path d="m325.114 410.674h-87.813c-1.271 0-2.3-1.03-2.3-2.3 0-1.271 1.03-2.3 2.3-2.3h87.813c1.27 0 2.3 1.03 2.3 2.3.001 1.27-1.029 2.3-2.3 2.3z" fill="#fff"/><path d="m267.606 437.478h-30.304c-1.271 0-2.3-1.03-2.3-2.3 0-1.27 1.03-2.3 2.3-2.3h30.304c1.271 0 2.3 1.03 2.3 2.3 0 1.27-1.03 2.3-2.3 2.3z" fill="#fff"/><path d="m137.186 168.492v61.344" fill="none" stroke="#bedbf7" stroke-miterlimit="10" stroke-width="1.0668"/><path d="m654.153 143.327c-5.507 5.507-11.49 8.454-13.362 6.583-1.872-1.872 1.075-7.854 6.583-13.362 5.507-5.507 11.49-8.454 13.361-6.582 1.872 1.872-1.075 7.854-6.582 13.361z" fill="#bedbf7"/><path d="m634.9 247.653c-5.507 5.507-11.49 8.454-13.362 6.583-1.872-1.872 1.075-7.854 6.583-13.361 5.507-5.507 11.49-8.454 13.361-6.583 1.872 1.871-1.075 7.853-6.582 13.361z" fill="#bedbf7"/><path d="m340.792 76.16c-5.507 5.507-11.489 8.454-13.361 6.582s1.075-7.854 6.582-13.361 11.49-8.455 13.361-6.583c1.873 1.873-1.074 7.855-6.582 13.362z" fill="#bedbf7"/><path d="m638.071 193.33c-17.901 17.901-33.838 30.986-35.598 29.226s11.326-17.697 29.226-35.598c17.901-17.901 33.838-30.986 35.597-29.226 1.761 1.76-11.324 17.698-29.225 35.598z" fill="#bedbf7"/></svg>