<svg height="800" viewBox="0 0 1080 800" width="1080" xmlns="http://www.w3.org/2000/svg" xmlns:xlink="http://www.w3.org/1999/xlink"><clipPath id="a"><path d="m0 800h1080v-800h-1080z" transform="matrix(1 0 0 -1 0 800)"/></clipPath><g clip-path="url(#a)"><g fill="#ee4d2d"><path d="m0 0h48.213c11.296 0 21.916 4.372 29.897 12.324 7.982 7.944 12.375 18.494 12.375 29.711 0 23.181-18.915 42.027-42.154 42.027h-48.331zm-25.956-95.938v198.512c0 4.118 3.334 7.452 7.453 7.452h67.03c37.732-.49 68.432-31.22 68.432-68.501 0-37.28-30.709-68.01-68.461-68.501h-48.489v-68.952c0-4.119-3.334-7.452-7.451-7.452h-11.061c-4.119 0-7.453 3.333-7.453 7.452z" transform="matrix(1 0 0 -1 338.2402 607.4629)"/><path d="m0 0 50.743 87.181-60.764 99.466c-1.824 2.981.324 6.796 3.815 6.796h24.602l48.87-79.258 47.194 79.258h22.7c3.461 0 5.608-3.765 3.843-6.746l-114.361-193.424h-22.778c-3.452 0-5.599 3.736-3.864 6.717z" transform="matrix(1 0 0 -1 627.7949 766.9219)"/><path d="m0 0c-23.395 0-42.438-18.287-42.438-40.771 0-22.485 19.435-41.772 42.438-41.772 23.004 0 42.439 19.13 42.439 41.772 0 22.641-19.043 40.771-42.439 40.771m47.919-99.712v11.462l-3.774-3.138c-12.218-10.168-27.838-15.766-43.958-15.766-37.232 0-67.521 29.817-67.521 66.461 0 36.643 30.289 65.442 67.521 65.442 16.13 0 31.74-5.6 43.958-15.777l3.774-3.138v11.463c0 4.119 3.334 7.452 7.453 7.452h15.454v-131.903h-15.454c-4.119 0-7.453 3.334-7.453 7.452z" transform="matrix(1 0 0 -1 522.811 597.5205)"/><path d="m0 0h-350.621c-10.681 0-19.342 8.661-19.342 19.343 0 4.851 3.933 8.783 8.784 8.783h314.215c4.852 0 8.784 3.934 8.784 8.785v31.676c0 11.355-9.733 20.262-21.042 19.267l-318.393-28.111c-22.709-1.974-40.155-20.996-40.155-43.798v-306.043c0-24.27 19.68-43.95 43.95-43.95h373.805c24.271 0 43.951 19.68 43.951 43.95v246.133c0 24.27-19.68 43.949-43.951 43.949" transform="matrix(1 0 0 -1 726.917 114.28131)"/></g><path d="m0 0c-2.771-22.664-16.589-40.813-38.013-49.902-11.921-5.066-27.898-7.774-40.569-6.918-19.694.749-38.21 5.509-55.274 14.217-6.212 3.167-15.318 9.426-22.173 15.149-1.56 1.301-2.373 2.465-.858 4.576 1.607 2.402 7.943 11.569 8.952 13.085 1.348 2.05 3.567 2.156 5.601.565.276-.214 2.342-1.821 2.755-2.127 16.42-12.778 37.6-22.373 61.151-23.26 29.687.397 51.219 13.62 55.06 34.094 4.239 22.557-13.758 41.915-48.434 52.704-11.018 3.428-38.731 14.461-43.859 17.43-24.147 14.079-35.41 32.534-33.803 55.259 2.448 31.494 31.845 55.09 69.153 55.243 17.706.031 34.31-3.856 49.108-10.054 5.448-2.279 15.594-7.712 19.205-10.39 2.525-1.837 2.325-3.902 1.331-5.509-1.469-2.45-5.86-9.274-7.621-12.104-1.284-1.944-2.877-2.175-5.157-.751-19.082 12.733-38.701 17.047-56.36 17.399-25.48-.504-44.701-15.531-45.955-36.161-.337-18.624 13.91-32.135 44.165-42.465 62.449-19.925 86.093-43.352 81.609-80.065" fill="#fff" transform="matrix(1 0 0 -1 618.5908 344.2197)"/></g></svg>