<svg height="2000" width="2600" xmlns="http://www.w3.org/2000/svg"><path d="m332 1581.9c-4.6-14.1-9.1-28.7-13.5-43.5l10.8-3.2c4.3 14.6 8.8 29.2 13.4 43.2zm1929.5-18.2-11.1-1.4c1.8-15 3.6-30.2 5.2-45l11.2 1.2c-1.6 14.9-3.4 30.1-5.3 45.2zm-1955.4-69.1c-4-14.5-7.8-29.3-11.4-44l10.9-2.7c3.6 14.6 7.4 29.3 11.3 43.8zm1965.4-21.3-11.2-1.1c1.4-15.1 2.7-30.2 3.9-45.1l11.2.9c-1.2 14.9-2.5 30.1-3.9 45.3zm-1987-67.1c-3.3-14.8-6.4-29.8-9.2-44.6l11-2.1c2.9 14.6 5.9 29.5 9.2 44.3zm1994.1-23.5-11.2-.7c.9-15.1 1.8-30.3 2.5-45.2l11.2.5c-.7 15-1.5 30.2-2.5 45.4zm-2011.4-65.9c-2.5-15-4.8-30.1-6.9-45l11.2-1.5c2 14.7 4.3 29.8 6.8 44.7zm2015.6-25-11.2-.3c.4-15.2.7-30.4.9-45.3l11.2.2c-.1 14.9-.4 30.2-.9 45.4zm-2028.1-65.2c-1.7-15.2-3.1-30.4-4.4-45.3l11.3-.9c1.2 14.8 2.6 29.9 4.3 45zm2017.8-25.6c-.1-15.2-.4-30.4-.9-45.3l11.3-.3c.4 14.9.7 30.2.9 45.5zm-2025.2-65.2c-.7-15.3-1.2-30.6-1.4-45.5l11.2-.2c.2 14.8.7 30 1.5 45.1zm2022.4-25.2c-.7-15.1-1.7-30.3-2.8-45.1l11.2-.9c1.1 14.9 2.1 30.2 2.9 45.4zm-2012.6-65.6-11.3-.2c.4-15.3 1-30.6 1.8-45.5l11.3.6c-.9 14.8-1.5 30-1.8 45.1zm2005.8-24.6c-1.5-15.1-3.2-30.2-5-44.9l11.1-1.4c1.9 14.8 3.6 30 5.1 45.2zm-2000.5-65.5-11.2-1.1c1.6-15.2 3.4-30.4 5.6-45.2l11.1 1.6c-2.1 14.6-3.9 29.7-5.5 44.7zm1989.2-24.1c-2.4-15.1-4.9-30-7.7-44.5l11.1-2.1c2.7 14.6 5.3 29.7 7.7 44.8zm-1330.8-1.6c-15.6-2.4-27-9.5-42.6-21.9l7.1-8.7c13.7 10.8 23.6 17.2 36.7 19.4zm39-26.8-10-5.1c5.2-10.1 9.7-24.1 13.5-41.6l11 2.4c-4.1 18.7-8.8 33.2-14.5 44.3zm-114.6-27.4c-9-10-18.6-21.5-29.3-35.1l8.8-7c10.6 13.5 20 24.8 28.8 34.6zm-569.7-9.2-11-2.2c2.9-15 6.2-30 9.8-44.5l10.9 2.7c-3.5 14.3-6.8 29.1-9.7 44zm1959.4-23.7c-3.3-14.9-6.9-29.7-10.6-43.9l10.8-2.9c3.8 14.4 7.5 29.3 10.8 44.3zm-1252.9-29.4-11.2-1.4c1.7-13.4 3.3-28.2 4.7-45l11.2 1c-1.4 17-3 31.8-4.7 45.4zm-193.6-9.1c-9.2-12.4-18.7-25.5-26.8-36.7l9.1-6.7c8.1 11.3 17.6 24.4 26.7 36.7zm823.8-.9c-8.7 0-17.3-2.7-25.5-7.8l6-9.6c12.3 7.8 24.4 7.8 37.5 1.6l4.8 10.2c-7.7 3.7-15.4 5.6-22.8 5.6zm-1315-24.3-10.8-3.3c4.5-14.7 9.4-29.2 14.6-43.3l10.6 3.9c-5.2 13.9-10 28.2-14.4 42.7zm1374.6-10.8-8.3-7.6c8.6-9.3 17.7-20.7 28-34.9l9.1 6.6c-10.5 14.6-20 26.4-28.8 35.9zm-117.1-7.7c-7.3-11.3-14.5-24.5-22.1-40.5l10.2-4.8c7.3 15.5 14.3 28.3 21.3 39.2zm657.2-5c-4.5-14.6-9.4-29-14.4-42.7l10.6-3.9c5 13.9 9.9 28.5 14.5 43.2zm-1476.9-24.7c-10.3-14.1-18.9-25.7-27-36.4l9-6.8c8.1 10.8 16.8 22.4 27.1 36.5zm255.2-8.4-11.2-.7c.9-13.2 1.7-28 2.7-45.4l11.2.7c-.9 17.3-1.8 32.2-2.7 45.4zm-661.7-27.7-10.3-4.6q9.3-21 19.8-41.2l9.9 5.2q-10.3 19.9-19.4 40.6zm1398 0-9.4-6.2c7.9-12.2 16.2-25.1 24.6-38.1l9.4 6.1c-8.3 13.1-16.6 26-24.6 38.2zm-211.9-16.7c-5.1-12.8-10.4-26.7-16.1-42.7l10.6-3.8c5.6 15.8 10.9 29.7 15.9 42.4zm666.4-7.1c-6-14.1-12.4-27.8-19-40.7l10-5.1c6.7 13.1 13.2 27.1 19.4 41.4zm-1500.8-12.3c-10.2-12.7-19.7-24-29-34.5l8.4-7.5c9.4 10.7 19 22.1 29.4 34.9zm315-27.2-11.2-.5c.7-15.1 1.5-30.2 2.3-45.5l11.2.6c-.8 15.3-1.5 30.4-2.3 45.4zm780.6-13-9.4-6.2c9.4-14.3 17.8-26.6 25.7-37.7l9.1 6.5c-7.8 11-16.1 23.2-25.4 37.4zm-1405.6-3.2-9.5-6.1c8.9-13.8 18-26.4 27.1-37.2l8.6 7.3c-8.8 10.4-17.6 22.5-26.2 36zm1113.2-22.9c-5.2-15.2-10.2-30.3-14.5-43.1l10.7-3.6c4.2 12.8 9.3 27.9 14.4 43zm-863.2-.8c-11.5-11.2-22.8-21.1-33.6-29.4l6.9-8.9c11.1 8.6 22.8 18.8 34.6 30.3zm1519.9-.5c-8.1-13.2-16.5-25.6-25.2-37l9-6.8c8.8 11.6 17.5 24.4 25.8 37.9zm-1712.1-42.5-6.8-8.9c13.4-10.3 27.4-17.7 41.5-22l3.3 10.7c-12.8 4-25.6 10.8-38 20.2zm1400.4-3.4-8.8-7.1c10.6-13.1 20.6-24.3 30.6-34.3l8 8c-9.8 9.7-19.5 20.6-29.8 33.4zm-828.4-4.5-11.2-.6c1-16.4 1.9-31.3 3-45.5l11.2.8c-1 14.2-2 29-3 45.3zm-450.6-2.3c-14.1-7-27.9-11.5-41.1-13.3l1.5-11.1c14.4 1.9 29.4 6.8 44.6 14.3zm1536.6-18.2c-10.8-11.1-22-20.9-33.3-29.2l6.6-9.1c11.8 8.6 23.5 18.9 34.8 30.4zm-631.5-14c-5.6-16.8-10.2-30.4-14.5-43l10.6-3.7c4.4 12.6 9 26.3 14.6 43.1zm437.3-23.1-6.5-9.3c13.9-9.7 27.8-16.8 41.6-21.3l3.5 10.7c-12.7 4.1-25.7 10.8-38.6 19.9zm122.8-13.8c-14-5.9-28.1-9.6-42-10.9l1.1-11.2c15 1.4 30.2 5.4 45.2 11.7zm-1008-19-11.2-1c1.4-15.8 2.9-31.1 4.5-45.4l11.2 1.3c-1.6 14.2-3.1 29.4-4.5 45.1zm418.5-29.9c-5.5-15.2-10.6-29.1-15.7-42.5l10.5-4c5.1 13.4 10.3 27.4 15.8 42.7zm-408.3-60.2-11.1-1.6c2.3-15.7 4.8-30.9 7.4-45l11.1 2c-2.7 14-5.1 29-7.4 44.6zm375.9-24.3c-6.1-14.6-12.2-28.5-18.1-41.5l10.2-4.7c6 13.1 12.2 27.1 18.3 41.8zm-359-64.3-10.9-2.7c3.9-15.7 8.3-30.6 12.9-44l10.6 3.6c-4.5 13.2-8.7 27.7-12.6 43.1zm320.9-17.5c-7.4-14-15-27.1-22.5-39l9.5-6c7.7 12.1 15.4 25.5 22.9 39.7zm-291.4-66.9-10-4.9c7.3-15 15.5-28.3 24.3-39.4l8.9 6.9c-8.3 10.6-16.1 23.2-23.2 37.4zm243.1-8.6c-9.8-12.3-19.9-23.2-30.1-32.5l7.5-8.3c10.7 9.6 21.2 21 31.4 33.8zm-188.6-58-6-9.5c13.3-8.5 28-14.1 43.6-16.5l1.7 11.1c-14 2.2-27.3 7.2-39.3 14.9zm123 0c-13.1-7.1-26.8-11.9-40.6-14.4l2-11.1c15 2.7 29.8 7.9 43.9 15.6z" fill="#b3d2ff"/><path d="m546.4 1645.5s-242.6-692.8-45.4-856.5c131.8-109.4 240.2 89.2 406.9-38.4 148.5-113.7 101.3-459.4 338.1-507.2 266.2-53.7 324.9 591.1 543.3 503 265.2-107 528.9 110.1 301 900.5z" fill="#bad2f4"/><path d="m2332.9 1402.9c-93.4-14.5-78.2 116.3-211.3 116.3-121.7 0-160.6-498-249.2-355.7-453.9 729.9-190.3-310.4-551.3-323.6-163.2-6-272 176.1-312.1 498.4-58.2 291.4-193-222.3-331.8-174.5-88.2 30.4-78.1 355.4-199.8 355.4-133.1 0-117.8-130.8-211.2-116.3-100.5 15.6-130.6 247-130.6 247h2327.8s-30-231.4-130.5-247z" fill="#c6dcf7"/><path d="m2250.2 1544.4c-85.9-6.1-71.9 49.7-194.4 49.7-111.9 0-108.9-125.1-183.8-151.7-137.9-49-251.7 198.9-305.2 74.5-101.6-330.2-397.9-495.7-534.6 0-53.5 124.4-178.5-97.6-305.2-74.5-77.9 14.2-71.8 151.7-183.8 151.7-122.4 0-108.4-55.8-194.3-49.7-92.5 6.7-120.1 105.5-120.1 105.5h2141.5s-27.6-98.8-120.1-105.5z" fill="#d2e5f7"/><path d="m135.6 1649.9s-14.6 59.5 53.1 74.4c92.5 20.4 635.7 73.9 503.8 114.5-74.5 23 38 54.1 400.8 65.6 362.9 11.5 985.5-33.5 776.1-100s646-16.1 594-154.5z" fill="#bad2f4"/><path d="m1893 1000c0 327.5-265.5 593-593 593s-593-265.5-593-593 265.5-593 593-593 593 265.5 593 593z" fill="#eb5648"/><path d="m1848 1000c0 302.7-245.3 548-548 548s-548-245.3-548-548 245.3-548 548-548 548 245.3 548 548z" fill="#fff"/><path d="m1809 1000c0 281.1-227.9 509-509 509s-509-227.9-509-509 227.9-509 509-509 509 227.9 509 509z" fill="#eb5648"/><path d="m1558.8 965.9c-21.9-11.8-49.2-3.6-61 18.3l-42.2 78.7c-6.9-12.7-15.2-24.6-24.6-35.4v-288c0-20.7-16.8-37.5-37.5-37.5s-37.5 16.8-37.5 37.5v233.8q-8.7-3.6-17.8-6.4v-289.4c0-20.7-16.8-37.5-37.5-37.5s-37.5 16.8-37.5 37.5v281.1q-9.1.7-17.9 2.2v-237.3c0-20.7-16.8-37.5-37.5-37.5s-37.5 16.8-37.5 37.5v266.4q-9.3 6-17.8 12.9v-184.8c0-20.7-16.8-37.5-37.5-37.5s-37.5 16.8-37.5 37.5v329q0 3.3.6 6.5-.1 2.8-.1 5.5c0 111 90 201 201 201 83.3 0 154.8-50.7 185.3-123l112.8-210.2c11.8-21.9 3.6-49.2-18.3-60.9z" fill="#fff"/><path d="m1692.8 305.9v91.6c-1.3 7.5-7.9 13.2-15.8 13.2s-14.4-5.7-15.8-13.2v-91.6c0-8.7 7.1-15.8 15.8-15.8s15.8 7.1 15.8 15.8zm.2 133.8c0 8.8-7.2 16-16 16s-16-7.2-16-16c0-8.9 7.2-16 16-16s16 7.1 16 16z" fill="#8fb3f2"/><path d="m552.8 861.8q-.4.5-1 .9c-14.8 14.4-35 23.3-57.3 23.3-45.5 0-82.5-37-82.5-82.5 0-22.3 8.9-42.5 23.3-57.3q.4-.6.9-1 .4-.5 1-.9c14.8-14.4 35-23.3 57.3-23.3 45.5 0 82.5 37 82.5 82.5 0 22.3-8.9 42.5-23.3 57.3q-.4.6-.9 1zm-58.3-115.8c-11.3 0-21.9 3.3-30.8 9l79.3 79.3c5.7-8.9 9-19.5 9-30.8 0-31.7-25.8-57.5-57.5-57.5zm0 115c11.3 0 21.9-3.3 30.8-9l-79.3-79.3c-5.7 8.9-9 19.5-9 30.8 0 31.7 25.8 57.5 57.5 57.5z" fill="#8fb3f2" fill-rule="evenodd"/><path d="m2090.8 804.8q-.4.5-1 .9c-14.8 14.4-35 23.3-57.3 23.3-45.5 0-82.5-37-82.5-82.5 0-22.3 8.9-42.5 23.3-57.3q.4-.6.9-1 .4-.5 1-.9c14.8-14.4 35-23.3 57.3-23.3 45.5 0 82.5 37 82.5 82.5 0 22.3-8.9 42.5-23.3 57.3q-.4.6-.9 1zm-58.3-115.8c-11.3 0-21.9 3.3-30.8 9l79.3 79.3c5.7-8.9 9-19.5 9-30.8 0-31.7-25.8-57.5-57.5-57.5zm0 115c11.3 0 21.9-3.3 30.8-9l-79.3-79.3c-5.7 8.9-9 19.5-9 30.8 0 31.7 25.8 57.5 57.5 57.5z" fill="#f49f9f" fill-rule="evenodd"/><path d="m813.7 421 43.1-43.1c6.1-6.1 6.1-16.1 0-22.3-6.2-6.1-16.2-6.1-22.3 0l-43.1 43.1-43.1-43.1c-6.1-6.1-16.1-6.1-22.3 0-6.1 6.2-6.1 16.2 0 22.3l43.1 43.1-43.1 43.1c-6.1 6.1-6.1 16.1 0 22.3 3.1 3.1 7.1 4.6 11.2 4.6 4 0 8-1.5 11.1-4.6l43.1-43.1 43.1 43.1c3.1 3.1 7.1 4.6 11.1 4.6 4.1 0 8.1-1.5 11.2-4.6 6.1-6.2 6.1-16.2 0-22.3z" fill="#ffd2d2"/><path d="m1876.5 1120.9c-40.9 35.4-102 46.6-147.3 12.1-13.5-9.9-27.1-25.8-36.6-42.4l11.1-18c88.4 54.5 123.4-38.5 195.2-45.8l-14.3 21s-6.8 71.6-8.1 73.1z" fill="#9358e0"/><path d="m1957.9 1741.9 1.4-.7c0 1 1.1 4.3 2.1 4.3l39.9.8c.9 0 1.5-1.8 1.5-2.7l3.4-1c0-6-.5-8.1-3.1-12.8-9.7-12.8 1.8-70.5 1.5-85.5 2.4-4.1-42-.9-42.6-1.9-1 0-1.8.9-1.7 1.9l5.2 65.8c2.4 12.5-7.2 20.1-7.6 31.8zm-172.8 5.8h79.4c6.9-.3 6.9-7.4 5.6-12.8-4.4-19.8 3.4-65.2 4.8-85.5.4-3.7-2.5-7-6.3-7h-35c-3.8 0-6.8 3.3-6.3 7.1l6.4 50.8c3.4 22.1-22.9 26.3-37.9 28.8-9.9.7-26.4 14.2-10.7 18.6z" fill="#f99370"/><path d="m1873.1 1739.4c-.2 3.9-2.1 8.4-6.6 8.3h-82.4c-19.4-7.2 8.5-33 46.5-32.8 15.5 4.2 38.2 1.2 38.2 1.2s4.7 7 4.3 23.3zm126.8 8.3h-35.2c-17.2-2.4-5-32.7 17.6-32.9s34.7 30.6 17.6 32.9z" fill="#103663"/><path d="m1803.7 1736.5c1.2.1 2.1-1.3 1.7-2.4-3.8-9.2-10.8-12.1-11.1-12.2-2.1-.9-3.4 2.4-1.3 3.2.3.2 5.9 2.6 9.1 10.3.3.7.9 1.1 1.6 1.1zm13.6-1.6c1.2 0 2.1-1.2 1.7-2.3-3.1-11.6-18.2-20.4-14.1-12.2.1.1 8 4.3 10.8 13.3.2.7.9 1.2 1.6 1.2zm15.5-1.9c1.2 0 2.1-1.2 1.7-2.3-3.7-11.6-17.4-22-14.2-13.4 0 0 7.6 5.1 10.9 14.5.2.7.9 1.2 1.6 1.2zm162.1-7.7c1.7 0 2.4-2.5.9-3.3-11.8-6.9-26.6-.4-27.2-.1-2.1.9-.6 4.2 1.4 3.2.2-.4 15-5.8 24.9.2z" fill="#e8c0a6"/><path d="m1778.3 1739.4h94.8c-.3 2.9-1.1 5.8-2.6 8.3h-86.4c-4.3 0-7.3-4.3-5.8-8.3zm221.6 8.3h-35.2c-4.5 0-8.1-3.8-7.9-8.3h50.9c.2 4.5-3.4 8.3-7.8 8.3z" fill="#0f2e54"/><path d="m1887.9 936.2s-.4-25.8 22.9-30.3l12.2 12.6z" fill="#8c4225"/><path d="m2010.2 1702.8s-37.6 9.1-56.9-.7c-10.1-63.2-38.1-239-47.8-359.5-.4 7-20.8 290.4-24.7 359.5-13.4 4.4-40.2 9.8-55.3-1-6.7-72.7-28.4-312.2 4.2-507.8 0 0 89.5 10 159.4-11.2 19.3 62.1 24.4 446.2 21.1 520.7z" fill="#1d3f70"/><path d="m1840 1695.1c-9.2-209.1 11.9-388.9 8.7-391-5.5.4-26.7 181.8-8.7 391zm140.6 0c-3.6-214.8-35.6-418.3-40.4-419.1-3.6 2.7 27.8 203.9 40.4 419.1z" fill="#163356"/><path d="m1898.3 1026.1c-2-17 .7-41.6 3.1-51.7 4.3-19.9 35.9-12.2 30.6 7.4-1-.7-4.3 35.5-2 45.5 29.7 8.9-59.6 38.2-31.7-1.2z" fill="#f99370"/><path d="m1932.3 980.1q-.1.9-.3 1.7c-.7-.5-2.8 19.4-2.8 33.9-13.6 6.2-28.7 3.4-31.5 2.9-.3-18.3 1.4-35 4.1-45.5 5.5-17.8 33.3-11.3 30.5 7z" fill="#e57d61"/><path d="m1953.4 972.7c-4.5 13.6-11.7 28.6-24.3 36.1-5.1 3-10.9 4.5-16.8 4.7-33.5 4.5-66.5-41.1-36.3-63.8 4.9-3.5 9.3-8.6 11.9-13.5 26.9-51.8 81.9-11.2 65.5 36.5z" fill="#f99370"/><path d="m1840.2 1098.1-13.8 50.6c-29.5 9.1-61 7-88.7-10 30.5 17.2 72.4 7.5 79.1-2.6 6.9-10.8 22.5-36.4 23.4-38z" fill="#7640cc"/><path d="m2002.2 1266.6q-4.8 5.8-10.3 11.7s-17.5 3.3-31.3-15c56.1-119.1-52.3-130.2-30.6-236 72.4 8.5 173.2 116.6 72.2 239.3z" fill="#9358e0"/><path d="m1901.4 955.5c-.9-2.7 3.3-4 4.1-1.3.9 2.6-3.3 3.9-4.1 1.3zm-17.3-5.9c-.9-2.6 3.3-3.9 4.1-1.3.9 2.7-3.3 4-4.1 1.3z" fill="#c16256"/><path d="m1953.4 972.7c-4.5 13.6-11.7 28.6-24.3 36.1q-1.6.9-3.2 1.6c9.7-7 17.5-24.1 17.5-24.1l.4-15.4c-11.3-16-3-30.5-3-30.5-23.7 2.7-29.1-12.5-29.1-12.5-7.3-.2-14.3-5.3-14.3-5.3 32.6-32.7 70.2 14.2 56 50.1z" fill="#e57d61"/><path d="m1889.3 969.2c1.4.5 2.6-1.5.7-1.6-2.8.5-9-2.4-5.6-3.9 4.9-1.6 12.6-12.9 8.1-10.9 0 .1-4.3 7.9-8.6 9.4-6 3 1.3 7 5.4 7z" fill="#c16256"/><path d="m2002.2 1266.6q-4.8 5.8-10.3 11.7s-17.9 2.5-31.6-15.8c2-4.9 4.2-8.1 5.9-13 0 0 10.7 11.9 36 17.1z" fill="#7640cc"/><path d="m1993.2 1280.6c3.8 1.2 7.8-3.3 2.6-4.6-27.8 1.2-35.3-17.2-35.6-18-12-6.8 2.8 24.3 33 22.6z" fill="#163356"/><path d="m1816.7 1277.4s5.5 23.4 49.2 35c12.6 3.3 19.8 1.7 21.7-7 .9-4.4 3.3-12 7.6-14.8 0 0 9.8 4.3 13.5 10.2 8.1 13.2 20.3 1.3 26.3-12.5 7.3-17 30.9-34.4 34.9-48.7z" fill="#f4d4be"/><path d="m1995 1248.4c-1.4 2.5-2.3 2.1-3.7.7-39.3-29.4-53.4 34.7-95.7 35.9-43.2 4.3-67.1 6.7-78.9-7.6-20.5-31.8 12.1-173.8 38.5-208.2 11.6-17.9 32-33.8 43.1-43.1-.2.9-6.1 25.4 31.7 1.2 1.9.8 13.9 12.5 13.1 18.7 2 28.8 70.2 170.1 51.9 202.4z" fill="#9358e0"/><path d="m1885.9 899.5s11.1-3.1 22.4 1.4c1.3-4.3 4-8.3 8.3-11.4 1.8 5.2 4.5 10.2 7.5 14.9 1-9.8 7.1-17.8 7.1-17.8 1.6 9.4 14.6 16.2 20.8 26.4 0 0 34.8 12 9.9 42.5-1 11.3-6.5 22.7-6.5 22.7-18.3-16.7-14.3-36.7-6-41.9-14.9 5.3-28.2-1-35.6-10.9-11.1-1.8-24.6-7.8-27.9-25.9z" fill="#8c4225"/><path d="m1972.2 1257.4-8.6-1.8c34.5-77.5-6-110.3-27.5-154 49.7 57.5 57.2 89 36.1 155.8z" fill="#7640cc"/><path d="m1961.2 981.2c-5.7 15.3-25 7.9-18.9-7.3 5.7-15.3 24.9-7.9 18.9 7.3z" fill="#f99370"/><path d="m1955.7 983.7c3.5-3.7 3.5-9.9 1.9-11.6-2.9-3-8.4-2.7-8.4-.9.7 1.7 4.5-1.1 7.2 1.9 2.9 2.3-2.9 9.6-.7 10.6z" fill="#c16256"/><path d="m1948.4 981.3c1.3 0 3.3-5.7 9.4-5.3.5 0 .8-.3.9-.7-4-4.1-13.9 6.1-10.3 6z" fill="#c16256"/><path d="m1941.6 1029.4c.2 14.4-36.8 27.1-38.9 27.1l-4.4-13.1c-5.7 1.4-10.7 9.4-10.7 9.4-16.4-15.6-1-29.3 10.7-26.7-.2.9-2.8 22.4 31.6.4 4.4-2 11.7 2.9 11.7 2.9z" fill="#f4d4be"/><path d="m1880.8 1702.1c0-.1-4.9 1.8-11.6 3.1 0 0 18.8-281.2 21.7-318.8 2.8-37.5 14.6-43.8 14.6-43.8s-25 353.4-24.7 359.5z" fill="#163356"/><path d="m1881.5 1688.4c-.5 8.2-.8 13-.7 13.7-13.4 4.4-40.2 9.8-55.3-1 0 0-.4-4.4-1.1-12.7 0 0 26.2 12.1 57.1 0zm128.7 14.4s-37.6 9.1-56.9-.7c0 0-.8-4.9-2.2-13.7 0 0 26.4 7.1 59.5-.3.2 8.5-.6 13.9-.4 14.7z" fill="#163356"/><path d="m1713.5 1078.1c0 11.5-15.7 20.8-15.7 20.8-1.8-2.6-3.5-5.4-5.2-8.3l11.1-18c3.4 1.8 6.7 4 9.8 5.5z" fill="#7640cc"/><path d="m1687.4 1040.1c-4.3 2.8 2.8 11.3 2.2 16-7.1-3.3-13.4-8.6-13.4-8.6-6.2-7.6-11.9-15.4-17.2-23.6-13.2-6 7.7 23.9 9.3 27.5q0 .1-.1.1c-7.9-6.4-15.5-13.2-22.5-20.6-14.8-3.1 15.1 24.2 17.8 27.4v.1c-8.5-4.8-16.4-10.6-23.5-17.1-15.3-1.8 17.3 23.6 20.9 25.9v.1c-6.5-.9-19.7-12.8-24-9.9-4 6.5 39.5 30 54.8 32.9 5.4 1.5 13.4-12.3 12-17.7-1.2-5.1-4.8-11.3-6-13.6-1.9-5.3-4-18.5-10.3-18.9z" fill="#f99370"/><path d="m1729.1 1132.9q.7.5 1.4 1.1c-.4-.4-.9-.7-1.3-1z" fill="#395b96"/><path d="m1913.8 952q.2 0 .4-.1c.4-.4.5-1.1.1-1.5-.1-.2-4.5-5.6-11.8-5.3-.6 0-1 .5-1 1.1s.5 1 1.1 1c6.2-.3 10.1 4.5 10.1 4.5.3.3.7.5 1.1.3zm-28.1-9.4q.3 0 .6-.1c3.3-1.6 6.9.6 7 .6.5.3 1.1.2 1.4-.3s.2-1.1-.3-1.4c-.2-.1-4.7-2.9-9-.7-.5.2-.7.8-.5 1.3.2.4.5.6.8.6zm9.8 30.6q-.2 0-.5.2c-2.7 2.5-6.8 1.3-6.9 1.3-.5-.2-1.1.1-1.3.7-.1.5.2 1.1.7 1.3.3 0 5.3 1.5 8.9-1.7.4-.4.5-1.1.1-1.5-.3-.3-.6-.4-1-.3z" fill="#c16256"/><path d="m635.9 1057.1c13.1-85.1 62.3-65 62.3-65s27-14.1 49.3 20.1c35.4 54.2 76.8 40.6 86.6 89.5 9.5 47.8-55.6 102.2-133.1 66.8 0 0-78.4-25.7-65.1-111.4z" fill="#662948"/><path d="m892.2 1196.9c3.4 2.9-4.6 9.6-5 13.6 6.9-1.5 13.4-5 13.5-4.9 6.8-5.5 13.4-11.3 19.6-17.4 12.9-3.2-11.5 19.7-13.5 22.4q.1 0 .1.1c8.2-4.1 16.2-8.7 23.7-13.9 14-.3-18.1 18.7-20.9 20.7v.1c8.4-2.5 16.4-6.1 24-10.5 14.1.9-20 17.7-23.4 18.7v.1c6.9-1 13.6-2.9 20.2-5.2 13 2.8-18.6 13.1-21.8 13.7-1.9 1.5-14.3 5-29.9 5.8-5.1.3-9.4-13.4-7.2-17.9 2.1-4.2 6.4-9 7.9-10.8 2.4-3.9 7.6-15.9 12.7-14.6z" fill="#f99370"/><path d="m692.3 1156.4c12.7 9.4 19.5 23.7 29.4 36.9 11.6 16.4 24.8 33.9 41.8 45.5 36.2 23.4 81.3 14.1 119.3 1.7 13.8-4.3 7.6-26-6.4-22.2-32.5 7.4-76.1 14-99.1-15.6-22.2-25.7-29.1-61.7-54.1-85.8-27.1-24.9-61.7 19.1-30.9 39.5z" fill="#f99370"/><path d="m708.6 1201.7c4.1 11.5 9.6 20.4 15.8 27.3 11.6 13.2 25.4 19.1 35.8 21.1l1 .2c15.8 2.8 49.6-36.2 31.3-49.6s-15.1-21.5-36.9-53.7c-21.9-32.1-40.3-37.9-40.3-37.9.3 24.8-18.9 58.9-6.7 92.6z" fill="#ce4abf"/><path d="m415.7 1621.6-11.9-73.4c3.7-1.9 22-1.2 28.5-2.9 4.1-.4 55.7-14.8 61-16.1l6.9 42.2-55.4 2c-6.6.2-12 5.1-13 11.6-3 14.3 2 29.4-7.2 39.8-3.2 2.8-8.2 1-8.9-3.2z" fill="#f99370"/><path d="m410.5 1544.8c-2.4.7-4.7 1.8-6.7 3.4l12 74c.6 3.6 4.6 5.7 7.8 3.9 7.5-4.1 17.4-15.7 13.6-50.1 0 0-5.3-11.1-4.9-30.7 0 0-11.9-3.3-21.8-.5z" fill="#1d3f70"/><path d="m435.2 1612.3c-2.7-.8-2.4-5-11.4-7.2-.8-.2-1.3-1-1.1-1.8 3.3-4.7 19 8.7 12.5 9zm2.4-11c-.5 0-1-.3-1.3-.7 0 0-4.7-6.2-12.8-7.3-2-.3-1.6-3.3.4-3 9.4 1.3 14.6 8.2 14.9 8.5.7 1 0 2.5-1.2 2.5zm.4-13.8c-2.1-.3-5.1-5.9-15.1-7.8-2-.3-1.4-3.3.5-3 10.1 2.2 19.7 9.2 14.6 10.8z" fill="#e8c0a6"/><path d="m423.7 1626.1-13.2-81.3c-2.4.7-4.7 1.8-6.7 3.4l12 74c.6 3.7 4.7 5.7 7.9 3.9z" fill="#395b96"/><path d="m724.4 1229c11.6 13.2 25.4 19.1 35.8 21.1-6.6-13.3 2.5-19.1 4.2-41 1.7-22.8-18.3-46.7-18.3-46.7z" fill="#a523a2"/><path d="m743.6 1746.5-74.3-.8c-1.2-4 2.6-21.9 2-28.5 0-2.8-.8-18.1-1-20.9l5.6-41.9 32.7.3-7.5 54.9c-.9 6.5 3 12.7 9.2 14.8 13.7 5.4 29.2 3.1 38 13.8 2.3 3.7-.4 8.4-4.7 8.3z" fill="#f99370"/><path d="m667.1 1738.5c.3 2.5 1 5 2.2 7.2l75 .8c3.7.1 6.4-3.5 5.2-6.9-2.8-8.1-12.5-19.9-47.1-22.1 0 0-11.8 3.4-31.1-.3 0 0-5.3 11.1-4.2 21.3z" fill="#1d3f70"/><path d="m727.4 1736.7c-1 0-1.8-1.2-1.4-2.1 3.4-8.1 9.5-10.5 9.8-10.6 1.8-.7 2.9 2.2 1 2.9-.2.1-5.2 2.1-8 8.8-.2.6-.8 1-1.4 1zm-11.8-1.6c-1 0-1.8-1-1.4-2 2.8-10.1 16-17.5 12.3-10.5 0 .1-6.9 3.7-9.4 11.5-.2.6-.8 1-1.5 1zm-13.4-1.8c-1 0-1.8-1.1-1.4-2 3.3-9.2 10.5-13.9 10.8-14.1 1.6-1.1 3.3 1.5 1.6 2.6-.1 0-6.6 4.4-9.6 12.5-.2.6-.8 1-1.4 1z" fill="#e8c0a6"/><path d="m749.4 1739.4-82.3-.9c.3 2.5 1 5 2.2 7.2l75 .8c3.7.1 6.4-3.6 5.1-7.1z" fill="#395b96"/><path d="m444.4 1538.4s0 20.9 5.7 40.9c142.7-11.9 201.9-30.5 213-168.9 0 0 48.8 93.2 2.2 270.5-1.3 5.2-2.7 10.3-4.2 15.5 0 0 18.3 15 43.6 10.1 31.5-60 101.1-204.3 41-393.1-35.8-41.4-107.9-45.6-153.7-24.8-36.8 94.7 27.9 211.3-147.6 249.8z" fill="#3a72aa"/><g fill="#23659b"><path d="m444.4 1538.4s0 20.9 5.7 40.9c0 0 6.5-.4 16.8-1.5-6.5-16-6.3-43.3-6.3-43.3-5.1 1.4-10.6 2.6-16.2 3.9zm216.7 158s18.3 15 43.6 10.1c0 0 2.3-4.6 6.8-13.2 0 0-29.9 2.8-46.2-12.4q-2 7.7-4.2 15.5z"/><path d="m665.3 1680.9-1.4 5.4h9.1c31.6-94.9 37.2-251.3-9.9-275.9 0 0 48.8 93.2 2.2 270.5z"/><path d="m696.7 1701.9c25-56.9 41.6-112.4 49.5-165.1 6.3-42.2 7.1-82.7 2.2-120.3-8.4-64.3-29.9-97.6-30.8-98.9l-6.1 3.9 3-2-3 2c.2.4 21.7 33.6 29.8 96.4 7.4 58.1 4.6 154-51.2 281.1zm-240.7-127.7c51-4.9 89-13.7 116.3-26.8 27.1-13.1 45.5-31.3 56.3-55.8 26.8-61.4 17-184.5 16.5-189.7l-7.2.6c.1 1.3 10.2 126.5-16 186.2-20.2 46.1-68.5 68.8-166.6 78.3z"/></g><path d="m589.6 1295.4c31.8 15.1 106 46.8 157.3 21.9 2.9-6 3.3-15.3 1.2-21.9-19.9-68.3 33.3-77.2-2.9-134.5-8.1-12.7-23.4-40-29.8-51.8-6 14.3-23.6.7-30.7-7.5-5.2.3-62 5-84.8 126.3-2.3 12.3-33.7 48.5-10.3 67.5z" fill="#ce4abf"/><path d="m697.4 1272.8c.7 4.4-9.7 4.4-12.6 7.2 6.3 3.3 13.5 4.8 13.5 4.9 8.8.1 17.5-.1 26.3-.8 11.9 5.8-21.5 7.7-24.7 8.5q-.1.1-.1.2c9 2.1 18 3.7 27.1 4.5 11 8.7-25.8 2.7-29.3 2.5v.1c8 3.4 16.5 5.8 25.1 7.3 10.2 9.7-26.7.7-29.9-.6q-.1 0-.1.1c5.9 3.6 12.3 6.4 18.8 8.9 8.2 10.4-22.6-1.9-25.4-3.5-2.5 0-14.3-5.3-26.8-14.6-4.1-3.1 1.4-16.4 6-18.4 4.3-1.9 10.7-2.8 13-3.2 4.3-1.5 16-7.4 19.1-3.1z" fill="#f99370"/><path d="m642.8 1110c-30.4 22.8-61.8 58.1-73 94.7-17.7 50.5 45.7 80.1 86.5 92 8 3.1 17.3 4.7 20.6-5.4 2.3-9.3-5.4-13-12.6-15.7-13.4-6.2-27-14-38.1-23.4-13-10.7-23.4-25.3-13.3-40.6 12.1-24.8 32.8-45.9 56.2-59.5 27.5-17.3 1.3-59.2-26.3-42.1z" fill="#f99370"/><path d="m684.4 1101.6s-45.6-8.3-79 33c-33.5 41.4-60.8 93.9-38.6 107.6 12.7 7.9 14-12.9 45.4-6.8 24.4 4.8 19.7-40.6 56.4-78.7 20.2-20.9 20.9-47.6 15.8-55.1z" fill="#ce4abf"/><path d="m614.9 1237.8c3.9 0 17.1-2 26-28.2 9.6-28.4 26.3-48.3 26.5-48.5.7-.9.6-2.2-.3-2.9-.9-.8-2.2-.7-2.9.2-.7.8-17.4 20.7-27.3 49.9-9 26.8-22.4 25.4-22.6 25.4-1.1-.2-2.1.6-2.3 1.7-.1 1.1.6 2.2 1.7 2.4z" fill="#a523a2"/><path d="m715.3 1107.8s8.8 3.2 12.5 8.6c0 0-1.1 7.8-6.7 10.6-6.4 3.1-13-8.6-13-8.6s-1.4 10.2-9.3 9.5-22.9-12.3-27.7-26.9c0 0 9.6-1.7 13.3.6z" fill="#ffd2d2"/><path d="m716.5 1099.1-1.2 8.7c-3.1 13.8-26.9.5-30.6-6.2 0 0 1.1-5 1.5-9.5z" fill="#f99370"/><path d="m687 1060.1q0 .8.1 1.6c.7-.4.4 19.2-1.2 33.3 12.5 7.6 27.5 6.7 30.3 6.5 2.4-17.8 2.7-34.2 1.3-44.7-3.3-17.9-31.1-14.8-30.5 3.3z" fill="#e57d61"/><path d="m666.7 1049.4c2.5 13.8 7.4 29.3 18.5 38.3 4.4 3.6 9.9 5.9 15.6 6.9 32.1 8.8 70-29.8 44.2-56.5-9.3-8.4-11.5-23.4-18.9-31.7-10.9-15.3-34.2-14.1-46.7-1.4-11.2 11.6-14.9 27.3-12.7 44.4z" fill="#f99370"/><path d="m719.5 1040.1c1.2-2.5-2.6-4.3-3.8-1.9s2.6 4.3 3.8 1.9zm17.6-3.3c1.2-2.4-2.6-4.3-3.8-1.8-1.2 2.4 2.6 4.3 3.8 1.8zm-5.2 18.3c-1.3 0-4.1.5-4.1-1.2.2-.4.6-.7 1-.5 2.7.8 6.4-.6 6.9-1.8.2-.5-.4-.9-.9-1.1-4.5-2.2-10.4-14.6-6.3-11.8 0 .1 3.1 8.3 7.1 10.4 4.5 3-.2 5.4-3.7 6z" fill="#c16256"/><path d="m666.7 1049.4c2.5 13.8 7.4 29.3 18.5 38.3-6.2-7.4-10.2-24.2-10.2-24.2l2.7-7.5c47.9-16.2 43.2-55 43.2-55-29.4-23.3-60.9 16.7-54.2 48.4z" fill="#e57d61"/><path d="m716.2 997.4s4 38.5-38.8 54.7l-15.6-8.3c-15.5-29.3 11.6-73.5 54.4-46.4z" fill="#662948"/><path d="m665.4 986.8c10.5 36.2 52.5 24.6 43.1-11.8-10.5-36.1-52.6-24.6-43.1 11.8z" fill="#662948"/><path d="m658 1056.5c3.4 15.6 23.1 11.2 19.4-4.4-3.4-15.6-23.1-11.1-19.4 4.4z" fill="#f99370"/><path d="m663.2 1059.7c-3.3-3.4-2.1-10.3-.4-11.5 3.1-2.5 8.7-1.3 8.3.3-1 1.6-4.2-1.7-7.3.8-3.1 2.4 1.2 9-.6 10.4z" fill="#c16256"/><path d="m670.6 1058.5c-1.6-.1-2.3-6-8.6-6.5-.4-.1-.7-.4-.7-.9 4.3-3.3 12.2 7.6 9.3 7.4z" fill="#c16256"/><path d="m666.8 1062.6c0 2.3 3.7 2.3 3.6-.1 0-2.3-3.6-2.2-3.6.1z" fill="#f4d4be"/><path d="m725.4 1065.1c-1-.3-1.9-.9-2.6-1.8-1.4-1.9-1.2-4.4.4-5.6.8-.6 1.8-.7 2.9-.4 1 .2 1.9.9 2.5 1.8 1.4 1.9 1.2 4.4-.4 5.5q-.8.6-1.8.6-.5 0-1-.1zm-1.3-6.1c-.9.6-.9 2.2 0 3.4.4.6 1 1 1.7 1.2.6.1 1.1.1 1.5-.2.9-.7.9-2.2.1-3.4-.5-.6-1.1-1.1-1.7-1.2q-.3-.1-.6-.1-.6 0-1 .3z" fill="#c16256" fill-rule="evenodd"/><path d="m710.8 1035.7c.2 0 .4-.1.6-.3 2.8-4 8.3-4.1 8.3-4.1.5 0 .8-.3.8-.7 0-.5-.3-.8-.8-.8-.3 0-6.3 0-9.6 4.7-.2.3-.1.8.2 1q.2.2.5.2zm16.6-5.5q.2 0 .3-.1c4.9-2.3 8.6 0 8.7 0 .3.2.8.1 1-.3.3-.3.1-.8-.2-1-.2-.1-4.5-2.7-10.1-.1-.4.2-.6.7-.4 1.1.1.2.4.4.7.4z" fill="#c16256"/></svg>