<svg enable-background="new 0 0 500 500" viewBox="0 0 500 500" xmlns="http://www.w3.org/2000/svg"><path d="m93.92 440.006c85.676 39.027 224.583 39.027 310.258 0 85.674-39.027 85.674-102.303 0-141.331-85.674-39.027-224.581-39.027-310.258 0s-85.676 102.304 0 141.331z" fill="#f5f5f5"/><path d="m433.452 379.757c-19.96 9.514-52.322 9.514-72.282 0-19.961-9.512-19.961-24.937 0-34.451 19.96-9.512 52.322-9.512 72.282 0 19.96 9.514 19.96 24.939 0 34.451z" fill="#e0e0e0"/><path d="m133.92 392.465c-19.96 9.514-52.322 9.514-72.282 0-19.961-9.512-19.961-24.937 0-34.451 19.96-9.512 52.321-9.512 72.282 0 19.96 9.514 19.96 24.939 0 34.451z" fill="#e0e0e0"/><path d="m67.413 354.047h9.367v16.035h-9.367z" fill="#b16668" transform="matrix(-1 0 0 -1 144.193 724.13)"/><path d="m105.725 357.94 9.361.322.469-16.97-9.83-.322z" fill="#b16668"/><path d="m70.211 240.3c0 8.945.471 60.778.471 60.778-.218 2.574-2.696 7.15-2.888 16.421-.279 13.445-.781 44.566-.781 44.566s4.547 2.657 10.429.206c0 0 9.926-44.246 11.604-57.554 1.465-11.614 3.95-43.166 3.95-43.166l7.159 39.259s-1.727 6.927-1.161 14.886c.438 6.156 6.137 36.987 6.137 36.987s4.409 2.992 10.815.828c0 0 .559-48.397.667-54.044.123-6.439-2.685-61.825-2.685-61.825z" fill="#37474f"/><path d="m76.78 365.459s-.001-1.338 0-1.338c.502-.011.813.488 1.005 1.694.137.862.264 1.514.548 2.65.434 1.735.825 2.796 1.636 4.794 1.324 3.263 2.436 4.478 5.468 8.293.719.905 2.343 2.342 2.909 3.35s.766 3.812-.196 4.453c-3.537 2.358-8.907 2.423-12.706 1.31-2.923-.857-5.031-3.191-5.516-6.198-.139-.863-.088-1.746-.187-2.615-.226-1.982-1.221-3.793-2.346-5.441-.652-.956-1.362-1.89-1.799-2.961-.787-1.925-.156-4.091.347-6.009.434-1.656.905-3.477 1.47-3.322.002.202 0 1.021 0 1.021.68.753 2.561 1.501 4.683 1.583 1.371.053 4.695-.219 4.684-1.264z" fill="#263238"/><path d="m115.186 355.373c.486.017.882.703 1.955 1.864 1.297 1.403 3.417 2.917 5.51 3.965 3.507 1.756 10.326 4.457 13.413 5.847 1.928.868 1.838 3.197-.155 4.523-1.993 1.325-6.804 2.28-12.582.988-3.147-.704-7.244-3.611-9.838-3.454-2.593.157-7.446.12-9.36-1.2-1.914-1.319-1.148-4.138-.607-6.559.59-2.643 1.329-6.764 2.204-6.583v.911c1.126 1.705 6.937 2.399 9.411 1.144z" fill="#263238"/><path d="m92.996 261.551s7.487-2.109 13.043-7.479c0 0-2.517 4.712-10.001 9.098l3.621 34.921z" fill="#263238"/><path d="m107.889 218.904c-6.123-20.384-4.905-37.642-6.056-42.928l15.685 21.914s1.143 12.636 3.207 21.503c1.813 7.79 4.283 17.502 7.246 23.54.525 1.07 1.45 1.886 2.553 2.337 2.96 1.208 4.333 2.736 6.708 4.493 1.86 1.376 3.272 1.554 3.155 2.114-.149.72-1.084 2.005-3.116 1.751-1.022-.128-2.407-.671-4.144-1.399 0 0 1.686 3.087 5.035 5.996 4.538 3.941 5.191 6.732-2.356 8.108-4.729.862-9.015-1.405-14.387-11.225-1.548-2.829-3.977-7.297-5.359-11.144-3.598-10.015-6.319-18.896-8.171-25.06z" fill="#b16668"/><path d="m100.564 170.906c4.87.862 9.685 2.046 12.676 6.681 2.992 4.635 7.308 26.772 7.308 26.772s-6.277 4.405-13.48 4.219z" fill="#27debf"/><path d="m100.564 170.906c4.87.862 9.685 2.046 12.676 6.681 2.992 4.635 7.308 26.772 7.308 26.772s-6.277 4.405-13.48 4.219z" opacity=".1"/><path d="m67.013 179.124c-3.276 2.328-20.521 41.286-21.179 44.016-.889 3.688-.48 7.824 1.323 9.157 1.86 1.375 5.803-.576 7.895-2.62 4.042-3.949 18.046-33.133 18.046-33.133z" fill="#9a4a4d"/><path d="m84.147 170.954c-7.949 1.914-18.037 5.124-21.568 12.45-3.53 7.327-8.981 19.202-8.981 19.202 3.584 3.523 7.952 6.139 13.162 7.779l4.04-7.032-.589 36.947c6.451 4.699 30.143 7.257 43.719-2.658 0 0-1.661-44.366-1.661-51.271 0-6.906-3.837-15.202-14.431-15.818z" fill="#27debf"/><path d="m70.801 203.353s3.985-6.917 4.851-8.581l-4.986 17.017z" opacity=".1"/><circle cx="99.306" cy="140.168" fill="#263238" r="12.873"/><path d="m77.053 149.321s2.086 9.8 2.923 11.411c.837 1.61 2.565 2.068 2.565 2.068l-.146-6.894z" fill="#263238"/><path d="m79.671 135.281s-2.247-.385-3.998 1.406c-1.717 1.756-.758 7.251 1.38 12.634l3.929.451z" fill="#263238"/><path d="m82.161 149.775c-.788.471-1.912-1.043-2.884-2.06-.972-1.016-4.144-2.406-5.726.928-1.612 3.398 1.397 7.887 3.894 8.671 4.303 1.351 4.95-1.41 4.95-1.41l.318 15.999c5.351 6.86 20.2 6.281 14.013-.885l-.012-4.724s3.899.592 5.801.298c3.165-.489 5.156-2.986 6.116-6.412 1.542-5.503 2.127-9.946.819-20.768-1.434-11.861-15.23-11.985-22.68-7.296s-4.609 17.659-4.609 17.659z" fill="#b16668"/><path d="m82.161 151.101c-.396.008-1.903-2.493-2.884-3.385-1.359-1.237.394-12.435.394-12.435s-1.681-3.165.936-6.046c1.862-2.049 4.459-4.551 12.907-3.552 6.022.712 12.576 2.59 17.872-.011.793 3.295.152 6.97-3.139 9.574 0 0-1.917 1.236-6.958 1.849-5.041.614-12.894-.118-13.967-.265-1.462-.2-1.774 1.217-2.562 5.088-.693 3.398-1.267 9.157-2.599 9.183z" fill="#263238"/><path d="m79.679 136.152-4.764-2.557c.676-1.365 2.291-1.899 3.606-1.193 1.316.706 1.834 2.385 1.158 3.75z" fill="#263238"/><path d="m96.714 166.294s-7.065-1.423-9.535-2.736c-1.653-.879-3.015-2.402-3.414-3.378 0 0 .463 2.096 1.94 3.984 1.806 2.309 11.009 4.01 11.009 4.01z" fill="#9a4a4d"/><path d="m95.016 148.009c0 .813-.634 1.469-1.416 1.467s-1.416-.662-1.416-1.475c0-.812.634-1.469 1.416-1.467s1.416.663 1.416 1.475z" fill="#263238"/><path d="m93.514 142.664-3.029 1.672c-.447-.87-.131-1.95.706-2.411.836-.463 1.876-.131 2.323.739z" fill="#263238"/><path d="m96.074 157.789 3.232 1.213c-.32.926-1.303 1.406-2.195 1.071-.893-.335-1.357-1.358-1.037-2.284z" fill="#9a4a4d"/><path d="m107.641 143.842-2.762-2.127c.563-.791 1.638-.956 2.401-.368.762.587.924 1.704.361 2.495z" fill="#263238"/><path d="m106.79 147.606c0 .812-.634 1.469-1.416 1.467s-1.416-.662-1.416-1.475c0-.812.634-1.469 1.416-1.467.783.002 1.416.663 1.416 1.475z" fill="#263238"/><path d="m99.577 146.263.465 8.514 4.446-1.515z" fill="#9a4a4d"/><path d="m61.889 246.869c-.276 0-.5-.224-.5-.5v-157.284c0-.276.224-.5.5-.5s.5.224.5.5v157.284c0 .276-.223.5-.5.5z" fill="#37474f"/><path d="m65.689 102.78c0-1.606-3.329-6.022-3.963-6.022s-3.638 4.31-3.638 6.022c0 .564.369 1.129 1.108 1.559 1.477.861 3.883.861 5.375 0 .745-.431 1.118-.995 1.118-1.559z" fill="#27debf"/><path d="m65.689 102.78c0-1.606-3.329-6.022-3.963-6.022s-3.638 4.31-3.638 6.022c0 .564.369 1.129 1.108 1.559 1.477.861 3.883.861 5.375 0 .745-.431 1.118-.995 1.118-1.559z" opacity=".1"/><path d="m84.006 67.876c0 12.305-9.651 27.84-22.279 30.783-12.699-3.551-22.279-18.478-22.279-30.783 0-12.304 7.926-23.795 22.279-23.795 14.352.001 22.279 11.491 22.279 23.795z" fill="#27debf"/><path d="m40.269 61.13c-.544 2.174-.822 4.446-.822 6.746 0 12.305 9.58 27.231 22.279 30.783 10.498-2.446 18.932-13.594 21.481-24.355s-3.315 11.807-17.927 12.751-26.399-15.742-25.011-25.925z" opacity=".05"/><path d="m47.652 232.518c-2.667-.756-5.39-8.715-5.19-13.821s7.054-27.153 8.027-31.4c1.071-4.68.996-8.237 1.949-10.67 1.403-3.583 5.963-5.553 5.963-5.553s5.974-2.872 8.16-3.301 2.999.962 2.763 2.129-1.043 3.958-1.203 5.555-.575 3.872-1.709 5.683c-1.134 1.81-5.741 6.138-5.92 8.547-.178 2.41-1.511 15.497-2.275 25.015-.625 7.777-1.408 11.013-3.097 13.053-1.69 2.04-5.398 5.35-7.468 4.763z" fill="#b16668"/><path d="m413.572 345.042h9.496v16.255h-9.496z" fill="#ffa8a7"/><path d="m390.145 344.175-9.49.326-.475-17.203 9.965-.326z" fill="#ffa8a7"/><path d="m420.023 224.048c0 9.068 1.414 63.545 1.414 63.545.221 2.609 2.733 7.248 2.928 16.646.283 13.629-.892 48.931-.892 48.931s-4.609 2.694-10.572.209c0 0-8.379-48.607-10.081-62.098-1.485-11.773-4.004-43.758-4.004-43.758l-5.147 38.436s1.75 7.022 1.177 15.091c-.444 6.24-4.1 37.797-4.1 37.797s-4.47 3.033-10.964.839c0 0-4.799-48.001-4.908-53.726-.125-6.527 3.158-73.157 3.158-73.157z" fill="#27debf"/><path d="m382.78 205.316c6.123-20.384 4.905-37.642 6.056-42.928l-15.685 21.914s-1.143 12.636-3.207 21.503c-1.813 7.79-4.283 17.502-7.246 23.54-.525 1.07-1.45 1.886-2.553 2.337-2.96 1.208-4.333 2.736-6.708 4.493-1.86 1.376-3.272 1.554-3.155 2.114.149.72 1.084 2.006 3.116 1.751 1.022-.128 2.407-.671 4.144-1.399 0 0-1.686 3.087-5.035 5.996-4.538 3.942-5.191 6.732 2.356 8.108 4.729.862 9.015-1.405 14.386-11.225 1.548-2.829 3.977-7.297 5.359-11.144 3.599-10.015 6.32-18.896 8.172-25.06z" fill="#ffa8a7"/><path d="m390.105 157.318c-4.87.862-9.685 2.046-12.676 6.681-2.992 4.635-7.308 26.772-7.308 26.772s6.277 4.405 13.48 4.219z" fill="#e0e0e0"/><path d="m423.656 165.536c3.276 2.328 20.521 41.286 21.179 44.016.889 3.688.48 7.824-1.323 9.157-1.86 1.375-5.803-.576-7.895-2.62-4.042-3.949-18.046-33.133-18.046-33.133z" fill="#f28f8f"/><path d="m406.677 157.312c7.949 1.914 18.037 5.124 21.568 12.45 3.531 7.327 8.981 19.202 8.981 19.202-3.584 3.523-7.952 6.139-13.162 7.78l-4.04-7.032.591 36.947c-6.451 4.699-30.143 7.257-43.719-2.658 0 0 1.661-44.366 1.661-51.271 0-6.906 3.837-15.202 14.431-15.818z" fill="#f0f0f0"/><path d="m420.023 189.711s-3.985-6.917-4.851-8.581l4.986 17.017z" fill="#e0e0e0"/><path d="m413.572 356.61v-1.358c-.908.396-3.02 8.45-6.787 11.886-2.995 2.732-7.081 5.887-8.12 8.933-1.081 3.168 5.69 4.916 8.488 4.421 3.251-.576 8.887-2.865 10.301-4.987 1.415-2.122 2.077-5.253 3.226-6.809 1.15-1.555 3.799-3.292 4.421-5.092.342-.989-.064-3.155-.544-4.985-.44-1.679-.917-3.525-1.491-3.367-.002.205 0 1.035 0 1.035-.689.764-2.596 1.522-4.747 1.605-1.388.053-4.759-.222-4.747-1.282z" fill="#263238"/><path d="m380.554 341.573c-.493.017-.894.713-1.982 1.89-1.314 1.423-3.464 2.957-5.586 4.019-3.556 1.78-10.468 4.518-13.597 5.927-1.955.88-1.863 3.241.158 4.585 2.02 1.343 6.898 2.311 12.755 1.002 3.191-.714 7.344-3.66 9.973-3.501s7.548.121 9.488-1.216 1.164-4.194.616-6.649c-.598-2.679-1.347-6.857-2.234-6.674v.923c-1.142 1.729-7.033 2.432-9.54 1.16z" fill="#263238"/><path d="m398.816 247.523s-7.59-2.138-13.223-7.581c0 0 2.551 4.777 10.139 9.223l-1.623 33.505z" opacity=".1"/><path d="m409.661 121.969s2.197-.376 3.909 1.375c1.679 1.717 1.33 4.895-.003 12.198l-5.189.596z" fill="#263238"/><path d="m379.406 119.856s-2.096.002-3.247-.659c-1.593-.915-2.008.895-1.135 2.468s2.503 3.622 6.021 4.01c.047-.226 1.489-4.053 1.489-4.053z" fill="#263238"/><path d="m407.227 136.14c.771.46 1.87-1.02 2.82-2.014s4.051-2.352 5.599.908c1.576 3.322-2.003 7.74-4.104 9.2-2.497 1.735-4.314.374-4.314.374l-.55 12.704s-2.755 6.741-10.216 7.753-5.925-5.139-3.474-8.154l.012-4.62s-3.85.76-5.672.291c-1.929-.496-4.497-2.365-5.525-5.688-1.29-4.173-2.826-11.341-1.256-20.887 1.896-11.527 14.891-11.718 22.176-7.133 7.281 4.585 4.504 17.266 4.504 17.266z" fill="#ffa8a7"/><path d="m407.227 137.436c.388.007 1.861-2.438 2.82-3.31 1.329-1.209-.385-12.158-.385-12.158s1.344-4.153-1.282-6.907-7.715-2.289-11.436-2.423c-3.872-.139-8.017-.373-13.303-2.669-5.285-2.296-5.68-2.567-6.336-.246s-.902 7.636 2.251 11.198l2.624.964s1.417 1.257 6.346 1.857 12.607-.115 13.656-.259c1.429-.196 1.734 1.19 2.505 4.974.676 3.323 1.237 8.954 2.54 8.979z" fill="#263238"/><path d="m409.654 122.82 4.658-2.5c-.661-1.335-2.24-1.857-3.526-1.166-1.287.69-1.794 2.331-1.132 3.666z" fill="#263238"/><path d="m392.998 152.291s6.908-1.391 9.323-2.675c1.616-.859 2.947-2.348 3.338-3.303 0 0-.452 2.049-1.897 3.896-1.766 2.258-10.764 3.921-10.764 3.921z" fill="#f28f8f"/><path d="m394.652 134.185c0 .794.62 1.436 1.384 1.434.765-.002 1.384-.648 1.384-1.442s-.62-1.437-1.384-1.435c-.764.003-1.384.648-1.384 1.443z" fill="#263238"/><path d="m396.371 128.454 2.961 1.634c.436-.851.128-1.906-.69-2.358-.817-.451-1.834-.127-2.271.724z" fill="#263238"/><path d="m394.762 143.799-3.16 1.186c.313.906 1.274 1.375 2.146 1.047.873-.327 1.327-1.327 1.014-2.233z" fill="#f28f8f"/><path d="m381.672 130.428 2.7-2.08c-.551-.773-1.602-.934-2.347-.36-.746.574-.904 1.667-.353 2.44z" fill="#263238"/><path d="m383.217 133.79c0 .794.62 1.436 1.384 1.434s1.384-.648 1.384-1.442-.62-1.436-1.384-1.434c-.765.002-1.384.648-1.384 1.442z" fill="#263238"/><path d="m390.786 132.706-.454 8.325-4.347-1.482z" fill="#f28f8f"/><path d="m428.78 233.281c-.276 0-.5-.224-.5-.5v-157.284c0-.276.224-.5.5-.5s.5.224.5.5v157.285c0 .276-.223.499-.5.499z" fill="#37474f"/><path d="m424.98 89.192c0-1.606 3.329-6.022 3.963-6.022s3.638 4.31 3.638 6.022c0 .564-.369 1.128-1.108 1.559-1.477.861-3.883.861-5.375 0-.745-.431-1.118-.995-1.118-1.559z" fill="#27debf"/><path d="m424.98 89.192c0-1.606 3.329-6.022 3.963-6.022s3.638 4.31 3.638 6.022c0 .564-.369 1.128-1.108 1.559-1.477.861-3.883.861-5.375 0-.745-.431-1.118-.995-1.118-1.559z" opacity=".1"/><path d="m406.663 54.288c0 12.305 9.651 27.84 22.279 30.783 12.699-3.551 22.279-18.478 22.279-30.783s-7.926-23.795-22.279-23.795c-14.352.001-22.279 11.491-22.279 23.795z" fill="#27debf"/><path d="m450.26 60.716s-3.315 11.807-17.927 12.751c-14.08.91-25.532-14.548-25.106-24.786-.373 1.823-.564 3.705-.564 5.607 0 12.305 9.651 27.84 22.279 30.783 10.525-2.943 18.901-13.699 21.463-24.301z" opacity=".05"/><path d="m443.017 218.93c2.667-.756 5.39-8.715 5.19-13.822-.2-5.106-7.054-27.153-8.027-31.4-1.071-4.68-.996-8.237-1.949-10.67-1.403-3.583-5.963-5.553-5.963-5.553s-5.974-2.872-8.16-3.301-2.999.962-2.763 2.129 1.043 3.958 1.203 5.555.575 3.872 1.709 5.683 5.741 6.138 5.92 8.548c.178 2.41 1.511 15.497 2.275 25.015.625 7.777 1.408 11.013 3.097 13.053 1.691 2.041 5.399 5.35 7.468 4.763z" fill="#ffa8a7"/><path d="m220.908 357.834c-19.96 9.514-52.322 9.514-72.282 0-19.961-9.512-19.961-24.937 0-34.451 19.96-9.512 52.322-9.512 72.282 0 19.96 9.515 19.96 24.939 0 34.451z" fill="#e0e0e0"/><path d="m329.508 365.246c-19.96 9.514-52.322 9.514-72.282 0-19.961-9.512-19.961-24.937 0-34.451 19.96-9.512 52.322-9.512 72.282 0 19.961 9.514 19.961 24.939 0 34.451z" fill="#e0e0e0"/><path d="m197.63 139.701c2.646-.383 4.888 0 9.518 6.323 4.141 5.654 12.393 15.155 12.393 15.155s7.441-19.552 7.24-22.192-1.867-4.243-2.953-9.09-1.384-5.761-2.2-7.169 1.989-1.751 3.132 0c1.144 1.751 1.272 4.228 2.058 3.779s1.333-5.752.664-9.576 1.069-4.679 1.859-3.462.948 2.25.948 2.25 2.53-.667 4.503 1.519 3.656 5.532 3.655 11.205-2.637 8.7-3.027 11.258c-.39 2.557-4.989 26.289-8.277 34.306-2.066 5.038-4.909 6.526-8.392 3.594-4.689-3.948-17.563-19.77-17.563-19.77z" fill="#ffa8a7"/><path d="m197.63 139.701c2.394-.708 4.963-.15 7.42 2.754s11.28 14.118 11.28 14.118-.261 5.735-7.669 11.053l-8.45-9.098z" fill="#27debf"/><path d="m210.155 324.862-.08-1.335c.62 1.535 3.467 8.131 7.374 11.288 3.106 2.51 7.309 5.372 8.511 8.305 1.249 3.051-5.342 4.496-8.122 4.174-3.231-.375-7.476-1.941-9.893-4.572-1.7-1.85-2.846-4.095-4.067-5.556-1.222-1.462-3.93-3.013-4.647-4.746-.394-.952-.123-3.106.241-4.933.334-1.677.901-3.672 1.474-3.551.014.201-.145 1.17-.145 1.17.723.711 2.643 1.344 4.762 1.298 1.368-.031 4.666-.5 4.592-1.542z" fill="#263238"/><path d="m220.256 337.018c-.962-.761-1.929-1.502-2.808-2.213-2.73-2.206-4.942-6.092-6.239-8.756-.007-.015-.015-.03-.022-.046-1.044-2.165-1.305-4.183-1.253-6.892l.119-3.151-9.98.201.727 8.933v.001l.014.231.049.021c.565 1.913 5.159 6.818 7.795 10.037 1.767 2.159 5.039 4.843 8.774 5.115 3.537.26 5.265-.955 2.824-3.481z" fill="#ffa8a7"/><path d="m154.317 325.96c-.478-.28-1.268 1.349-2.101 2.591-.832 1.241-1.339 3.511-1.213 5.087s.251 2.646-.313 5.965-1.533 7.13 1.812 10.187c2.865 2.618 9.262 3.841 11.304 2.025 1.138-1.013 1.282-2.094 1.251-2.818-.136-.975-1.153-3.087-1.682-4.175-1.873-3.855-2.114-4.641-2.114-4.641z" fill="#263238"/><path d="m163.34 320.376c-.444-.368-1.393 11.912-1.662 14.834-.281 3.047.244 4.453.72 7.565.183.69.238 1.629-.153 2.226-.439.671-1.337.99-2.139.996-2.112.018-3.801-.774-5.58-2.782-.876-.989-.936-3.657-.889-4.619.081-1.669.242-3.168.088-4.832-.158-1.716-.655-3.719-.437-4.967.217-1.243.529-1.689 1.029-2.837.808-1.852 1.349-6.909 1.349-6.909s7.67 1.324 7.674 1.325z" fill="#ffa8a7"/><path d="m167.533 190.194c-5.194 6.665-6.13 13.55-4.996 33.04 1.134 19.489-.509 35.332-.795 36.425s-3.578 11.827-5.128 19.059c-1.815 8.467-2.064 43.342-2.064 43.342s3.693 2.025 9.389.64c0 0 13.765-54.494 15.222-58.882s12.508-49.666 12.508-49.666l-1.405-26.068z" fill="#37474f"/><path d="m207.217 212.615c-.791-8.997-2.717-24.59-2.717-24.59l-23.01-1.351c-3.729 5.807-2.107 15.471-1.093 24.198l13.158 51.523c-.266 2.465-2.539 7.698 0 20.96 2.835 14.812 6.305 34.409 6.305 34.409s5.398 2.198 10.36.108c0 0 1.904-46.919.686-59.734-1.317-13.866-3.148-39.366-3.689-45.523z" fill="#37474f"/><path d="m187.635 234.467 3.756-18.901s5.606-1.947 9.388-4.788c0 0-3.094 3.994-6.572 6.057z" fill="#263238"/><path d="m168.923 144.416c-2.583 1.498-6.848 2.857-8.633 7.878-2.427 7.027-8.879 25.18-11.357 31.706h11.922l8.242-16.901c6.385-5.481 5.527-20.711-.174-22.683z" fill="#ffa8a7"/><path d="m203.042 173.406c.567 5.252 2.685 24.673 2.685 24.673-17.345 9.256-38.858 3.123-42.151-.692 2.983-9.816 6.192-15.404 8.646-18.017l-3.124-12.271s7.27-8.646-.174-22.683l9.669-3.179 13.233-1.143 5.804-.393c2.07 1.936 5.331 8.889 7.446 14.302 1.362 3.489 2.837 9.064-2.034 19.403z" fill="#f5f5f5"/><path d="m168.923 144.416c-5.7 1.124-8.263 3.924-10.542 10.147-2.464 6.73-5.41 14.012-5.41 14.012s4.866 7.751 14.618 6.047l3.695-10.29c0-.001 4.941-9.089-2.361-19.916z" fill="#27debf"/><path d="m170.67 173.276c.153.603 4.213 5.969 6.204 7.241 1.992 1.272-3.529 3.016-4.308 6.157-1.574 6.347 8.244 14.456 20.447 15.617-13.791 2.264-26.924-1.991-29.438-4.904 2.983-9.816 6.191-15.404 8.645-18.017z" fill="#e6e6e6"/><path d="m207.148 138.47h-18.532c-12.525 0-22.678-10.153-22.678-22.678 0-11.38 9.225-20.605 20.605-20.605 11.38 0 20.605 9.225 20.605 20.605z" fill="#263238"/><path d="m199.789 104.161c2.176 1.286 4.866 6.76 4.601 18.236-.225 9.726-3.377 12.129-4.96 12.821-1.583.693-4.636.271-7.604-.223v5.837s-.279 2.106-1.846 3.087c-2.418 1.514-5.283.937-6.889.359-3.547-1.277-4.255-3.022-4.255-3.022l.067-13.421s-1.747 1.697-4.709-.893c-2.445-2.138-3.269-5.743-1.363-7.677 1.905-1.934 5.427-1.408 6.778 1.35 0 0 1.741.142 3.482-3.09 0 0-.058-8.784 1.897-9.929 6.207-3.633 10.628-3.435 14.801-3.435z" fill="#ffa8a7"/><path d="m191.824 119.337c.035.701-.483 1.295-1.158 1.327s-1.25-.51-1.285-1.211.483-1.295 1.158-1.327 1.25.51 1.285 1.211z" fill="#263238"/><path d="m193.858 128.198 2.841.906c-.236.813-1.063 1.269-1.847 1.019-.786-.25-1.23-1.111-.994-1.925z" fill="#f28f8f" opacity=".5"/><path d="m202.881 115.533-2.474-1.715c.452-.707 1.372-.895 2.055-.421.683.473.871 1.43.419 2.136z" fill="#263238"/><path d="m190.119 115.042-2.811 1.079c-.33-.771.032-1.638.809-1.936.775-.297 1.672.087 2.002.857z" fill="#263238"/><path d="m202.207 119.069c.035.701-.483 1.295-1.158 1.327s-1.25-.51-1.285-1.211.483-1.295 1.157-1.327c.675-.032 1.251.511 1.286 1.211z" fill="#263238"/><path d="m196.338 118.369.194 7.362 3.875-1.2z" fill="#f28f8f" opacity=".5"/><path d="m191.826 134.995c-3.128-.41-9.562-2.259-10.565-4.803 0 0 .334 1.599 2.256 3.246 1.923 1.647 8.309 3.504 8.309 3.504z" fill="#f28f8f" opacity=".5"/><path d="m183.561 96.288-.476-5.402c1.517-.184 2.853.876 2.984 2.368.132 1.492-.991 2.851-2.508 3.034z" fill="#263238"/><path d="m183.271 96.834-4.374-3.205c.862-1.261 2.54-1.566 3.748-.681 1.209.885 1.489 2.625.626 3.886z" fill="#263238"/><path d="m179.609 120.615v5.116c1.923 0 3.482-1.559 3.482-3.482v-4.724z" fill="#263238"/><path d="m193.533 96.404c9.554 0 17.298 7.745 17.298 17.298v2.243h-8.465c-3.941 0-7.275-2.912-7.806-6.817l-.311 6.817c-3.248 0-5.958-2.483-6.24-5.719l-.097-1.111c-.308 3.857-3.529 6.83-7.398 6.83h-.75l-.867-12.222z" fill="#263238"/><path d="m311.118 338.322v-1.338c-.527 1.569-2.974 8.324-6.686 11.708-2.95 2.691-6.975 5.799-7.999 8.799-1.065 3.12 5.601 4.169 8.357 3.68 3.203-.567 7.346-2.384 9.602-5.155 1.586-1.948 2.595-4.258 3.728-5.79 1.132-1.532 3.742-3.243 4.355-5.016.336-.974-.063-3.107-.536-4.91-.434-1.654-.904-3.472-1.468-3.317-.002.202 0 1.02 0 1.02-.679.752-2.558 1.499-4.676 1.581-1.369.053-4.689-.218-4.677-1.262z" fill="#263238"/><path d="m301.762 351.06c.915-.817 1.836-1.615 2.671-2.376 2.593-2.366 4.569-6.376 5.704-9.113.648-1.563.981-3.23.981-4.922v-5.331h9.354v8.677.001.231l-.047.024c-.45 1.944-4.742 7.114-7.181 10.485-1.634 2.26-4.741 5.135-8.452 5.631-3.519.469-5.316-.64-3.03-3.307z" fill="#b16668"/><path d="m274.634 329.102v-1.338c-.527 1.569-2.975 8.324-6.686 11.708-2.95 2.691-6.975 5.799-7.999 8.799-1.065 3.12 5.601 4.169 8.357 3.68 3.203-.567 7.346-2.384 9.602-5.155 1.586-1.948 2.596-4.258 3.728-5.79s3.742-3.243 4.355-5.016c.336-.974-.063-3.107-.536-4.91-.434-1.654-.904-3.472-1.468-3.317-.001.202 0 1.02 0 1.02-.679.752-2.558 1.499-4.676 1.581-1.368.053-4.688-.219-4.677-1.262z" fill="#263238"/><path d="m265.278 341.84c.915-.817 1.836-1.615 2.671-2.376 2.593-2.366 4.569-6.376 5.704-9.113.648-1.563.981-3.23.981-4.922v-5.331h9.353v8.678.001.231l-.047.024c-.45 1.944-4.742 7.114-7.181 10.485-1.634 2.26-4.741 5.135-8.452 5.631-3.517.468-5.315-.641-3.029-3.308z" fill="#b16668"/><path d="m318.61 192.96c7.251 15.838-.262 71.628-.262 71.628.218 2.57 3.157 7.627 4.251 18.939 1.294 13.366-2.03 46.925-2.03 46.925s-4.331 2.832-9.452.376c0 0-8.914-50.543-10.59-63.832-1.463-11.597-4.271-37.097-4.271-37.097l-7.98 37.035s2.048 6.497 2.528 11.446c.757 7.817-6.816 44.21-6.816 44.21s-3.227 1.184-9.353.282c0 0-2.679-48.295-3.385-57.711-1.186-15.814 3.014-65.155 5.915-74.516z" fill="#37474f"/><path d="m296.257 229.898-2.354-14.71s-9.96-2.063-14.477-6.31c0 0 4.739 5.895 11.778 7.825l2.644 11.325-4.622 34.292z" fill="#263238"/><path d="m291.376 137.515c-4.373-.611-8.807.749-11.951 4.939s-15.263 39.436-15.263 39.436h10.907l14.947-29.538z" fill="#b16668"/><path d="m305.819 137.938c9.296.64 9.948 5.129 12.275 10.039 1.771 3.738 1.791 8.073.439 11.982l-6.478 18.741s3.033 7.332 6.555 14.259c-16.257 9.074-36.558 4.304-41.446-2.317-.207-1.405 1.05-12.385 1.823-19.557-2.863-7.183-3.619-11.736-2.411-16.484 2.242-8.813 10.948-17.4 14.8-17.087z" fill="#f5f5f5"/><path d="m301.661 194.718c5.34-1.264 8.728-6.666 7.317-11.97-.053-.201-.109-.374-.166-.511-1.045-2.513-3.292-2.183-3.292-2.183 2.107-1.397 3.57-3.577 4.064-6.057l1.973-9.91s-3.665-11.642-3.293-15.63l9.329.539s.469.326 1.207.839c1.018 3.273.866 6.846-.267 10.124l-6.478 18.741s3.033 7.332 6.555 14.259c-11.981 6.687-26.151 5.852-34.737 2.301 6.782 1.053 13.065.576 17.788-.542z" fill="#e6e6e6"/><path d="m340.047 184.407s-9.226-18.16-15.323-32.054c-4.406-10.042-5.392-12.305-12.4-13.391l-2.478-.384c-3.321 10.915-1.033 15.859 3.344 23.333l15.19 28.803c3.44-.682 11.741-5.268 11.667-6.307z" fill="#b16668"/><path d="m295.411 130.234h6.55c9.682 0 17.53-7.849 17.53-17.53v-2.942c0-9.738-7.895-17.633-17.633-17.633h-6.344c-9.738 0-17.633 7.895-17.633 17.633v2.942c0 9.681 7.848 17.53 17.53 17.53z" fill="#263238"/><path d="m284.715 100.542c-2.198 1.299-4.914 6.826-4.646 18.413.227 9.821 3.41 12.246 5.009 12.946 1.598.699 4.681.274 7.678-.226v5.894s-4.142 4.811-3.881 7.513c.261 2.703 5.98 3.341 9.856.701s6.36-6.659 6.36-6.659v-14.247s2.023 2.702 5.332.504 3.435-7.637 1.511-9.59-6.07-1.334-6.843 1.364c0 0-4.779.174-11.144-3.322-6.363-3.495-8.809-9.483-9.232-13.291z" fill="#b16668"/><path d="m292.134 116.488c-.036.708.488 1.308 1.169 1.34s1.262-.515 1.298-1.223-.488-1.308-1.169-1.34c-.682-.032-1.263.515-1.298 1.223z" fill="#263238"/><path d="m290.704 124.813-2.868.915c.238.821 1.073 1.282 1.865 1.029s1.242-1.123 1.003-1.944z" fill="#9a4a4d"/><path d="m282.008 112.696 2.499-1.732c-.456-.714-1.385-.904-2.075-.426-.69.479-.88 1.444-.424 2.158z" fill="#263238"/><path d="m282.584 115.595c-.036.708.488 1.307 1.169 1.34.681.032 1.262-.515 1.298-1.223.035-.708-.488-1.307-1.169-1.34-.681-.032-1.262.515-1.298 1.223z" fill="#263238"/><path d="m288.616 114.888-.196 7.434-3.913-1.212z" fill="#9a4a4d"/><path d="m292.756 131.675c3.158-.414 9.656-2.281 10.668-4.849 0 0-.337 1.614-2.278 3.278s-8.39 3.538-8.39 3.538z" fill="#9a4a4d"/><path d="m316.896 94.356c-4.055 1.696-3.141 5.177-1.444 9.232s3.532 7.15 7.588 5.454c4.055-1.697 5.968-6.359 4.271-10.415-1.697-4.055-6.36-5.967-10.415-4.271z" fill="#263238"/><path d="m313.326 97.981-1.42-6.772c1.894-.463 3.747.679 4.139 2.549.392 1.871-.825 3.761-2.719 4.223z" fill="#263238"/><path d="m134.7 181.89h211.951v48.526h-211.951z" fill="#27debf"/><g fill="#fff"><path d="m163.534 217.347c-.152-.115-.28-.324-.381-.629l-5.186-16.702c-.025-.076-.038-.178-.038-.305 0-.33.203-.495.61-.495h2.936c.305 0 .52.051.648.152.127.102.216.28.267.534l3.317 11.668 3.775-10.028c.101-.254.216-.438.343-.553.127-.114.33-.171.61-.171h1.64c.279 0 .477.051.591.152.115.102.222.292.324.572l3.737 10.028 3.356-11.668c.076-.254.165-.432.267-.534.101-.101.318-.152.648-.152h2.936c.406 0 .61.166.61.495 0 .127-.013.229-.038.305l-5.224 16.702c-.102.33-.223.546-.362.647-.14.102-.362.153-.667.153h-2.212c-.28 0-.483-.057-.61-.171-.128-.115-.255-.324-.381-.629l-3.813-10.257-3.813 10.257c-.128.305-.261.514-.401.629-.14.114-.35.171-.629.171h-2.174c-.304.001-.533-.056-.686-.171z"/><path d="m190.34 217.08c-1.601-.673-2.879-1.716-3.832-3.127-.954-1.411-1.43-3.171-1.43-5.281 0-3.279.877-5.77 2.631-7.473s4.245-2.555 7.474-2.555c3.203 0 5.624.826 7.264 2.478s2.46 4.042 2.46 7.168c0 .89-.407 1.335-1.22 1.335h-13.994c0 1.678.584 2.969 1.754 3.87 1.169.903 2.796 1.354 4.881 1.354 2.008 0 3.813-.458 5.414-1.373.178-.102.318-.153.42-.153.177 0 .318.115.419.343l.915 1.639c.076.153.114.292.114.419 0 .178-.114.343-.343.496-1.042.636-2.167 1.106-3.374 1.41-1.208.305-2.6.458-4.175.458-1.984.003-3.776-.335-5.378-1.008zm10.143-10.276c0-1.576-.438-2.809-1.315-3.699s-2.193-1.335-3.947-1.335c-1.779 0-3.146.457-4.099 1.373-.953.915-1.43 2.135-1.43 3.66h10.791z"/><path d="m208.967 217.175c-.216-.228-.324-.572-.324-1.029v-23.145c0-.483.108-.839.324-1.068s.578-.343 1.087-.343h2.021c.508 0 .877.114 1.106.343s.343.585.343 1.068v23.145c0 .457-.108.801-.324 1.029-.217.229-.591.344-1.125.344h-2.021c-.509 0-.872-.115-1.087-.344z"/><path d="m220.1 215.593c-1.894-1.664-2.841-4.048-2.841-7.15 0-1.932.432-3.634 1.297-5.109.864-1.474 2.103-2.625 3.717-3.451s3.501-1.239 5.663-1.239c1.602 0 2.961.152 4.08.457 1.118.305 2.16.801 3.127 1.487.229.152.343.318.343.495 0 .152-.064.331-.191.534l-1.03 1.792c-.152.254-.292.381-.419.381s-.305-.076-.534-.229c-.788-.482-1.57-.845-2.345-1.086-.776-.242-1.697-.362-2.765-.362-1.906 0-3.406.566-4.499 1.697s-1.639 2.676-1.639 4.633c0 2.059.546 3.604 1.639 4.633 1.093 1.03 2.694 1.544 4.805 1.544 1.067 0 1.995-.127 2.784-.381.788-.254 1.55-.623 2.288-1.106.203-.127.368-.191.495-.191.152 0 .305.128.458.381l1.106 1.869c.101.127.152.267.152.419 0 .178-.127.356-.381.534-1.017.661-2.11 1.15-3.279 1.468-1.169.317-2.542.476-4.118.476-3.381.002-6.019-.83-7.913-2.496z"/><path d="m241.492 215.479c-1.792-1.741-2.688-4.112-2.688-7.111s.896-5.37 2.688-7.111 4.34-2.612 7.645-2.612 5.859.871 7.664 2.612 2.707 4.112 2.707 7.111c0 3-.902 5.37-2.707 7.111s-4.36 2.612-7.664 2.612c-3.305 0-5.853-.871-7.645-2.612zm11.763-2.536c.941-1.042 1.411-2.567 1.411-4.575 0-1.983-.47-3.489-1.411-4.519-.94-1.029-2.313-1.544-4.118-1.544-1.779 0-3.146.515-4.099 1.544-.953 1.03-1.43 2.536-1.43 4.519s.477 3.502 1.43 4.557 2.319 1.582 4.099 1.582c1.805-.001 3.177-.521 4.118-1.564z"/><path d="m263.588 217.175c-.229-.228-.344-.572-.344-1.029v-15.901c0-.381.063-.648.191-.8.127-.153.394-.229.8-.229h2.021c.279 0 .483.057.61.171.127.115.203.312.229.591l.114 1.602c.737-.94 1.583-1.665 2.536-2.173s2.09-.763 3.413-.763c1.118 0 2.091.248 2.917.743.826.496 1.43 1.227 1.811 2.193 1.398-1.957 3.419-2.936 6.063-2.936 1.805 0 3.235.547 4.29 1.639 1.055 1.093 1.582 2.72 1.582 4.881v10.982c0 .457-.108.801-.324 1.029-.217.229-.591.344-1.125.344h-1.678c-.509 0-.877-.114-1.106-.344-.229-.228-.343-.572-.343-1.029v-10.715c0-1.169-.248-2.008-.744-2.517-.496-.508-1.239-.763-2.231-.763-1.043 0-1.888.343-2.536 1.029s-.973 1.615-.973 2.784v10.181c0 .457-.114.801-.343 1.029-.229.229-.598.344-1.106.344h-1.563c-.509 0-.877-.114-1.106-.344-.229-.228-.343-.572-.343-1.029v-10.905c0-1.068-.223-1.849-.667-2.345-.445-.495-1.15-.743-2.116-.743-1.093 0-1.983.362-2.669 1.087-.687.724-1.03 1.671-1.03 2.841v10.066c0 .457-.109.801-.324 1.029-.216.229-.591.344-1.125.344h-1.678c-.506 0-.874-.115-1.103-.344z"/><path d="m298.63 217.08c-1.601-.673-2.879-1.716-3.832-3.127-.954-1.411-1.43-3.171-1.43-5.281 0-3.279.877-5.77 2.631-7.473s4.245-2.555 7.474-2.555c3.203 0 5.624.826 7.264 2.478s2.46 4.042 2.46 7.168c0 .89-.407 1.335-1.22 1.335h-13.994c0 1.678.584 2.969 1.754 3.87 1.169.903 2.796 1.354 4.881 1.354 2.008 0 3.813-.458 5.414-1.373.177-.102.318-.153.419-.153.178 0 .318.115.42.343l.915 1.639c.076.153.114.292.114.419 0 .178-.114.343-.343.496-1.042.636-2.167 1.106-3.375 1.41-1.207.305-2.6.458-4.175.458-1.983.003-3.776-.335-5.377-1.008zm10.143-10.276c0-1.576-.438-2.809-1.315-3.699s-2.193-1.335-3.947-1.335c-1.779 0-3.146.457-4.099 1.373-.953.915-1.43 2.135-1.43 3.66h10.791z"/><path d="m316.17 215.955v-.801c0-1.067.75-1.602 2.25-1.602h.991c1.5 0 2.25.534 2.25 1.602v.801c0 1.042-.75 1.563-2.25 1.563h-.991c-1.5.001-2.25-.52-2.25-1.563zm.82-5.967c-.191-.216-.286-.565-.286-1.049l-.229-15.938c0-.483.108-.839.324-1.068s.578-.343 1.087-.343h2.097c.508 0 .87.114 1.087.343.216.229.324.585.324 1.068l-.267 15.938c0 .483-.095.833-.286 1.049s-.54.324-1.049.324h-1.869c-.431 0-.742-.108-.933-.324z"/></g><path d="m134.699 190.653c-.617 1.728-1.973 2.545-2.991 4.27-1.018 1.726-1.414 6.855-.288 8.998 1.126 2.142 4.159 5.054 8.368 5.367 1.49 0 2.834-.273 4.084-1.134.556-.382 1.057-.849 1.468-1.384.438-.57.593-1.201.84-1.87.02-.053.041-.108.084-.145.047-.04.112-.049.174-.059.435-.07.863-.232 1.194-.522s.554-.719.537-1.159c-.022-.567-.429-1.058-.913-1.353s-1.044-.435-1.584-.606c-1.331-.421-2.56-1.094-3.864-1.587-4.657-1.761-7.109-4.292-7.109-4.292z" fill="#ffa8a7"/><path d="m346.658 192.206c.626 1.754 2.002 2.582 3.036 4.334 1.034 1.751 1.435 6.957.292 9.131s-4.221 5.129-8.492 5.447c-3.202.238-5.869-2.035-6.494-4.2-.908-3.146.663-4.336 4.444-5.766 4.726-1.787 7.215-4.356 7.215-4.356v-4.59z" fill="#b16668"/><path d="m253.999 177.67c5.597.913 7.208 4.219 7.208 4.219h-4.579s-.579 1.541.964 7.314c.539 2.015-2.455 2.075-2.545 1.316-.541 1.245-4.475 2.98-7.415 1.028-2.697-1.79-3.905-4.525-3.302-9.658 1.029-5.734 8.688-4.379 9.669-4.219z" fill="#b16668"/></svg>